<?xml version="1.0" encoding="utf-8"?>
<!-- Generator: Adobe Illustrator 17.0.0, SVG Export Plug-In . SVG Version: 6.00 Build 0)  -->
<!DOCTYPE svg PUBLIC "-//W3C//DTD SVG 1.1//EN" "http://www.w3.org/Graphics/SVG/1.1/DTD/svg11.dtd">
<svg version="1.1" id="Layer_1" xmlns="http://www.w3.org/2000/svg" xmlns:xlink="http://www.w3.org/1999/xlink" x="0px" y="0px"
	 width="1024px" height="1024px" viewBox="0 0 1025 1024" enable-background="new 0 0 1025 1024" xml:space="preserve">
<g><path d="M853.333 768v42.667c0 23.467-19.2 42.667-42.667 42.667h-597.333c-23.467 0-42.667-19.2-42.667-42.667v-42.667c0-93.867 76.8-170.667 170.667-170.667 123.733 0 96 21.333 170.667 21.333 76.8 0 46.933-21.333 170.667-21.333 93.867 0 170.667 76.8 170.667 170.667zM512 661.333c-81.067 0-57.6-21.333-170.667-21.333-70.4 0-128 57.6-128 128v42.667h597.333v-42.667c0-70.4-57.6-128-128-128-113.067 0-89.6 21.333-170.667 21.333zM704 362.667c0 106.667-85.333 192-192 192s-192-85.333-192-192c0-106.667 85.333-192 192-192s192 85.333 192 192zM362.667 362.667c0 83.2 66.133 149.333 149.333 149.333s149.333-66.133 149.333-149.333c0-83.2-66.133-149.333-149.333-149.333s-149.333 66.133-149.333 149.333z"></path></g>
</svg>
