<?xml version="1.0" encoding="utf-8"?>
<!-- Generator: Adobe Illustrator 17.0.0, SVG Export Plug-In . SVG Version: 6.00 Build 0)  -->
<!DOCTYPE svg PUBLIC "-//W3C//DTD SVG 1.1//EN" "http://www.w3.org/Graphics/SVG/1.1/DTD/svg11.dtd">
<svg version="1.1" id="Layer_1" xmlns="http://www.w3.org/2000/svg" xmlns:xlink="http://www.w3.org/1999/xlink" x="0px" y="0px"
	 width="1025px" height="1024px" viewBox="0 0 1025 1024" enable-background="new 0 0 1025 1024" xml:space="preserve">
<g>
	<path fill="rgb(112, 112, 112)" d="M724.143 299.554h-19.689l2.999-53.99c0.651-11.755-2.643-22.976-9.338-32.254 10.967-13.508 17.553-30.708 17.553-49.422 0-43.313-35.238-78.555-78.554-78.555h-321.333c-43.315 0-78.556 35.242-78.556 78.557 0 10.073 1.926 19.697 5.395 28.555h-7.174c-15.501 0-28.872 6.693-36.686 18.362-7.813 11.67-8.91 26.584-3.005 40.922l45.798 111.147c2.187 5.306 4.393 12.689 6.197 20.269 0.004 0.015 0.009 0.028 0.011 0.043 1.988 8.361 3.484 16.951 3.891 23.264l17.766 274.133c-34.453 13.286-58.972 46.729-58.972 85.809v147.273c0 13.807 11.194 25.001 24.999 25.001h482.001c13.807 0 25.001-11.194 25.001-25.001v-147.277c0-39.149-24.608-72.644-59.159-85.879l3.509-63.174h37.344c50.697 0 91.945-41.248 91.945-91.945v-133.89c0-50.699-41.246-91.947-91.945-91.947zM376.032 567.334h-63.844l-3.701-57.114h67.543c13.807 0 25.001-11.191 25.001-24.998s-11.194-25.001-25.001-25.001h-70.784l-3.695-57.007c-0.004-0.034-0.009-0.070-0.009-0.102h347.078l-15.074 271.332h-314.417l-3.701-57.111h60.602c13.807 0 25.001-11.194 25.001-25.001s-11.191-24.998-24.998-24.998zM287.228 163.89c0-15.745 12.809-28.557 28.555-28.557h321.335c15.744 0 28.555 12.812 28.555 28.557s-12.811 28.555-28.555 28.555h-321.335c-15.746 0-28.555-12.81-28.555-28.555zM315.782 242.445h341.419c0.201-0.002 0.303 0.051 0.307 0.026 0.011 0.019 0.036 0.124 0.023 0.324l-6.129 110.317h-360.215c-1.103-3.334-2.242-6.473-3.403-9.286l-41.775-101.38h69.773zM692.448 888.666h-432v-122.276c0-23.127 18.818-41.943 41.943-41.943h348.113c23.127 0 41.943 18.816 41.943 41.943v122.276zM766.086 525.389c0 23.127-18.814 41.946-41.943 41.946h-34.566l12.098-217.779h22.468c23.125 0 41.941 18.816 41.941 41.946v133.888h0.002z"></path><path fill="rgb(112, 112, 112)" d="M476.448 741.391c-35.934 0-65.167 29.235-65.167 65.167 0 35.936 29.233 65.169 65.167 65.169s65.169-29.233 65.169-65.169c0-35.932-29.235-65.167-65.169-65.167zM476.448 821.726c-8.363 0-15.166-6.803-15.166-15.168s6.803-15.168 15.166-15.168c8.365 0 15.168 6.803 15.168 15.168s-6.803 15.168-15.168 15.168z"></path>
</g>
</svg>
