<svg width="1024" height="1024" viewBox="0 0 24 24" fill="none" xmlns="http://www.w3.org/2000/svg">
<path d="M14.4359 11.0383C14.4359 11.8516 13.1133 13.3223 12.0012 14.2879C10.8891 13.3219 9.56641 11.8516 9.56641 11.0383C9.56641 10.4902 10.0492 10.0273 10.6203 10.0273C11.0852 10.0273 11.3668 10.2906 11.5215 10.5113L12.0012 11.1969L12.4813 10.5113C12.6902 10.2129 13.0355 10.0273 13.382 10.0273C13.9535 10.0273 14.4359 10.4902 14.4359 11.0383Z" fill="#707070"/>
<path d="M18.184 2.38281H14.0898V3.69141C14.0898 4.84375 13.1523 5.78125 12 5.78125C10.8477 5.78125 9.91016 4.84375 9.91016 3.69141V2.38281H5.81875L2 4.33633V10.459H5.37422V18.1641H5.96016C7.54062 18.1641 8.82617 19.45 8.82617 21.0305V21.6164H15.1766V21.0305C15.1766 19.45 16.4621 18.1641 18.0426 18.1641H18.6285V10.459H22V4.33672L18.184 2.38281ZM13.9387 14.0449C13.1641 14.8691 12.3996 15.4832 12.3672 15.509L12.0012 15.8016L11.6352 15.509C11.6031 15.4832 10.8387 14.8691 10.0641 14.0449C8.94063 12.8492 8.39453 11.866 8.39453 11.0383C8.39453 9.83477 9.39336 8.85547 10.6203 8.85547C11.1328 8.85547 11.6133 9.025 12.0059 9.33398C12.4012 9.03047 12.8895 8.85547 13.382 8.85547C14.6094 8.85547 15.6078 9.83477 15.6078 11.0383C15.6078 11.866 15.0617 12.8492 13.9387 14.0449Z" fill="#707070"/>
</svg>
