<?xml version="1.0" encoding="utf-8"?>
<!-- Generator: Adobe Illustrator 17.0.0, SVG Export Plug-In . SVG Version: 6.00 Build 0)  -->
<!DOCTYPE svg PUBLIC "-//W3C//DTD SVG 1.1//EN" "http://www.w3.org/Graphics/SVG/1.1/DTD/svg11.dtd">
<svg version="1.1" id="Layer_1" xmlns="http://www.w3.org/2000/svg" xmlns:xlink="http://www.w3.org/1999/xlink" x="0px" y="0px"
	 width="1025px" height="1024px" viewBox="0 0 1025 1024" enable-background="new 0 0 1025 1024" xml:space="preserve">
<g><path d="M884 228h-872c-6.627 0-12-5.373-12-12v0-48c0-6.627 5.373-12 12-12v0h872c6.627 0 12 5.373 12 12v0 48c0 6.627-5.373 12-12 12v0zM884 548h-872c-6.627 0-12-5.373-12-12v0-48c0-6.627 5.373-12 12-12v0h872c6.627 0 12 5.373 12 12v0 48c0 6.627-5.373 12-12 12v0zM884 868h-872c-6.627 0-12-5.373-12-12v0-48c0-6.627 5.373-12 12-12v0h872c6.627 0 12 5.373 12 12v0 48c0 6.627-5.373 12-12 12v0z"></path></g>
</svg>
