<?xml version="1.0" encoding="utf-8"?>
<!-- Generator: Adobe Illustrator 17.0.0, SVG Export Plug-In . SVG Version: 6.00 Build 0)  -->
<!DOCTYPE svg PUBLIC "-//W3C//DTD SVG 1.1//EN" "http://www.w3.org/Graphics/SVG/1.1/DTD/svg11.dtd">
<svg version="1.1" id="Layer_1" xmlns="http://www.w3.org/2000/svg" xmlns:xlink="http://www.w3.org/1999/xlink" x="0px" y="0px"
	 width="1024px" height="1024px" viewBox="0 0 1025 1024" enable-background="new 0 0 1025 1024" xml:space="preserve">
<g><path d="M572.002 292.855c-4.621-1.632-9.335-3.335-14.050-5.104v-79.965c10.458 2.851 15.782 8.12 16.154 8.499 7.296 8.282 19.921 9.124 28.254 1.868 8.363-7.284 9.237-19.966 1.95-28.327-7.595-8.722-23.595-19.719-46.357-23.036v-14.191c0-11.087-8.986-20.079-20.075-20.079s-20.079 8.991-20.079 20.079v16.522c-2.082 0.512-4.181 1.066-6.323 1.711-26.167 7.885-45.717 30.252-51.021 58.38-4.847 25.725 3.447 50.569 21.645 64.841 9.143 7.174 20.42 13.748 35.695 20.637v101.964c-12.442-1.237-20.966-4.723-34.97-13.885-9.284-6.076-21.726-3.469-27.797 5.811-6.067 9.28-3.469 21.725 5.815 27.796 22.238 14.545 37.67 19.23 56.951 20.57v16.909c0 11.085 8.99 20.075 20.079 20.075s20.079-8.99 20.079-20.075v-18.722c38.17-8.678 62.673-40.828 68.002-72.54 6.818-40.52-14.362-75.744-53.952-89.739v0zM506.884 262.458c-6.259-4.909-8.994-15.039-6.963-25.809 1.707-9.055 7.279-19.773 17.877-25.231v58.288c-4.045-2.343-7.74-4.756-10.914-7.248v0zM586.355 375.934c-2.441 14.537-12.087 29.923-28.403 37.137v-82.591c0.23 0.080 0.439 0.159 0.67 0.239 30.95 10.938 29.056 37.374 27.733 45.215v0z"></path><path d="M150.618 242.949h220.863c16.633 0 30.118-13.484 30.118-30.118s-13.484-30.118-30.118-30.118h-220.863c-16.633 0-30.118 13.485-30.118 30.118s13.485 30.118 30.118 30.118z"></path><path d="M150.618 363.418h220.863c16.633 0 30.118-13.485 30.118-30.118s-13.484-30.118-30.118-30.118h-220.863c-16.633 0-30.118 13.485-30.118 30.118s13.485 30.118 30.118 30.118z"></path><path d="M150.618 483.891h220.863c16.633 0 30.118-13.483 30.118-30.118 0-16.631-13.484-30.117-30.118-30.117h-220.863c-16.633 0-30.118 13.485-30.118 30.117 0 16.636 13.485 30.118 30.118 30.118z"></path><path d="M592.341 544.124h-441.724c-16.633 0-30.118 13.487-30.118 30.118s13.485 30.118 30.118 30.118h441.724c16.636 0 30.118-13.487 30.118-30.118s-13.483-30.118-30.118-30.118z"></path><path d="M592.341 664.593h-441.724c-16.633 0-30.118 13.487-30.118 30.118s13.485 30.118 30.118 30.118h441.724c16.636 0 30.118-13.487 30.118-30.118s-13.483-30.118-30.118-30.118z"></path><path d="M592.341 785.067h-441.724c-16.633 0-30.118 13.487-30.118 30.118s13.485 30.118 30.118 30.118h441.724c16.636 0 30.118-13.487 30.118-30.118s-13.483-30.118-30.118-30.118z"></path><path d="M1007.744 607.369c-9.988-5.158-22.025-4.339-31.219 2.116l-68.066 47.808-68.062-47.808c-10.411-7.309-24.311-7.309-34.722 0.004l-62.771 44.122v-623.611c0-11.206-6.272-21.476-16.256-26.632-9.988-5.156-22.029-4.34-31.219 2.116l-68.066 47.808-68.062-47.81c-10.411-7.31-24.311-7.308-34.722 0.006l-67.989 47.79-67.921-47.782c-10.417-7.328-24.335-7.328-34.752 0l-67.903 47.776-67.925-47.778c-10.415-7.326-24.333-7.322-34.746 0l-67.927 47.78-67.925-47.78c-9.19-6.464-21.233-7.286-31.226-2.132-9.991 5.156-16.264 15.43-16.264 26.638v804.001c0 104.764 85.568 189.999 190.745 189.999h662.588c94.106 0 170.667-76.262 170.667-170.001v-219.998c0-11.209-6.268-21.478-16.256-26.633zM60.235 834.001v-746.089l37.808 26.594c10.417 7.324 24.333 7.324 34.748 0l67.925-47.78 67.93 47.78c10.417 7.328 24.333 7.326 34.749-0.002l67.901-47.776 67.91 47.776c10.415 7.324 24.324 7.324 34.739 0.008l68.006-47.798 68.058 47.804c10.406 7.308 24.303 7.308 34.714 0l37.943-26.654v766.135c0 41.924 15.347 80.329 40.695 110.003h-532.617c-71.963 0-130.51-58.321-130.51-130.001v0zM963.763 853.999c0 60.655-49.536 110.003-110.43 110.003s-110.43-49.348-110.43-110.003v-130.453c4.275-0.751 8.431-2.428 12.139-5.035l68.006-47.799 68.058 47.804c10.406 7.309 24.303 7.309 34.714 0l37.943-26.65v162.133z"></path></g>
</svg>
