<svg width="1024" height="1024" viewBox="0 0 24 24" fill="none" xmlns="http://www.w3.org/2000/svg">
<path d="M18.7632 2H17.0414V7.82736C17.0414 8.23678 16.6274 8.43921 16.3067 7.92517L15.1695 6.10554L14.0322 7.92517C13.7092 8.43694 13.2975 8.23678 13.2975 7.82736V2H7.52474C6.12925 2.00375 5 3.13607 5 4.53156V19.4753C5.00375 20.8681 6.13192 21.9962 7.52474 22H18.7655C19.0729 21.9995 19.3675 21.8768 19.5843 21.6588C19.8023 21.442 19.925 21.1474 19.9255 20.84V3.16229C19.9243 2.52087 19.4046 2.00125 18.7632 2ZM18.9793 18.9976L8.01149 19.0113C7.77243 19.0277 7.58222 19.218 7.56573 19.457C7.54748 19.7214 7.74707 19.9506 8.01149 19.9688H18.9793L18.977 20.8514C18.9771 20.904 18.9567 20.9546 18.9202 20.9924C18.8823 21.0289 18.8317 21.0494 18.7791 21.0492H7.52474C6.66109 21.0492 5.96099 20.3491 5.96099 19.4855C5.96099 18.6219 6.66109 17.9218 7.52474 17.9218H18.7791C18.8892 17.923 18.9781 18.0119 18.9793 18.1219V18.9976Z" fill="#707070"/>
</svg>
