<?xml version="1.0" encoding="utf-8"?>
<!-- Generator: Adobe Illustrator 17.0.0, SVG Export Plug-In . SVG Version: 6.00 Build 0)  -->
<!DOCTYPE svg PUBLIC "-//W3C//DTD SVG 1.1//EN" "http://www.w3.org/Graphics/SVG/1.1/DTD/svg11.dtd">
<svg version="1.1" id="Layer_1" xmlns="http://www.w3.org/2000/svg" xmlns:xlink="http://www.w3.org/1999/xlink" x="0px" y="0px"
	 width="1025px" height="1024px" viewBox="0 0 1025 1024" enable-background="new 0 0 1025 1024" xml:space="preserve">
<g><path d="M1013.935 604.78c-13.865-24.615-40.047-39.904-68.33-39.904-13.359 0-26.625 3.492-38.356 10.098l-228.311 128.576c-2.981 1.677-5.131 4.515-5.948 7.837-3.982 16.255-13.356 38.95-35.378 54.754-24.375 17.492-57.35 21.136-97.529 10.832-0.242-0.060-0.481-0.129-0.693-0.195l-131.706-40.894c-7.964-2.472-12.43-10.964-9.958-18.925 1.98-6.369 7.782-10.648 14.44-10.648 1.512 0 3.028 0.231 4.493 0.685l131.021 40.683c0.209 0.063 0.423 0.124 0.638 0.179 30.898 7.799 55.029 5.629 71.652-6.292 21.001-15.070 24.7-41.56 25.137-45.451 0.016-0.124 0.030-0.247 0.038-0.374 0.008-0.063 0.011-0.099 0.014-0.107 0.003-0.041 0.005-0.082 0.008-0.121 0.003-0.027 0.003-0.052 0.005-0.080 2.5-32.664-18.579-62.825-50.159-71.743l-0.58-0.176c-0.962-0.313-97.887-31.971-159.642-49.592-6.861-1.955-25.767-6.506-53.11-6.506-38.241 0-95.288 9.061-150.006 52.318l-227.084 183.688c-5.195 4.199-6.116 11.764-2.084 17.091l122.955 162.411c1.994 2.629 4.953 4.356 8.222 4.796 0.547 0.074 1.094 0.11 1.644 0.11 2.714 0 5.373-0.894 7.549-2.571l158.374-121.946c3.558-2.736 8.33-3.767 12.702-2.736l255.799 60.449c18.969 4.482 39.47 1.589 56.437-7.975l357.932-201.581c37.63-21.199 51.003-69.054 29.812-106.687z"></path><path d="M871.678 36.175h-467.489c-15.185 0-27.499 12.311-27.499 27.499v125.133c0 15.188 12.314 27.499 27.499 27.499h10.271v265.707c0 15.188 12.311 27.499 27.499 27.499h391.938c15.188 0 27.499-12.311 27.499-27.499v-265.71h10.279c15.185 0 27.499-12.311 27.499-27.499v-125.13c0.003-15.188-12.311-27.499-27.497-27.499zM695.778 281.64h-115.695c-12.13 0-22-9.87-22-22s9.87-22 22-22h115.695c12.13 0 22 9.87 22 22s-9.87 22-22 22zM844.179 161.306h-412.491v-70.132h412.491v70.132z"></path></g>
</svg>
