<?xml version="1.0" encoding="utf-8"?>
<!-- Generator: Adobe Illustrator 17.0.0, SVG Export Plug-In . SVG Version: 6.00 Build 0)  -->
<!DOCTYPE svg PUBLIC "-//W3C//DTD SVG 1.1//EN" "http://www.w3.org/Graphics/SVG/1.1/DTD/svg11.dtd">
<svg version="1.1" id="Layer_1" xmlns="http://www.w3.org/2000/svg" xmlns:xlink="http://www.w3.org/1999/xlink" x="0px" y="0px"
	 width="1024px" height="1024px" viewBox="0 0 1025 1024" enable-background="new 0 0 1025 1024" xml:space="preserve">
<g><path d="M853.333 512v234.278c0 58.957-48.098 107.055-107.055 107.055h-256c-35.686 0-63.612-27.925-63.612-63.612s27.925-63.612 63.612-63.612h85.333c35.686 0 63.612 27.925 63.612 63.612 0 7.757-1.549 13.965-4.655 21.722h110.157c35.686 0 63.616-29.478 63.616-63.612v-235.831c0-164.461-133.431-299.442-299.443-299.442-162.91 1.551-291.686 138.085-294.789 299.442v32.58c0 6.208-4.655 10.863-10.86 10.863h-21.721c-6.206 0-10.861-4.655-10.861-10.863v-32.58c4.655-184.63 152.049-341.333 341.333-341.333 187.733 0 341.333 153.6 341.333 341.333zM426.667 639.223c0 23.275-18.618 43.443-43.442 43.443h-41.891c-46.545 0-85.333-38.788-85.333-85.333v-85.333c0-46.545 38.788-85.333 85.333-85.333h43.442c23.273 0 43.444 18.62 43.444 43.443v169.114h-1.553zM384.776 470.11h-43.442c-23.273 0-43.442 18.615-43.442 43.443v85.333c0 23.27 18.618 43.439 43.442 43.439h43.442v-172.215zM597.333 789.722c0-12.412-9.31-21.722-21.722-21.722h-85.333c-12.412 0-21.722 9.31-21.722 21.722s9.31 21.722 21.722 21.722h85.333c12.412 0 21.722-10.863 21.722-21.722zM640.777 682.667c-23.275 0-43.443-18.62-43.443-43.443v-170.667c0-23.27 18.62-43.441 43.443-43.441h41.89c46.545 0 85.333 38.787 85.333 85.332v85.333c0 46.545-38.788 85.333-85.333 85.333h-41.89v1.553zM640.777 639.223h41.89c23.275 0 43.443-18.615 43.443-43.443v-83.78c0-23.275-18.62-43.443-43.443-43.443h-43.443v170.667h1.553z"></path></g>
</svg>
