<?xml version="1.0" encoding="utf-8"?>
<!-- Generator: Adobe Illustrator 17.0.0, SVG Export Plug-In . SVG Version: 6.00 Build 0)  -->
<!DOCTYPE svg PUBLIC "-//W3C//DTD SVG 1.1//EN" "http://www.w3.org/Graphics/SVG/1.1/DTD/svg11.dtd">
<svg version="1.1" id="Layer_1" xmlns="http://www.w3.org/2000/svg" xmlns:xlink="http://www.w3.org/1999/xlink" x="0px" y="0px"
	 width="1024px" height="1024px" viewBox="0 0 1025 1024" enable-background="new 0 0 1025 1024" xml:space="preserve">
<g><path d="M916.732 714.748l-106.086-106.086c-29.248-29.244-76.843-29.244-106.086 0l-48.222 48.222c-22.157 22.157-58.21 22.153-80.363 0.009l-209.008-209.186c-22.21-22.211-22.213-58.157 0-80.37 7.767-7.767 30.069-30.069 48.22-48.22 29.118-29.118 29.528-76.562-0.028-106.113l-106.058-105.725c-29.248-29.246-76.838-29.246-106.008-0.077-21.827 21.638-28.868 28.618-38.655 38.32-105.471 105.469-105.471 277.082-0.005 382.547l331.166 331.341c105.719 105.719 276.826 105.728 382.554 0l38.579-38.575c29.248-29.248 29.248-76.838 0-106.086zM238.377 142.639c9.749-9.749 25.609-9.751 35.39 0.026l106.058 105.725c9.772 9.772 9.772 25.588 0 35.362l-17.683 17.681-141.356-141.356 17.591-17.437zM530.97 824.055l-331.171-331.345c-81.6-81.601-86.086-209.732-13.794-296.69l140.946 140.946c-37.035 41.984-35.491 105.957 4.645 146.093l209.003 209.178c0 0.004 0.004 0.009 0.004 0.009 40.094 40.094 104.068 41.737 146.103 4.655l140.949 140.949c-86.682 72.166-214.528 68.365-296.687-13.794zM881.37 785.472l-17.681 17.681-141.449-141.449 17.681-17.681c9.749-9.749 25.613-9.749 35.362 0l106.086 106.086c9.749 9.754 9.749 25.617 0 35.362z"></path></g>
</svg>
