<?xml version="1.0" encoding="utf-8"?>
<!-- Generator: Adobe Illustrator 17.0.0, SVG Export Plug-In . SVG Version: 6.00 Build 0)  -->
<!DOCTYPE svg PUBLIC "-//W3C//DTD SVG 1.1//EN" "http://www.w3.org/Graphics/SVG/1.1/DTD/svg11.dtd">
<svg version="1.1" id="Layer_1" xmlns="http://www.w3.org/2000/svg" xmlns:xlink="http://www.w3.org/1999/xlink" x="0px" y="0px"
	 width="1024px" height="1024px" viewBox="0 0 1025 1024" enable-background="new 0 0 1025 1024" xml:space="preserve">
<g><path d="M855.552 260.267c0 328.533-264.533 593.067-593.065 593.067-29.867 0-51.2-21.333-59.733-46.933l-29.867-128c-8.533-29.867 8.533-59.733 34.133-68.267l136.533-55.467c8.533-4.267 17.067-4.267 25.6-4.267 17.067-4.267 34.133 4.267 46.933 21.333l42.665 55.467c68.267-38.4 128-93.867 166.4-166.4l-55.467-42.667c-17.067-21.333-25.6-51.2-12.8-76.8l59.733-136.533c4.267-21.333 29.867-34.133 51.2-34.133 4.267 0 8.533 0 12.8 0l123.733 29.867c29.867 8.533 51.2 29.867 51.2 59.733zM292.353 354.133h-98.133c-12.8 0-21.333-12.8-21.333-21.333v-21.333c0-12.8 8.533-21.333 21.333-21.333h98.133v-98.133c0-12.8 8.533-21.333 21.333-21.333h21.333c8.533 0 21.333 8.533 21.333 21.333v98.133h98.132c8.533 0 17.067 8.533 17.067 21.333v21.333c0 8.533-8.533 21.333-21.333 21.333h-93.865v98.133c0 8.533-12.8 17.067-21.333 17.067h-21.333c-12.8 0-21.333-8.533-21.333-21.333v-93.867zM791.552 264.533l-119.467-29.867-55.467 132.267 89.6 72.533c-64 132.267-132.267 200.533-264.533 264.533l-72.532-89.6-132.267 55.467 29.867 119.467c290.132 0 524.799-234.667 524.799-524.8z"></path></g>
</svg>
