<?xml version="1.0" encoding="utf-8"?>
<!-- Generator: Adobe Illustrator 17.0.0, SVG Export Plug-In . SVG Version: 6.00 Build 0)  -->
<!DOCTYPE svg PUBLIC "-//W3C//DTD SVG 1.1//EN" "http://www.w3.org/Graphics/SVG/1.1/DTD/svg11.dtd">
<svg version="1.1" id="Layer_1" xmlns="http://www.w3.org/2000/svg" xmlns:xlink="http://www.w3.org/1999/xlink" x="0px" y="0px"
	 width="1025px" height="1024px" viewBox="0 0 1025 1024" enable-background="new 0 0 1025 1024" xml:space="preserve">
<g>
	<path d="M880.499 237.999h-183.678l-17.862-53.587c-11.249-33.743-42.703-56.412-78.268-56.412h-177.382c-35.565 0-67.019 22.669-78.268 56.412l-17.862 53.587h-44.346v-45.832c0-35.382-28.785-64.167-64.166-64.167h-36.667c-35.382 0-64.167 28.785-64.167 64.167v49.156c-43.208 11.381-75.167 50.78-75.167 97.51v476.668c0 55.599 45.234 100.832 100.833 100.832h736.999c55.601 0 100.834-45.233 100.834-100.832v-476.668c0-55.599-45.233-100.834-100.834-100.834zM172.833 192.167c0-5.055 4.112-9.167 9.167-9.167h36.667c5.054 0 9.167 4.112 9.167 9.167v45.832h-55v-45.832zM926.334 815.501c0 25.271-20.561 45.833-45.835 45.833h-736.999c-25.273 0-45.833-20.561-45.833-45.833v-476.668c0-25.271 20.561-45.833 45.833-45.833h203.5c11.836 0 22.345-7.573 26.089-18.805l24.13-72.391c3.753-11.248 14.234-18.805 26.091-18.805h177.382c11.857 0 22.34 7.557 26.089 18.803l24.13 72.393c3.746 11.232 14.255 18.805 26.091 18.805h203.499c25.274 0 45.835 20.561 45.835 45.833v476.668z"></path>
	<path d="M842.001 402.999c15.187 0 27.499-12.311 27.499-27.499 0-15.189-12.311-27.501-27.499-27.501-15.189 0-27.501 12.311-27.501 27.501 0 15.187 12.311 27.499 27.501 27.499z"></path>
	<path d="M237.001 348h-55.001c-15.187 0-27.5 12.314-27.5 27.501s12.313 27.499 27.5 27.499h55.001c15.187 0 27.499-12.311 27.499-27.499s-12.311-27.501-27.499-27.501z"></path>
	<path d="M512 806.334c-136.471 0-247.501-111.029-247.501-247.501s111.029-247.499 247.501-247.499c136.471 0 247.501 111.027 247.501 247.499s-111.029 247.501-247.501 247.501zM512 366.334c-106.144 0-192.499 86.355-192.499 192.499s86.355 192.501 192.499 192.501c106.144 0 192.499-86.357 192.499-192.501s-86.355-192.499-192.499-192.499z"></path>
	<path d="M512 696.333c-75.817 0-137.5-61.681-137.5-137.5 0-75.817 61.683-137.5 137.5-137.5s137.5 61.683 137.5 137.5c0 75.819-61.683 137.5-137.5 137.5zM512 476.333c-45.491 0-82.5 37.009-82.5 82.5s37.009 82.5 82.5 82.5c45.491 0 82.5-37.009 82.5-82.5s-37.009-82.5-82.5-82.5z"></path>
</g>
</svg>
