<?xml version="1.0" encoding="utf-8"?>
<!-- Generator: Adobe Illustrator 17.0.0, SVG Export Plug-In . SVG Version: 6.00 Build 0)  -->
<!DOCTYPE svg PUBLIC "-//W3C//DTD SVG 1.1//EN" "http://www.w3.org/Graphics/SVG/1.1/DTD/svg11.dtd">
<svg version="1.1" id="Layer_1" xmlns="http://www.w3.org/2000/svg" xmlns:xlink="http://www.w3.org/1999/xlink" x="0px" y="0px"
	 width="1024px" height="1024px" viewBox="0 0 1025 1024" enable-background="new 0 0 1025 1024" xml:space="preserve">
<g><path d="M896 298.667v506.667c0 74.667-60.343 133.333-137.143 133.333h-493.713c-76.8 0-137.143-58.667-137.143-133.333v-506.667h164.571c0-117.333 98.743-213.333 219.429-213.333 120.687 0 219.43 96 219.43 213.333h164.57zM841.143 352h-109.713v80c0 16-10.974 26.667-27.43 26.667s-27.43-10.667-27.43-26.667v-80h-329.141v80c0 16-10.972 26.667-27.429 26.667s-27.429-10.667-27.429-26.667v-80h-109.714v453.333c0 45.333 35.657 80 82.286 80h493.713c46.63 0 82.287-34.667 82.287-80v-453.333zM347.429 298.667h329.141c0-88-74.057-160-164.57-160-90.514 0-164.571 72-164.571 160z"></path></g>
</svg>
