<?xml version="1.0" encoding="utf-8"?>
<!-- Generator: Adobe Illustrator 17.0.0, SVG Export Plug-In . SVG Version: 6.00 Build 0)  -->
<!DOCTYPE svg PUBLIC "-//W3C//DTD SVG 1.1//EN" "http://www.w3.org/Graphics/SVG/1.1/DTD/svg11.dtd">
<svg version="1.1" id="Layer_1" xmlns="http://www.w3.org/2000/svg" xmlns:xlink="http://www.w3.org/1999/xlink" x="0px" y="0px"
	 width="1025px" height="1024px" viewBox="0 0 1025 1024" enable-background="new 0 0 1025 1024" xml:space="preserve">
<g><path d="M848 704h32c8.8 0 16-7.2 16-16v-480c0-8.8-7.2-16-16-16h-32c-8.8 0-16 7.2-16 16v480c0 8.8 7.2 16 16 16zM656 704h32c8.8 0 16-7.2 16-16v-288c0-8.8-7.2-16-16-16h-32c-8.8 0-16 7.2-16 16v288c0 8.8 7.2 16 16 16zM272 704h32c8.8 0 16-7.2 16-16v-160c0-8.8-7.2-16-16-16h-32c-8.8 0-16 7.2-16 16v160c0 8.8 7.2 16 16 16zM464 704h32c8.8 0 16-7.2 16-16v-416c0-8.8-7.2-16-16-16h-32c-8.8 0-16 7.2-16 16v416c0 8.8 7.2 16 16 16zM1008 832h-944v-688c0-8.84-7.16-16-16-16h-32c-8.84 0-16 7.16-16 16v720c0 17.68 14.32 32 32 32h976c8.84 0 16-7.16 16-16v-32c0-8.84-7.16-16-16-16z"></path></g>
</svg>
