<?xml version="1.0" encoding="utf-8"?>
<!-- Generator: Adobe Illustrator 17.0.0, SVG Export Plug-In . SVG Version: 6.00 Build 0)  -->
<!DOCTYPE svg PUBLIC "-//W3C//DTD SVG 1.1//EN" "http://www.w3.org/Graphics/SVG/1.1/DTD/svg11.dtd">
<svg version="1.1" id="Layer_1" xmlns="http://www.w3.org/2000/svg" xmlns:xlink="http://www.w3.org/1999/xlink" x="0px" y="0px"
	 width="1025px" height="1024px" viewBox="0 0 1025 1024" enable-background="new 0 0 1025 1024" xml:space="preserve">
<g>
	<path fill="rgb(112, 112, 112)" d="M512 1024c-282.77 0-512-229.229-512-512 0-282.77 229.23-512 512-512 282.771 0 512 229.23 512 512-0.307 282.643-229.357 511.693-512 512zM512 102.4c-226.216 0-409.6 183.384-409.6 409.6 0 226.214 183.384 409.6 409.6 409.6 226.214 0 409.6-183.386 409.6-409.6-0.256-226.111-183.488-409.346-409.6-409.6zM768 563.2h-307.2v-307.2h102.4v204.8h204.8v102.4z"></path>
</g>
</svg>
