<svg width="1025" height="1024" xmlns="http://www.w3.org/2000/svg">

 <g>
  <title>background</title>
  <rect fill="none" id="canvas_background" height="602" width="802" y="-1" x="-1"/>
 </g>
 <g>
  <title>Layer 1</title>
  <g id="svg_1">
   <path id="svg_2" d="m580.39001,512l247.42,-247.42c6.24,-6.24 6.24,-16.38 0,-22.62l-45.26,-45.26c-6.24,-6.24 -16.38,-6.24 -22.62,0l-247.42,247.42l-247.42,-247.44c-6.24,-6.24 -16.38,-6.24 -22.62,0l-45.28,45.26c-6.24,6.24 -6.24,16.38 0,22.62l247.44,247.44l-247.44,247.42c-6.24,6.24 -6.24,16.38 0,22.62l45.26,45.26c6.24,6.24 16.38,6.24 22.62,0l247.44,-247.42l247.42,247.42c6.24,6.24 16.38,6.24 22.62,0l45.26,-45.26c6.24,-6.24 6.24,-16.38 0,-22.62l-247.42,-247.42z"/>
  </g>
 </g>
</svg>