<?xml version="1.0" encoding="utf-8"?>
<!-- Generator: Adobe Illustrator 17.0.0, SVG Export Plug-In . SVG Version: 6.00 Build 0)  -->
<!DOCTYPE svg PUBLIC "-//W3C//DTD SVG 1.1//EN" "http://www.w3.org/Graphics/SVG/1.1/DTD/svg11.dtd">
<svg version="1.1" id="Layer_1" xmlns="http://www.w3.org/2000/svg" xmlns:xlink="http://www.w3.org/1999/xlink" x="0px" y="0px"
	 width="1025px" height="1024px" viewBox="0 0 1025 1024" enable-background="new 0 0 1025 1024" xml:space="preserve">
<g><path d="M896 0h-768c-70.6 0-128 57.4-128 128v576c0 70.6 57.4 128 128 128h192v168c0 14.2 11.6 24 24 24 4.8 0 9.8-1.4 14.2-4.8l249.8-187.2h288c70.6 0 128-57.4 128-128v-576c0-70.6-57.4-128-128-128zM960 704c0 35.2-28.8 64-64 64h-309.4l-17 12.8-185.6 139.2v-152h-256c-35.2 0-64-28.8-64-64v-576c0-35.2 28.8-64 64-64h768c35.2 0 64 28.8 64 64v576z"></path></g>
</svg>
