<?xml version="1.0" encoding="utf-8"?>
<!-- Generator: Adobe Illustrator 17.0.0, SVG Export Plug-In . SVG Version: 6.00 Build 0)  -->
<!DOCTYPE svg PUBLIC "-//W3C//DTD SVG 1.1//EN" "http://www.w3.org/Graphics/SVG/1.1/DTD/svg11.dtd">
<svg version="1.1" id="Layer_1" xmlns="http://www.w3.org/2000/svg" xmlns:xlink="http://www.w3.org/1999/xlink" x="0px" y="0px"
	 width="1024px" height="1024px" viewBox="0 0 1025 1024" enable-background="new 0 0 1025 1024" xml:space="preserve">
<g><path d="M829.090 264.839c-14.669-1.337-27.639 9.469-28.979 24.136l-3.533 38.759c-59.942-94.141-164.002-157.067-284.574-157.067-129.71 0-244.019 74.030-300.763 185.139-6.699 13.116-1.496 29.179 11.62 35.878 13.119 6.699 29.179 1.498 35.878-11.62 48.023-94.033 144.459-156.064 253.265-156.064 99.166 0 188.663 51.642 239.936 132.545l-38.020-27.156c-11.989-8.559-28.642-5.783-37.201 6.201-8.559 11.985-5.781 28.639 6.199 37.199l115.302 82.349c16.9 12.045 40.209 1.020 42.057-19.281l12.945-142.039c1.34-14.668-9.463-27.642-24.132-28.979z"></path><path d="M801.139 632.32c-13.116-6.699-29.175-1.498-35.874 11.618-48.026 94.033-144.461 156.066-253.265 156.066-99.17 0-188.666-51.644-239.939-132.544l38.023 27.153c11.985 8.559 28.639 5.786 37.199-6.199 8.559-11.985 5.783-28.638-6.201-37.201l-115.301-82.347c-16.692-11.925-40.188-1.229-42.055 19.277l-12.948 142.042c-1.337 14.669 9.469 27.639 24.135 28.979 14.685 1.335 27.642-9.485 28.977-24.137l3.533-38.758c59.945 94.144 164.003 157.069 284.576 157.069 129.707 0 244.015-74.031 300.762-185.139 6.699-13.116 1.498-29.18-11.622-35.878z"></path></g>
</svg>
