<?xml version="1.0" encoding="utf-8"?>
<!-- Generator: Adobe Illustrator 17.0.0, SVG Export Plug-In . SVG Version: 6.00 Build 0)  -->
<!DOCTYPE svg PUBLIC "-//W3C//DTD SVG 1.1//EN" "http://www.w3.org/Graphics/SVG/1.1/DTD/svg11.dtd">
<svg version="1.1" id="Layer_1" xmlns="http://www.w3.org/2000/svg" xmlns:xlink="http://www.w3.org/1999/xlink" x="0px" y="0px"
	 width="1025px" height="1024px" viewBox="0 0 1025 1024" enable-background="new 0 0 1025 1024" xml:space="preserve">
<g>
	<path d="M873.795 151.106c-96.86-96.864-225.347-150.206-361.797-150.206-136.762 0-265.336 53.258-362.040 149.96s-149.958 225.278-149.958 362.041c0 132.127 50.48 257.357 140.204 352h-44.204c-17.674 0-32 14.326-32 32 0 17.669 14.326 32 32 32h128c17.674 0 32-14.331 32-32v-128c0-17.674-14.326-32-32-32s-32 14.326-32 32v57.528c-81.836-83.441-128-195.333-128-313.528 0-247.029 200.97-448.001 447.998-448.001 119.354 0 231.769 46.686 316.541 131.46s131.461 197.19 131.461 316.541c0 233.498-175.119 425.313-407.342 446.182-2.862 0.241-4.859-0.973-6.042-2.053-1.193-1.091-2.616-3.011-2.616-5.934v-184.878c90.685-15.278 160-94.351 160-189.317v-128.001c0-17.672-14.326-32-32-32h-32v-96c0-17.672-14.326-32-32-32s-32 14.328-32 32v96h-128.002v-96c0-17.672-14.326-32-32-32s-32 14.328-32 32v96h-32c-17.674 0-32 14.328-32 32v128.001c0 94.966 69.31 174.039 160 189.317v184.878c0 20.173 8.542 39.557 23.438 53.171 13.29 12.15 30.698 18.842 48.562 18.842 2.125 0 4.255-0.092 6.39-0.287 126.792-11.392 244.234-69.489 330.701-163.579 86.999-94.674 134.912-217.677 134.912-346.342 0-136.447-53.345-264.935-150.205-361.795zM464 576.901c0-26.465 21.534-48 48-48s48 21.535 48 48c0 26.465-21.535 48-48 48s-48-21.535-48-48z"/>
</g>
</svg>
