<svg width="1024" height="897" xmlns="http://www.w3.org/2000/svg">
 <style type="text/css">.st0{fill:none;}</style>

<g id="svg_1">
<path d="m512,505.40002c62.8,0 113.8,-50.9 113.8,-113.8s-51,-113.8 -113.8,-113.8l0,0c-1.8,0 -3.3,0.4 -5.1,0.5c3.2,8.6 5.1,18.5 5.1,28.8c0,46.6 -37.8,84.4 -84.4,84.4c-10.3,0 -20.2,-1.9 -29.4,-5.3l0.6,0.2c0,1.8 -0.5,3.3 -0.5,5.1c-0.1,62.9 50.9,113.9 113.7,113.9l0,0zm505.8,-82.9c-96.4,-188.1 -287.3,-315.3 -505.8,-315.3s-409.5,127.3 -505.8,315.4c-3.9,7.6 -6.2,16.5 -6.2,25.9c0,9.5 2.3,18.4 6.3,26.3l-0.2,-0.3c96.5,188.1 287.4,315.3 505.9,315.3s409.5,-127.3 505.8,-315.4c3.9,-7.6 6.2,-16.5 6.2,-25.9s-2.3,-18.4 -6.3,-26.3l0.1,0.3zm-505.8,-258.4c125.7,0 227.6,101.9 227.6,227.6s-101.9,227.5 -227.6,227.5s-227.6,-101.9 -227.6,-227.6l0,0c0.2,-125.6 102,-227.4 227.6,-227.5l0,0zm0,568.8c-190.9,0 -365.3,-109 -455.1,-284.4c51.5,-99.6 130.9,-178.7 227.8,-228.5l2.9,-1.4c-37.1,48 -60.1,107.6 -60.1,173c0,157.1 127.4,284.4 284.4,284.4s284.4,-127.4 284.4,-284.4l0,0c0,-65.5 -23,-125 -60.1,-173c99.9,51.2 179.2,130.3 229.3,227l1.4,2.9c-89.6,175.4 -264,284.4 -454.9,284.4l0,0z" id="svg_2"/>
</g>
 
</svg>