<?xml version="1.0" encoding="utf-8"?>
<!-- Generator: Adobe Illustrator 17.0.0, SVG Export Plug-In . SVG Version: 6.00 Build 0)  -->
<!DOCTYPE svg PUBLIC "-//W3C//DTD SVG 1.1//EN" "http://www.w3.org/Graphics/SVG/1.1/DTD/svg11.dtd">
<svg version="1.1" id="Layer_1" xmlns="http://www.w3.org/2000/svg" xmlns:xlink="http://www.w3.org/1999/xlink" x="0px" y="0px"
	 width="1025px" height="1024px" viewBox="0 0 1025 1024" enable-background="new 0 0 1025 1024" xml:space="preserve">
<g>
	<path d="M1018.441 291.876c-0.237-0.252-0.482-0.497-0.732-0.734l-212.702-189.046c-1.941-1.769-4.207-3.142-6.673-4.044l-153.865-54.995c-10.496-3.811-22.095 1.61-25.905 12.106-0.687 1.893-1.088 3.877-1.188 5.889 0 4.448-6.673 106.957-109.182 108.575-103.115-1.617-109.585-104.127-109.788-108.575-0.597-11.151-10.118-19.706-21.269-19.109-1.916 0.104-3.81 0.478-5.621 1.115l-153.662 55.602c-2.468 0.902-4.732 2.275-6.673 4.044l-211.286 188.439c-8.095 7.691-8.424 20.489-0.733 28.585 0.238 0.25 0.483 0.495 0.733 0.732l168.22 170.042v465.030c0 11.166 9.053 20.22 20.219 20.22h640.936c11.166 0 20.218-9.054 20.218-20.22v-465.030l168.222-170.042c8.094-7.691 8.422-20.486 0.732-28.582zM848.881 432.877v-93.815c0-11.166-9.054-20.22-20.22-20.22s-20.218 9.054-20.218 20.22v595.241h-600.7v-595.241c0-11.166-9.053-20.22-20.219-20.22s-20.219 9.054-20.219 20.22v94.016l-124.346-125.963 192.483-172.263 126.569-45.695c15.68 80.789 93.884 133.572 174.673 117.893 59.663-11.58 106.313-58.23 117.894-117.893l126.569 45.695 191.876 172.263-124.143 125.762z"></path>
</g>
</svg>
