<svg width="1024" height="1024" viewBox="0 0 24 24" fill="none" xmlns="http://www.w3.org/2000/svg">
<path d="M22 16.7396C22 15.9091 21.5093 15.1553 20.7498 14.8191L12.5859 11.2058V10.6142C13.8243 10.3449 14.7545 9.24027 14.7545 7.92242C14.7545 6.40359 13.5188 5.16797 12 5.16797C10.4812 5.16797 9.24551 6.40359 9.24551 7.92242H10.4174C10.4174 7.04977 11.1273 6.33984 12 6.33984C12.8727 6.33984 13.5826 7.04977 13.5826 7.92242C13.5826 8.79504 12.8727 9.505 12 9.505H11.4141V11.2058L3.25023 14.8191C2.4907 15.1552 2 15.9091 2 16.7396C2 17.8371 2.84637 18.7402 3.92059 18.8316L20.0729 18.8321C21.1502 18.7437 22 17.8393 22 16.7396ZM5.09246 17.668V16.994L12 13.9367L18.9011 16.9911V17.668H5.09246Z" fill="#707070"/>
</svg>
