<?xml version="1.0" encoding="utf-8"?>
<!-- Generator: Adobe Illustrator 17.0.0, SVG Export Plug-In . SVG Version: 6.00 Build 0)  -->
<!DOCTYPE svg PUBLIC "-//W3C//DTD SVG 1.1//EN" "http://www.w3.org/Graphics/SVG/1.1/DTD/svg11.dtd">
<svg version="1.1" id="Layer_1" xmlns="http://www.w3.org/2000/svg" xmlns:xlink="http://www.w3.org/1999/xlink" x="0px" y="0px"
	 width="1024px" height="1024px" viewBox="0 0 1025 1024" enable-background="new 0 0 1025 1024" xml:space="preserve">
<g><path d="M890.786 198.242h-499.407c-13.73-40.779-52.302-70.242-97.652-70.242s-83.921 29.463-97.652 70.242h-77.954c-18.109 0-32.789 14.681-32.789 32.789s14.681 32.79 32.789 32.79h77.956c13.73 40.779 52.301 70.241 97.651 70.241s83.921-29.462 97.652-70.241h499.409c18.108 0 32.789-14.681 32.789-32.79s-14.682-32.789-32.794-32.789zM293.728 268.483c-20.651 0-37.452-16.801-37.452-37.452s16.801-37.452 37.452-37.452c20.651 0 37.452 16.801 37.452 37.452s-16.801 37.452-37.452 37.452z"></path><path d="M890.786 479.211h-77.956c-13.73-40.781-52.301-70.242-97.651-70.242-45.346 0-83.917 29.461-97.647 70.242h-499.409c-18.109 0-32.789 14.682-32.789 32.789s14.681 32.789 32.789 32.789h499.409c13.73 40.781 52.301 70.242 97.651 70.242 45.346 0 83.921-29.461 97.651-70.242h77.956c18.108 0 32.789-14.682 32.789-32.789s-14.682-32.789-32.794-32.789zM715.183 549.453c-20.651 0-37.453-16.802-37.453-37.453s16.802-37.453 37.453-37.453c20.651 0 37.453 16.802 37.453 37.453s-16.802 37.453-37.453 37.453z"></path><path d="M890.786 760.179h-358.921c-13.73-40.781-52.301-70.242-97.651-70.242s-83.922 29.461-97.652 70.242h-218.439c-18.109 0-32.789 14.682-32.789 32.789s14.681 32.789 32.789 32.789h218.439c13.73 40.781 52.302 70.242 97.652 70.242s83.921-29.461 97.651-70.242h358.925c18.108 0 32.789-14.682 32.789-32.789s-14.682-32.789-32.794-32.789zM434.214 830.421c-20.652 0-37.453-16.798-37.453-37.449 0-20.655 16.801-37.453 37.453-37.453s37.453 16.798 37.453 37.449c0 20.651-16.802 37.453-37.453 37.453v0z"></path></g>
</svg>
