<?xml version="1.0" encoding="utf-8"?>
<!-- Generator: Adobe Illustrator 17.0.0, SVG Export Plug-In . SVG Version: 6.00 Build 0)  -->
<!DOCTYPE svg PUBLIC "-//W3C//DTD SVG 1.1//EN" "http://www.w3.org/Graphics/SVG/1.1/DTD/svg11.dtd">
<svg version="1.1" id="Layer_1" xmlns="http://www.w3.org/2000/svg" xmlns:xlink="http://www.w3.org/1999/xlink" x="0px" y="0px"
	 width="1024px" height="1024px" viewBox="0 0 1025 1024" enable-background="new 0 0 1025 1024" xml:space="preserve">
<g><path d="M853.333 639.659v17.749c0 4.096-4.096 8.192-8.192 8.192h-61.44c1.365 5.461 1.365 10.923 1.365 17.749 0 47.787-38.229 86.016-86.016 86.016s-86.016-38.229-86.016-86.016c0-5.461 0-10.923 1.365-17.749h-206.165c1.365 5.461 1.365 10.923 1.365 17.749 0 47.787-38.229 86.016-86.016 86.016s-84.651-39.595-84.651-86.016v-154.283h34.133v86.016c13.653-10.923 31.403-17.749 51.883-17.749 27.307 0 51.883 13.653 68.267 34.133h187.051v-326.315c0-8.192-8.192-15.019-19.115-15.019h-268.971c-10.923 0-19.115 6.827-19.115 15.019v19.115h162.475c4.096 0 8.192 4.096 8.192 8.192v17.749c0 4.096-4.096 8.192-8.192 8.192h-256.683c-4.096 0-8.192-4.096-8.192-8.192v-17.749c0-4.096 4.096-8.192 8.192-8.192h60.075v-19.115c0-27.307 23.211-49.152 53.248-49.152h270.336c28.672 0 53.248 21.845 53.248 49.152v53.248h46.421c17.749 0 35.499 6.827 47.787 20.48l90.112 90.112c12.288 12.288 20.48 30.037 20.48 47.787v114.688h25.941c2.731 0 6.827 4.096 6.827 8.192zM435.541 494.933h-256.683c-4.096 0-8.192-4.096-8.192-8.192v-17.749c0-4.096 4.096-8.192 8.192-8.192h256.683c4.096 0 8.192 4.096 8.192 8.192v17.749c0 4.096-4.096 8.192-8.192 8.192zM212.992 426.667c-4.096 0-8.192-4.096-8.192-8.192v-17.749c0-4.096 4.096-8.192 8.192-8.192h256.683c4.096 0 8.192 4.096 8.192 8.192v17.749c0 4.096-4.096 8.192-8.192 8.192h-256.683zM375.467 683.349c0-28.672-23.211-51.883-51.883-51.883s-51.883 23.211-51.883 51.883c0 28.672 24.576 50.517 53.248 50.517s50.517-23.211 50.517-50.517zM614.4 494.933h162.475c-1.365-1.365-1.365-2.731-1.365-2.731l-90.112-90.112c-6.827-6.827-15.019-9.557-24.576-9.557h-46.421v102.4zM785.067 529.067h-170.667v102.4h17.749c15.019-20.48 39.595-34.133 68.267-34.133s51.883 13.653 68.267 34.133h16.384v-102.4zM750.933 683.349c0-28.672-23.211-51.883-51.883-51.883s-50.517 23.211-50.517 51.883c0 28.672 23.211 51.883 51.883 51.883s50.517-24.576 50.517-51.883z"></path></g>
</svg>
