<?xml version="1.0" encoding="utf-8"?>
<!-- Generator: Adobe Illustrator 17.0.0, SVG Export Plug-In . SVG Version: 6.00 Build 0)  -->
<!DOCTYPE svg PUBLIC "-//W3C//DTD SVG 1.1//EN" "http://www.w3.org/Graphics/SVG/1.1/DTD/svg11.dtd">
<svg version="1.1" id="Layer_1" xmlns="http://www.w3.org/2000/svg" xmlns:xlink="http://www.w3.org/1999/xlink" x="0px" y="0px"
	 width="1024px" height="1024px" viewBox="0 0 1025 1024" enable-background="new 0 0 1025 1024" xml:space="preserve">
<g><path d="M883.2 610.133l-285.867 98.133c0 4.267 0 12.8 0 17.067 0 72.533-55.467 128-128 128s-128-55.467-128-128c0-46.933 25.6-85.333 59.733-110.933l-123.733-371.2c0-4.267-4.267-8.533-8.533-8.533h-119.467c-12.8 0-21.333-8.533-21.333-21.333v-21.333c0-12.8 8.533-21.333 21.333-21.333h119.467c29.867 0 59.733 21.333 68.267 51.2l38.4 115.2 294.4-98.133c12.8-4.267 29.867-4.267 42.667 4.267 12.8 4.267 21.333 12.8 25.6 29.867l93.867 285.867 25.6-8.533c12.8-4.267 21.333 4.267 25.6 12.8l12.8 21.333c4.267 8.533-4.267 21.333-12.8 25.6zM776.533 580.267l-93.867-277.333-110.933 38.4 25.6 81.067c4.267 4.267 0 17.067-12.8 21.333l-21.333 8.533c-8.533 4.267-21.333-4.267-25.6-12.8l-25.6-81.067-115.2 38.4 68.267 200.533h4.267c42.667 0 76.8 21.333 102.4 51.2l204.8-68.267zM533.333 725.333c0-34.133-29.867-64-64-64s-64 29.867-64 64c0 34.133 29.867 64 64 64s64-29.867 64-64z"></path></g>
</svg>
