<?xml version="1.0" encoding="utf-8"?>
<!-- Generator: Adobe Illustrator 17.0.0, SVG Export Plug-In . SVG Version: 6.00 Build 0)  -->
<!DOCTYPE svg PUBLIC "-//W3C//DTD SVG 1.1//EN" "http://www.w3.org/Graphics/SVG/1.1/DTD/svg11.dtd">
<svg version="1.1" id="Layer_1" xmlns="http://www.w3.org/2000/svg" xmlns:xlink="http://www.w3.org/1999/xlink" x="0px" y="0px"
	 width="1025px" height="1024px" viewBox="0 0 1025 1024" enable-background="new 0 0 1025 1024" xml:space="preserve">
<g><path fill="rgb(112, 112, 112)" d="M627.575 85.333c-30.609 2.767-60.164 7.265-88.521 13.58-161.442 35.95-362.551 156.090-362.551 359.856 0 73.357 26.245 142.639 74.26 197.15 9.207-162.876 75.492-316.046 188.567-434.137 56.154-58.642 120.994-105.127 188.245-136.448v0z"></path><path fill="rgb(112, 112, 112)" d="M299.624 910.383c0 13.807 11.193 24.998 25 24.998s25-11.191 25-24.998v-126.255c-17.225-6.63-33.943-14.643-50-24.004v150.259z"></path><path fill="rgb(112, 112, 112)" d="M843.234 107.75c-3.098-10.688-12.885-18.042-24.013-18.042-115.337 0.002-243.853 62.305-343.774 166.662-111.344 116.28-173.767 269.266-175.774 430.772 0 0.055 0.003 0.107 0.003 0.162-0.032 0.068-0.053 0.115-0.053 0.115v13.065c3.71 2.701 7.47 5.325 11.29 7.842 115.962 76.429 273.679 63.441 375.452-38.336 88.055-88.055 69.79-209.374 63.774-277.455-9.186-103.942-17.122-193.708 82.449-256.702 9.399-5.948 13.743-17.396 10.645-28.083z"></path></g>
</svg>
