<?xml version="1.0" encoding="utf-8"?>
<!-- Generator: Adobe Illustrator 17.0.0, SVG Export Plug-In . SVG Version: 6.00 Build 0)  -->
<!DOCTYPE svg PUBLIC "-//W3C//DTD SVG 1.1//EN" "http://www.w3.org/Graphics/SVG/1.1/DTD/svg11.dtd">
<svg version="1.1" id="Layer_1" xmlns="http://www.w3.org/2000/svg" xmlns:xlink="http://www.w3.org/1999/xlink" x="0px" y="0px"
	 width="1024px" height="1024px" viewBox="0 0 1025 1024" enable-background="new 0 0 1025 1024" xml:space="preserve">
<g><path d="M947.2 243.2v430.933c0 38.4-34.133 72.533-72.533 72.533h-21.333v25.6c0 38.4-34.133 72.533-72.533 72.533h-622.933c-38.4 0-72.533-34.133-72.533-72.533v-435.2c0-38.4 34.133-68.267 72.533-68.267h25.6v-25.6c0-38.4 29.867-72.533 68.267-72.533h622.933c42.667 0 72.533 34.133 72.533 72.533zM806.4 746.667h-554.667c-38.4 0-72.533-34.133-72.533-72.533v-358.4h-21.333c-12.8 0-25.6 12.8-25.6 25.6v430.933c0 12.8 12.8 25.6 25.6 25.6h622.933c12.8 0 25.6-12.8 25.6-25.6v-25.6zM900.267 243.2c0-12.8-12.8-25.6-25.6-25.6h-622.933c-12.8 0-25.6 12.8-25.6 25.6v430.933c0 12.8 12.8 25.6 25.6 25.6h622.933c12.8 0 25.6-12.8 25.6-25.6v-430.933zM264.533 337.067c0-46.933 38.4-85.333 85.333-85.333s85.333 38.4 85.333 85.333c0 46.933-38.4 85.333-85.333 85.333s-85.333-38.4-85.333-85.333zM844.8 469.333c4.267 8.533 8.533 17.067 8.533 25.6v136.533c0 8.533-8.533 17.067-17.067 17.067h-541.867c-8.533 0-17.067-8.533-17.067-17.067v-42.667c0-8.533 4.267-21.333 8.533-25.6l132.267-132.267c12.8-12.8 38.4-12.8 51.2 0l46.933 46.933 140.8-140.8c12.8-12.8 38.4-12.8 51.2 0l136.533 132.267zM311.467 337.067c0 21.333 17.067 34.133 34.133 34.133s38.4-12.8 38.4-34.133c0-21.333-12.8-34.133-34.133-34.133s-38.4 17.067-38.4 34.133zM806.4 499.2l-119.467-119.467-166.4 166.4-76.8-72.533-119.467 123.733v8.533h477.867v-106.667h4.267z"></path></g>
</svg>
