<?xml version="1.0" encoding="utf-8"?>
<!-- Generator: Adobe Illustrator 17.0.0, SVG Export Plug-In . SVG Version: 6.00 Build 0)  -->
<!DOCTYPE svg PUBLIC "-//W3C//DTD SVG 1.1//EN" "http://www.w3.org/Graphics/SVG/1.1/DTD/svg11.dtd">
<svg version="1.1" id="Layer_1" xmlns="http://www.w3.org/2000/svg" xmlns:xlink="http://www.w3.org/1999/xlink" x="0px" y="0px"
	 width="1025px" height="1024px" viewBox="0 0 1025 1024" enable-background="new 0 0 1025 1024" xml:space="preserve">
<g>
<path d="M1023.45 635.791c-2.551-58.671-12.755-123.716-28.060-184.939-15.305-58.669-34.436-113.513-57.395-155.603-89.28-156.878-186.212-132.645-302.278-102.034-36.986 8.928-76.525 19.132-117.34 22.958h-12.753c-40.815-3.826-80.352-14.030-117.34-22.958-116.066-29.335-212.999-54.844-302.279 103.31-22.958 42.091-43.365 96.934-57.395 155.603-15.305 61.22-25.509 126.268-28.060 184.939-2.551 65.047 3.826 112.239 17.856 145.399 14.030 30.611 34.437 49.743 61.221 57.395 24.233 6.377 52.293 3.825 81.628-8.928 49.742-20.407 107.137-63.772 163.257-116.066 39.537-38.261 113.513-57.393 187.488-57.393s147.951 19.132 187.49 57.393c56.117 52.294 113.513 95.659 163.255 116.066 29.333 11.477 57.393 15.305 81.628 8.928 25.508-7.652 47.189-25.51 61.22-58.671 14.029-31.885 20.407-79.076 17.856-145.399zM962.229 763.334c-7.652 17.856-17.856 28.060-30.611 31.887-14.029 3.825-31.885 1.274-52.292-6.379-44.64-17.856-96.934-57.393-147.951-105.86-48.467-48.467-133.92-72.7-219.375-72.7s-170.908 24.233-220.651 70.148c-52.292 48.467-104.585 89.28-147.95 105.862-20.407 7.652-38.263 11.477-52.293 6.377-12.754-3.827-22.958-14.031-30.611-31.887-10.203-24.233-15.305-63.772-12.754-122.441 2.551-54.844 11.479-117.34 26.784-176.011 14.030-54.844 31.886-105.86 53.568-144.124 70.149-126.269 151.776-105.862 248.71-80.352 39.537 10.202 80.352 20.405 124.992 24.233 1.276 0 1.276 0 2.551 0h14.029c1.276 0 1.276 0 2.551 0 45.916-3.827 86.731-14.031 126.268-24.233 96.934-24.235 178.562-45.917 248.71 80.352 21.683 38.263 39.539 88.004 53.568 144.124 14.031 58.671 24.233 119.891 26.784 176.011 2.551 58.669-2.551 98.208-14.029 124.992z"></path>
<path d="M394.658 387.081c-12.753-11.477-28.060-20.405-45.916-21.681-1.274-16.58-8.928-33.163-20.405-44.64l-1.276-1.276c-14.031-14.031-31.887-21.683-52.292-21.683-20.407 0-39.539 8.928-52.294 21.683-11.478 11.477-20.406 28.060-21.682 45.916-17.856 1.276-33.161 8.928-45.916 20.405l-1.275 1.276c-14.030 14.031-21.682 31.887-21.682 52.294 0 20.405 8.928 39.537 21.682 52.292s28.060 20.407 47.191 21.683c1.276 17.856 8.928 34.436 21.682 45.914 14.031 14.031 31.887 21.683 52.294 21.683 20.405 0 39.537-8.928 52.292-21.683 11.479-12.753 20.407-28.058 21.681-45.914 17.856-1.276 34.438-8.928 45.916-21.683 14.031-14.031 21.683-31.887 21.683-52.292 0-20.407-8.928-39.539-21.683-52.294zM362.773 458.507c-5.103 5.101-11.479 7.652-19.132 7.652h-17.856c-12.755 0-24.233 10.204-24.233 24.233v16.58c0 7.652-2.551 14.031-7.654 19.132-5.101 5.103-11.477 7.652-19.13 7.652-7.654 0-14.031-2.549-19.132-7.652-5.103-5.101-7.654-11.479-7.654-19.132v-17.856c0-12.753-10.202-24.233-24.233-24.233h-17.856c-7.653 0-14.030-2.551-19.132-7.652-3.826-3.827-7.653-10.204-7.653-17.856 0-7.654 2.551-14.031 7.653-19.132 0 0 0 0 1.275-1.276 5.102-3.827 11.479-6.377 17.856-6.377h17.856c12.755 0 24.233-10.204 24.233-24.235v-17.856c0-7.652 2.551-14.029 7.654-19.132 5.101-5.101 11.477-7.652 19.132-7.652 7.652 0 14.029 2.551 19.13 7.652 0 0 0 0 1.276 1.276 3.827 5.103 6.379 11.479 6.379 17.856v17.856c0 12.755 10.202 24.235 24.233 24.235h17.856c7.652 0 14.029 2.549 19.132 7.652 5.101 5.101 7.652 11.477 7.652 19.132 0 7.652-2.551 14.029-7.652 19.132z"></path>
<path d="M733.926 393.459c24.655 0 44.64-19.987 44.64-44.64 0-24.655-19.985-44.64-44.64-44.64-24.653 0-44.64 19.985-44.64 44.64 0 24.653 19.987 44.64 44.64 44.64z"></path>
<path d="M733.926 574.569c24.655 0 44.64-19.985 44.64-44.64 0-24.653-19.985-44.64-44.64-44.64-24.653 0-44.64 19.987-44.64 44.64 0 24.655 19.987 44.64 44.64 44.64z"></path>
<path d="M643.369 484.013c24.655 0 44.642-19.985 44.642-44.64 0-24.653-19.987-44.64-44.642-44.64-24.653 0-44.64 19.987-44.64 44.64 0 24.655 19.987 44.64 44.64 44.64z"></path>
<path d="M824.482 484.013c24.653 0 44.64-19.985 44.64-44.64 0-24.653-19.987-44.64-44.64-44.64-24.655 0-44.64 19.987-44.64 44.64 0 24.655 19.985 44.64 44.64 44.64z"></path></g>
</svg>
