<?xml version="1.0" encoding="utf-8"?>
<!-- Generator: Adobe Illustrator 17.0.0, SVG Export Plug-In . SVG Version: 6.00 Build 0)  -->
<!DOCTYPE svg PUBLIC "-//W3C//DTD SVG 1.1//EN" "http://www.w3.org/Graphics/SVG/1.1/DTD/svg11.dtd">
<svg version="1.1" id="Layer_1" xmlns="http://www.w3.org/2000/svg" xmlns:xlink="http://www.w3.org/1999/xlink" x="0px" y="0px"
	 width="1024px" height="1024px" viewBox="0 0 1025 1024" enable-background="new 0 0 1025 1024" xml:space="preserve">
<g><path d="M853.333 421.888v136.533c0 12.745-10.88 23.667-23.573 23.667h-23.573v205.709c0 38.229-30.827 69.175-68.907 69.175h-495.040c-38.080 0-68.907-30.946-68.907-69.175v-207.531h-21.76c-12.693 0-23.573-10.923-23.573-23.667v-136.532c0-36.409 30.827-67.356 68.907-67.356h56.213c-14.507-18.205-23.573-41.871-23.573-67.357 0-63.715 47.147-114.688 105.173-114.688 59.84 0 94.293 36.409 155.947 136.533 59.84-100.125 96.107-136.533 155.947-136.533 58.027 0 105.173 50.973 105.173 114.688 0 25.486-9.067 49.152-21.76 69.177h56.213c36.267-1.82 67.093 29.127 67.093 67.357zM400 398.222h-203.093c-12.693 0-23.573 10.923-23.573 23.666v112.866h226.667v-136.532zM400 580.267h-181.333v205.709c0 10.923 10.88 21.845 23.573 21.845h157.76v-227.554zM274.88 285.355c0 38.229 27.2 69.177 59.84 69.177h128.747l-3.627-5.461c-70.72-118.329-92.48-131.072-126.933-131.072s-58.027 29.127-58.027 67.357zM536 398.222h-90.667v409.599h90.667v-409.599zM516.053 352.711h128.747c32.64 0 59.84-30.948 59.84-69.177s-27.2-69.177-59.84-69.177c-32.64 0-56.213 12.743-126.933 131.072l-1.813 7.282zM808 421.888c0-12.743-10.88-23.666-23.573-23.666h-203.093v136.532h226.667v-112.866zM762.667 580.267h-181.333v227.554h159.573c12.693 0 23.573-10.923 23.573-23.663v-203.891h-1.813z"></path></g>
</svg>
