<?xml version="1.0" encoding="utf-8"?>
<!-- Generator: Adobe Illustrator 17.0.0, SVG Export Plug-In . SVG Version: 6.00 Build 0)  -->
<!DOCTYPE svg PUBLIC "-//W3C//DTD SVG 1.1//EN" "http://www.w3.org/Graphics/SVG/1.1/DTD/svg11.dtd">
<svg version="1.1" id="Layer_1" xmlns="http://www.w3.org/2000/svg" xmlns:xlink="http://www.w3.org/1999/xlink" x="0px" y="0px"
	 width="1024px" height="1024px" viewBox="0 0 1025 1024" enable-background="new 0 0 1025 1024" xml:space="preserve">
<g><path d="M605.867 507.733c0 166.4-110.933 281.6-277.333 281.6-157.867 0-285.867-128-285.867-285.867s128-290.133 290.133-290.133c76.8 0 140.8 29.867 192 76.8l-81.067 72.533c-21.333-21.333-59.733-42.667-115.2-42.667-98.133 0-179.2 81.067-179.2 183.467s81.067 179.2 183.467 179.2c115.2 0 157.867-81.067 162.133-123.733h-162.133v-98.133h273.067c0 12.8 0 29.867 0 46.933zM964.267 469.333v85.333h-85.333v85.333h-85.333v-85.333h-85.333v-85.333h85.333v-85.333h85.333v85.333h85.333z"></path></g>
</svg>
