<?xml version="1.0" encoding="utf-8"?>
<!-- Generator: Adobe Illustrator 17.0.0, SVG Export Plug-In . SVG Version: 6.00 Build 0)  -->
<!DOCTYPE svg PUBLIC "-//W3C//DTD SVG 1.1//EN" "http://www.w3.org/Graphics/SVG/1.1/DTD/svg11.dtd">
<svg version="1.1" id="Layer_1" xmlns="http://www.w3.org/2000/svg" xmlns:xlink="http://www.w3.org/1999/xlink" x="0px" y="0px"
	 width="1024px" height="1024px" viewBox="0 0 1025 1024" enable-background="new 0 0 1025 1024" xml:space="preserve">
<g><path d="M412.905 170.667h-185.81c-31.115 0-56.428 25.314-56.428 56.428v185.81c0 31.114 25.314 56.428 56.428 56.428h185.81c31.114 0 56.428-25.314 56.428-56.428v-185.81c0-31.115-25.314-56.428-56.428-56.428z"></path><path d="M796.907 170.667h-185.813c-31.113 0-56.427 25.314-56.427 56.428v185.81c0 31.114 25.314 56.428 56.427 56.428h185.813c31.113 0 56.427-25.314 56.427-56.428v-185.81c0-31.115-25.314-56.428-56.427-56.428z"></path><path d="M412.905 554.667h-185.81c-31.115 0-56.428 25.314-56.428 56.427v185.813c0 31.113 25.314 56.427 56.428 56.427h185.81c31.114 0 56.428-25.314 56.428-56.427v-185.813c0-31.113-25.314-56.427-56.428-56.427z"></path><path d="M796.907 554.667h-185.813c-31.113 0-56.427 25.314-56.427 56.427v185.813c0 31.113 25.314 56.427 56.427 56.427h185.813c31.113 0 56.427-25.314 56.427-56.427v-185.813c0-31.113-25.314-56.427-56.427-56.427z"></path></g>
</svg>
