<svg width="1025" height="1024" xmlns="http://www.w3.org/2000/svg">

 <g>
  <title>background</title>
  <rect fill="none" id="canvas_background" height="602" width="802" y="-1" x="-1"/>
 </g>
 <g>
  <title>Layer 1</title>
  <g id="svg_1">
   <path id="svg_2" d="m912.5,192l-160,0c-26.44,0 -48,21.54 -48,48l0,160c0,26.46 21.56,48 48,48l160,0c26.44,0 48,-21.54 48,-48l0,-160c0,-26.46 -21.56,-48 -48,-48zm-16,192l-128,0l0,-128l128,0l0,128zm-304,-192l-160,0c-26.44,0 -48,21.54 -48,48l0,160c0,26.46 21.56,48 48,48l160,0c26.44,0 48,-21.54 48,-48l0,-160c0,-26.46 -21.56,-48 -48,-48zm-16,192l-128,0l0,-128l128,0l0,128zm-304,-192l-160,0c-26.44,0 -48,21.54 -48,48l0,160c0,26.46 21.56,48 48,48l160,0c26.44,0 48,-21.54 48,-48l0,-160c0,-26.46 -21.56,-48 -48,-48zm-16,192l-128,0l0,-128l128,0l0,128zm656,192l-160,0c-26.44,0 -48,21.54 -48,48l0,160c0,26.46 21.56,48 48,48l160,0c26.44,0 48,-21.54 48,-48l0,-160c0,-26.46 -21.56,-48 -48,-48zm-16,192l-128,0l0,-128l128,0l0,128zm-304,-192l-160,0c-26.44,0 -48,21.54 -48,48l0,160c0,26.46 21.56,48 48,48l160,0c26.44,0 48,-21.54 48,-48l0,-160c0,-26.46 -21.56,-48 -48,-48zm-16,192l-128,0l0,-128l128,0l0,128zm-304,-192l-160,0c-26.44,0 -48,21.54 -48,48l0,160c0,26.46 21.56,48 48,48l160,0c26.44,0 48,-21.54 48,-48l0,-160c0,-26.46 -21.56,-48 -48,-48zm-16,192l-128,0l0,-128l128,0l0,128z"/>
  </g>
 </g>
</svg>