<?xml version="1.0" encoding="utf-8"?>
<!-- Generator: Adobe Illustrator 17.0.0, SVG Export Plug-In . SVG Version: 6.00 Build 0)  -->
<!DOCTYPE svg PUBLIC "-//W3C//DTD SVG 1.1//EN" "http://www.w3.org/Graphics/SVG/1.1/DTD/svg11.dtd">
<svg version="1.1" id="Layer_1" xmlns="http://www.w3.org/2000/svg" xmlns:xlink="http://www.w3.org/1999/xlink" x="0px" y="0px"
	 width="1025px" height="1024px" viewBox="0 0 1025 1024" enable-background="new 0 0 1025 1024" xml:space="preserve">
<g><path d="M924.6 125.4c-109-92.8-272-77.4-373.2 27l-39.4 40.8-39.4-40.6c-81.6-84.4-246.2-135.2-373.2-27.2-125.6 107.2-132.2 299.6-19.8 415.6l387 399.6c12.4 12.8 28.8 19.4 45.2 19.4s32.8-6.4 45.2-19.4l387-399.6c112.8-116 106.2-308.4-19.4-415.6zM898.4 496.6l-385.6 399.6-387.2-399.6c-76.8-79.2-92.8-230.2 15.4-322.4 109.6-93.6 238.4-25.8 285.6 23l85.4 88.2 85.4-88.2c46.4-48 176.4-116 285.6-23 108 92 92.2 243 15.4 322.4z"></path></g>
</svg>
