<svg width="1024" height="1024" viewBox="0 0 20 18" fill="none" xmlns="http://www.w3.org/2000/svg">
<path d="M14.6875 0C12.318 0 10.7971 1.64109 10 3.1191C9.20293 1.64105 7.68199 0 5.3125 0C2.30613 0 0 2.4393 0 5.67453C0 6.51867 0.169023 7.29801 0.480234 8.04688H4.95031L5.96023 6.02699C6.15938 5.62988 6.80937 5.62988 7.00852 6.02699L8.82812 9.66625L9.47586 8.37078C9.675 7.97367 10.325 7.97367 10.5241 8.37078L11.1719 9.66625L12.9915 6.02703C13.1906 5.62992 13.8406 5.62992 14.0398 6.02703L15.0497 8.04688H19.5198C19.831 7.29801 20 6.51867 20 5.67453C20 2.4393 17.6939 0 14.6875 0Z" fill="#707070"/>
<path d="M14.6875 9.21895C14.4655 9.21895 14.2629 9.09363 14.1634 8.89508L13.5156 7.59961L11.696 11.2388C11.5964 11.4374 11.3939 11.5627 11.1719 11.5627C10.9498 11.5627 10.7473 11.4374 10.6477 11.2388L10 9.94336L9.35227 11.2388C9.15313 11.6359 8.50313 11.6359 8.30399 11.2388L6.48438 7.59961L5.83664 8.89508C5.73707 9.09363 5.53453 9.21895 5.3125 9.21895H1.0952C2.30118 11.1164 4.47309 12.9187 7.18989 15.2116C7.95262 15.8554 8.76403 16.5403 9.61602 17.279C9.72645 17.3746 9.86321 17.4221 9.99996 17.4221C10.1367 17.4221 10.2735 17.3746 10.3839 17.279C11.2359 16.5403 12.0473 15.8554 12.81 15.2116C15.5269 12.9187 17.6988 11.1164 18.9047 9.21895H14.6875Z" fill="#707070"/>
</svg>
