<?xml version="1.0" encoding="utf-8"?>
<!-- Generator: Adobe Illustrator 17.0.0, SVG Export Plug-In . SVG Version: 6.00 Build 0)  -->
<!DOCTYPE svg PUBLIC "-//W3C//DTD SVG 1.1//EN" "http://www.w3.org/Graphics/SVG/1.1/DTD/svg11.dtd">
<svg version="1.1" id="Layer_1" xmlns="http://www.w3.org/2000/svg" xmlns:xlink="http://www.w3.org/1999/xlink" x="0px" y="0px"
	 width="1025px" height="1024px" viewBox="0 0 1025 1024" enable-background="new 0 0 1025 1024" xml:space="preserve">
<g><path fill="rgb(112, 112, 112)" d="M549.197 374.036l105.412 95.439 38.498-42.534c42.999 10.573 90.615-0.582 124.77-34.741 24.29-24.288 50.202-69.462 64.478-112.403 19.273-57.977 15.782-102.3-10.099-128.178-25.877-25.882-70.199-29.375-128.179-10.1-42.944 14.277-88.115 40.188-112.401 64.478-33.476 33.472-45.551 80.833-34.735 124.802l-47.744 43.238z"></path><path fill="rgb(112, 112, 112)" d="M365.788 540.083l-246.687 223.407c-20.572 18.21-32.858 44.39-33.718 71.855-1.763 56.384 43.538 103.3 100.157 103.3 27.82 0 55.549-11.857 74.942-33.762l217.76-240.593-112.454-124.207z"></path><path fill="rgb(112, 112, 112)" d="M938.633 835.366c-0.862-27.465-13.146-53.645-33.715-71.855-25.148-22.767-464.439-420.504-476.198-431.153 11.597-41.998 0.956-88.905-31.991-121.851-11.172-11.172-106.192-106.193-117.85-117.852-9.763-9.763-25.592-9.763-35.355 0-9.763 9.762-9.763 25.591 0 35.355l67.175 67.177-40.070 40.070-67.177-67.178c-9.761-9.765-25.59-9.762-35.355 0-9.763 9.762-9.763 25.592 0 35.355l67.175 67.175-40.070 40.070-67.175-67.175c-9.762-9.761-25.591-9.761-35.355 0s-9.763 25.592 0 35.355c109.778 109.778 4.823 4.821 117.85 117.851 32.118 32.119 78.583 43.938 121.852 31.991 700.373 773.542 179.951 198.746 431.155 476.19 18.21 20.574 44.39 32.862 71.855 33.719 57.677 1.822 105.054-45.555 103.249-103.245z"></path></g>
</svg>
