<?xml version="1.0" encoding="utf-8"?>
<!-- Generator: Adobe Illustrator 17.0.0, SVG Export Plug-In . SVG Version: 6.00 Build 0)  -->
<!DOCTYPE svg PUBLIC "-//W3C//DTD SVG 1.1//EN" "http://www.w3.org/Graphics/SVG/1.1/DTD/svg11.dtd">
<svg version="1.1" id="Layer_1" xmlns="http://www.w3.org/2000/svg" xmlns:xlink="http://www.w3.org/1999/xlink" x="0px" y="0px"
	 width="1025px" height="1024px" viewBox="0 0 1025 1024" enable-background="new 0 0 1025 1024" xml:space="preserve">
<g>
	<path d="M1024 725.335h-64v-469.335c0-47.061-38.27-85.333-85.335-85.333h-682.665c-47.062 0-85.334 38.27-85.334 85.333v469.335h-64c-11.79 0-21.332 9.54-21.332 21.331v21.333c0 47.063 38.27 85.335 85.334 85.335h853.335c47.061 0 85.331-38.272 85.331-85.335v-21.333c0-11.791-9.542-21.331-21.333-21.331zM149.333 256c0-23.52 19.146-42.665 42.666-42.665h682.665c23.52 0 42.667 19.145 42.667 42.665v469.335h-767.998v-469.335zM960 810.667h-853.333c-23.52 0-42.666-19.147-42.666-42.667h353.831l15.085 15.085c4 4 9.417 6.251 15.085 6.251h170.665c5.666 0 11.085-2.251 15.085-6.251l15.083-15.085h353.833c0 23.52-19.145 42.667-42.667 42.667z"></path>
</g>
</svg>
