<?xml version="1.0" encoding="utf-8"?>
<!-- Generator: Adobe Illustrator 17.0.0, SVG Export Plug-In . SVG Version: 6.00 Build 0)  -->
<!DOCTYPE svg PUBLIC "-//W3C//DTD SVG 1.1//EN" "http://www.w3.org/Graphics/SVG/1.1/DTD/svg11.dtd">
<svg version="1.1" id="Layer_1" xmlns="http://www.w3.org/2000/svg" xmlns:xlink="http://www.w3.org/1999/xlink" x="0px" y="0px"
	 width="1025px" height="1024px" viewBox="0 0 1025 1024" enable-background="new 0 0 1025 1024" xml:space="preserve">
<g><path d="M925.882 508.367l0.001-282.771c-0-13.285-10.768-24.053-24.053-24.053l-282.771 0.001c-13.284 0.001-24.052 10.769-24.053 24.053v24.050c0 13.285 10.768 24.053 24.052 24.052l183.756 0.001-582.598 582.598-144.216-144.216c-0-0-0.001-0.001-0.002-0.002-4.686-4.686-10.827-7.028-16.969-7.027l-33.941 0c-21.381-0.001-32.090 25.85-16.971 40.97l178.157 178.157c18.745 18.745 49.137 18.745 67.882 0l599.569-599.569 0.001 183.753c0 13.285 10.768 24.053 24.052 24.052h24.050c13.284 0.001 24.052-10.766 24.053-24.050z"></path></g>
</svg>
