<?xml version="1.0" encoding="utf-8"?>
<!-- Generator: Adobe Illustrator 17.0.0, SVG Export Plug-In . SVG Version: 6.00 Build 0)  -->
<!DOCTYPE svg PUBLIC "-//W3C//DTD SVG 1.1//EN" "http://www.w3.org/Graphics/SVG/1.1/DTD/svg11.dtd">
<svg version="1.1" id="Layer_1" xmlns="http://www.w3.org/2000/svg" xmlns:xlink="http://www.w3.org/1999/xlink" x="0px" y="0px"
	 width="1025px" height="1024px" viewBox="0 0 1025 1024" enable-background="new 0 0 1025 1024" xml:space="preserve">
<g><path d="M200.56 896h-185.76v-598.2h185.76zM107.58 216.2c-59.4 0-107.58-49.2-107.58-108.6 0-59.415 48.165-107.58 107.58-107.58s107.58 48.165 107.58 107.58v0c0 59.4-48.2 108.6-107.58 108.6zM895.8 896h-185.36v-291.2c0-69.4-1.4-158.4-96.58-158.4-96.58 0-111.38 75.4-111.38 153.4v296.2h-185.56v-598.2h178.16v81.6h2.6c24.8-47 85.38-96.6 175.76-96.6 188 0 222.56 123.8 222.56 284.6v328.6z"></path></g>
</svg>
