<?xml version="1.0" encoding="utf-8"?>
<!-- Generator: Adobe Illustrator 17.0.0, SVG Export Plug-In . SVG Version: 6.00 Build 0)  -->
<!DOCTYPE svg PUBLIC "-//W3C//DTD SVG 1.1//EN" "http://www.w3.org/Graphics/SVG/1.1/DTD/svg11.dtd">
<svg version="1.1" id="Layer_1" xmlns="http://www.w3.org/2000/svg" xmlns:xlink="http://www.w3.org/1999/xlink" x="0px" y="0px"
	 width="1024px" height="1024px" viewBox="0 0 1025 1024" enable-background="new 0 0 1025 1024" xml:space="preserve">
<g><path d="M312.889 170.667h-113.777c-15.701 0-28.445 12.743-28.445 28.445v113.777c0 15.701 12.743 28.445 28.445 28.445h113.777c15.701 0 28.445-12.743 28.445-28.445v-113.777c0-15.701-12.743-28.445-28.445-28.445z"></path><path d="M824.887 170.667h-398.222c-15.701 0-28.445 12.743-28.445 28.445v113.777c0 15.701 12.743 28.445 28.445 28.445h398.222c15.701 0 28.446-12.743 28.446-28.445v-113.777c0-15.701-12.745-28.445-28.446-28.445z"></path><path d="M312.889 426.667h-113.777c-15.701 0-28.445 12.745-28.445 28.446v113.775c0 15.701 12.743 28.446 28.445 28.446h113.777c15.701 0 28.445-12.745 28.445-28.446v-113.775c0-15.701-12.743-28.446-28.445-28.446z"></path><path d="M824.887 426.667h-398.222c-15.701 0-28.445 12.745-28.445 28.446v113.775c0 15.701 12.743 28.446 28.445 28.446h398.222c15.701 0 28.446-12.745 28.446-28.446v-113.775c0-15.701-12.745-28.446-28.446-28.446z"></path><path d="M312.889 682.667h-113.777c-15.701 0-28.445 12.745-28.445 28.446v113.775c0 15.701 12.743 28.446 28.445 28.446h113.777c15.701 0 28.445-12.745 28.445-28.446v-113.775c0-15.701-12.743-28.446-28.445-28.446z"></path><path d="M824.887 682.667h-398.222c-15.701 0-28.445 12.745-28.445 28.446v113.775c0 15.701 12.743 28.446 28.445 28.446h398.222c15.701 0 28.446-12.745 28.446-28.446v-113.775c0-15.701-12.745-28.446-28.446-28.446z"></path></g>
</svg>
