<?xml version="1.0" encoding="utf-8"?>
<!-- Generator: Adobe Illustrator 17.0.0, SVG Export Plug-In . SVG Version: 6.00 Build 0)  -->
<!DOCTYPE svg PUBLIC "-//W3C//DTD SVG 1.1//EN" "http://www.w3.org/Graphics/SVG/1.1/DTD/svg11.dtd">
<svg version="1.1" id="Layer_1" xmlns="http://www.w3.org/2000/svg" xmlns:xlink="http://www.w3.org/1999/xlink" x="0px" y="0px"
	 width="1024px" height="1024px" viewBox="0 0 1025 1024" enable-background="new 0 0 1025 1024" xml:space="preserve">
<g><path d="M651.337 649.143c91.836-142.49 80.294-124.715 82.94-128.427 33.434-46.63 51.106-101.513 51.106-158.717 0-151.7-124.501-276.667-278.123-276.667-153.123 0-278.124 124.72-278.124 276.667 0 57.167 18.042 113.486 52.574 160.743l81.468 126.4c-87.103 13.235-235.178 52.676-235.178 139.524 0 31.659 20.898 76.774 120.456 111.932 69.517 24.546 161.428 38.067 258.804 38.067 182.084 0 379.26-50.786 379.26-149.999 0-86.861-147.904-126.263-235.183-139.524zM323.949 495.241c-0.278-0.431-0.568-0.849-0.871-1.263-28.734-39.087-43.374-85.409-43.374-131.977 0-125.030 101.82-226.667 227.556-226.667 125.474 0 227.554 101.681 227.554 226.667 0 46.643-14.362 91.393-41.54 129.452-2.436 3.179 10.27-16.341-186.014 288.196l-183.311-284.407zM507.26 888.666c-198.891 0-328.692-57.805-328.692-99.998 0-28.361 66.696-74.991 214.489-93.171l92.878 144.107c4.642 7.202 12.685 11.563 21.321 11.563 8.64 0 16.683-4.361 21.325-11.563l92.877-144.107c147.797 18.18 214.494 64.811 214.494 93.171 0 41.835-128.631 99.998-328.691 99.998z"></path><path d="M507.234 237c-69.709 0-126.419 56.075-126.419 125s56.71 125.001 126.419 125.001c69.709 0 126.421-56.077 126.421-125.001s-56.713-125-126.421-125zM507.234 437.001c-41.822 0-75.853-33.646-75.853-75s34.031-75 75.853-75c41.826 0 75.853 33.645 75.853 75s-34.027 75-75.853 75z"></path></g>
</svg>
