<?xml version="1.0" encoding="utf-8"?>
<!-- Generator: Adobe Illustrator 17.0.0, SVG Export Plug-In . SVG Version: 6.00 Build 0)  -->
<!DOCTYPE svg PUBLIC "-//W3C//DTD SVG 1.1//EN" "http://www.w3.org/Graphics/SVG/1.1/DTD/svg11.dtd">
<svg version="1.1" id="Layer_1" xmlns="http://www.w3.org/2000/svg" xmlns:xlink="http://www.w3.org/1999/xlink" x="0px" y="0px"
	 width="1024px" height="1024px" viewBox="0 0 1025 1024" enable-background="new 0 0 1025 1024" xml:space="preserve">
<g><path d="M793.335 256h-562.669c-33.043 0-60 26.514-60 59.077v393.847c0 32.452 26.837 59.076 60 59.076h562.669c32.956 0 59.998-26.423 59.998-59.076v-393.847c0-32.453-26.837-59.077-59.998-59.077zM785.050 295.385l-271.778 267.598-274.126-267.598h545.904zM210.667 700.766v-377.722l192.639 188.047-192.639 189.675zM238.951 728.614l192.759-189.794 67.546 65.933c7.817 7.633 20.433 7.607 28.22-0.060l65.856-64.845 191.718 188.766h-546.099zM813.333 700.766l-191.714-188.766 191.714-188.768v377.534z"></path></g>
</svg>
