<?xml version="1.0" encoding="utf-8"?>
<!-- Generator: Adobe Illustrator 17.0.0, SVG Export Plug-In . SVG Version: 6.00 Build 0)  -->
<!DOCTYPE svg PUBLIC "-//W3C//DTD SVG 1.1//EN" "http://www.w3.org/Graphics/SVG/1.1/DTD/svg11.dtd">
<svg version="1.1" id="Layer_1" xmlns="http://www.w3.org/2000/svg" xmlns:xlink="http://www.w3.org/1999/xlink" x="0px" y="0px"
	 width="1024px" height="1024px" viewBox="0 0 1025 1024" enable-background="new 0 0 1025 1024" xml:space="preserve">
<g><path d="M68.267 238.933c-12.8 0-25.6-8.533-25.6-21.333v-64c0-12.8 12.8-25.6 25.6-25.6h849.067c8.533 0 21.333 12.8 21.333 25.6v64c0 12.8-12.8 25.6-25.6 25.6h-844.8v-4.267zM68.267 558.933c-12.8 0-25.6-8.533-25.6-21.333v-64c0-12.8 12.8-25.6 25.6-25.6h849.067c12.8 0 25.6 12.8 25.6 25.6v64c0 12.8-12.8 25.6-25.6 25.6h-849.067v-4.267zM68.267 878.933c-12.8 0-25.6-12.8-25.6-25.6v-64c0-8.533 12.8-21.333 25.6-21.333h849.067c12.8 0 25.6 12.8 25.6 25.6v64c0 12.8-12.8 25.6-25.6 25.6h-849.067v-4.267z"></path></g>
</svg>
