<?xml version="1.0" encoding="utf-8"?>
<!-- Generator: Adobe Illustrator 17.0.0, SVG Export Plug-In . SVG Version: 6.00 Build 0)  -->
<!DOCTYPE svg PUBLIC "-//W3C//DTD SVG 1.1//EN" "http://www.w3.org/Graphics/SVG/1.1/DTD/svg11.dtd">
<svg version="1.1" id="Layer_1" xmlns="http://www.w3.org/2000/svg" xmlns:xlink="http://www.w3.org/1999/xlink" x="0px" y="0px"
	 width="1024px" height="1024px" viewBox="0 0 1025 1024" enable-background="new 0 0 1025 1024" xml:space="preserve">
<g><path d="M992 639.983c-17.664 0-32 14.336-32 32v224h-896v-384h352c17.664 0 32-14.336 32-32s-14.336-32-32-32h-352v-127.999h352c17.664 0 32-14.336 32-32s-14.336-32-32-32h-352c-35.328 0-64 28.672-64 64v575.999c0 35.328 28.672 64 64 64h896c35.328 0 64-28.672 64-64v-224c0-17.664-14.336-32-32-32z"></path><path d="M288.044 639.983h-128c-17.664 0-32 14.336-32 32s14.336 32 32 32h128c17.664 0 32-14.336 32-32s-14.336-32-32-32z"></path><path d="M1004.608 162.544l-224-96c-8.128-3.392-17.152-3.392-25.28 0l-224 96c-11.712 5.056-19.328 16.64-19.328 29.44v128c0 176.063 65.088 278.975 240.064 379.775 4.928 2.816 10.432 4.224 15.936 4.224s11.008-1.408 15.936-4.224c174.976-100.544 240.064-203.456 240.064-379.775v-128c0-12.8-7.616-24.384-19.392-29.44zM960 319.984c0 147.775-48.896 229.119-192 314.879-143.104-85.952-192-167.296-192-314.879v-106.88l192-82.304 192 82.304v106.88z"></path><path d="M884.053 262.961c-13.76-10.88-33.856-8.768-44.992 4.992l-100.608 125.824-39.808-59.52c-9.92-14.72-29.824-18.624-44.352-8.896-14.656 9.792-18.688 29.696-8.896 44.352l64 96.002c5.696 8.512 15.040 13.76 25.28 14.272 0.448 0 0.96 0 1.344 0 9.664 0 18.88-4.352 25.024-12.032l128-160.002c11.008-13.824 8.832-33.92-4.992-44.992z"></path></g>
</svg>
