<svg width="1024" height="1024" viewBox="0 0 24 24" fill="none" xmlns="http://www.w3.org/2000/svg">
<path d="M12 3C6.50742 3 2 7.46836 2 12.9609V17.6484C2 18.6177 2.78852 19.4062 3.75781 19.4062H4.34375V13.5469H3.75781C3.55141 13.5469 3.35605 13.5891 3.17188 13.6548V12.9609C3.17188 8.11438 7.15344 4.17188 12 4.17188C16.8466 4.17188 20.8281 8.11438 20.8281 12.9609V13.6548C20.6439 13.5891 20.4486 13.5469 20.2422 13.5469H19.6562V19.4062H20.2422C21.2115 19.4062 22 18.6177 22 17.6484V12.9609C22 7.46836 17.4926 3 12 3Z" fill="#707070"/>
<path d="M7.27344 12.375H6.6875C6.04027 12.375 5.51562 12.8996 5.51562 13.5469V19.4062C5.51562 20.0535 6.04027 20.5781 6.6875 20.5781H7.27344C7.59703 20.5781 7.85938 20.3158 7.85938 19.9922V12.9609C7.85938 12.6373 7.59703 12.375 7.27344 12.375Z" fill="#707070"/>
<path d="M17.3125 12.375H16.7266C16.403 12.375 16.1406 12.6373 16.1406 12.9609V19.9922C16.1406 20.3158 16.403 20.5781 16.7266 20.5781H17.3125C17.9597 20.5781 18.4844 20.0535 18.4844 19.4062V13.5469C18.4844 12.8996 17.9597 12.375 17.3125 12.375Z" fill="#707070"/>
</svg>
