<?xml version="1.0" encoding="utf-8"?>
<!-- Generator: Adobe Illustrator 17.0.0, SVG Export Plug-In . SVG Version: 6.00 Build 0)  -->
<!DOCTYPE svg PUBLIC "-//W3C//DTD SVG 1.1//EN" "http://www.w3.org/Graphics/SVG/1.1/DTD/svg11.dtd">
<svg version="1.1" id="Layer_1" xmlns="http://www.w3.org/2000/svg" xmlns:xlink="http://www.w3.org/1999/xlink" x="0px" y="0px"
	 width="1025px" height="1024px" viewBox="0 0 1025 1024" enable-background="new 0 0 1025 1024" xml:space="preserve">
<g><path d="M499.2 870.4c-38.4 0-76.8-4.267-110.933-17.067 17.067-25.6 38.4-64 46.933-98.133 4.267-17.067 21.333-89.6 21.333-89.6 12.8 21.333 46.933 42.667 85.333 42.667 110.933 0 192-102.4 192-230.4 0-123.733-102.4-213.333-230.4-213.333-162.133 0-247.467 106.667-247.467 226.133 0 55.467 29.867 123.733 76.8 145.067 8.533 4.267 12.8 0 12.8-4.267s8.533-29.867 8.533-42.667c0-4.267 0-8.533-4.267-8.533-17.067-17.067-25.6-51.2-25.6-85.333 0-81.067 64-162.133 166.4-162.133 89.6 0 153.6 64 153.6 149.333 0 102.4-51.2 170.667-115.2 170.667-38.4 0-64-29.867-55.467-68.267 17.067-42.667 38.4-89.6 38.4-123.733 0-29.867-17.067-51.2-46.933-51.2-38.4 0-68.267 38.4-68.267 89.6 0 34.133 12.8 55.467 12.8 55.467s-38.4 153.6-42.667 183.467c-8.533 34.133-4.267 76.8 0 106.667-140.8-51.2-238.933-187.733-238.933-345.6 0-204.8 166.4-371.2 371.2-371.2s371.2 166.4 371.2 371.2c0 204.8-166.4 371.2-371.2 371.2z"></path></g>
</svg>
