<?xml version="1.0" encoding="utf-8"?>
<!-- Generator: Adobe Illustrator 17.0.0, SVG Export Plug-In . SVG Version: 6.00 Build 0)  -->
<!DOCTYPE svg PUBLIC "-//W3C//DTD SVG 1.1//EN" "http://www.w3.org/Graphics/SVG/1.1/DTD/svg11.dtd">
<svg version="1.1" id="Layer_1" xmlns="http://www.w3.org/2000/svg" xmlns:xlink="http://www.w3.org/1999/xlink" x="0px" y="0px"
	 width="1024px" height="1024px" viewBox="0 0 1025 1024" enable-background="new 0 0 1025 1024" xml:space="preserve">
<g><path d="M512 416.823c-48.862 0-88.614 39.753-88.614 88.615s39.753 88.614 88.614 88.614c48.862 0 88.614-39.753 88.614-88.614 0.004-48.862-39.748-88.615-88.614-88.615zM512 559.36c-29.73 0-53.918-24.188-53.918-53.922 0-29.73 24.183-53.918 53.918-53.918 29.73 0 53.918 24.188 53.918 53.918 0.004 29.734-24.188 53.922-53.918 53.922z"></path><path d="M883.546 471.087c-43.102-52.501-98.931-95.927-161.455-125.581-63.821-30.271-132.48-45.977-204.156-46.801-1.971-0.051-9.899-0.051-11.874 0-71.671 0.825-140.332 16.53-204.154 46.801-62.522 29.654-118.35 73.079-161.454 125.581-16.605 20.224-16.605 48.474 0 68.698 43.102 52.501 98.932 95.927 161.454 125.581 63.822 30.272 132.482 45.978 204.154 46.801 1.975 0.051 9.903 0.051 11.874 0 71.676-0.823 140.335-16.529 204.156-46.801 62.524-29.653 118.353-73.079 161.455-125.581 16.606-20.228 16.606-48.474 0-68.698zM315.864 638.81c-58.38-27.686-110.516-68.241-150.775-117.278-7.781-9.476-7.781-22.716 0-32.192 40.257-49.033 92.393-89.589 150.775-117.28 16.581-7.863 33.513-14.663 50.758-20.42-44.367 37.887-72.319 92.793-72.319 153.793 0 61.005 27.954 115.917 72.325 153.801-17.245-5.756-34.182-12.557-50.764-20.425zM512 682.564c-102.812 0-186.455-79.458-186.455-177.131 0-97.671 83.643-177.129 186.455-177.129 102.814 0 186.458 79.46 186.458 177.129 0 97.673-83.644 177.131-186.458 177.131zM858.91 521.532c-40.256 49.033-92.39 89.587-150.771 117.278-16.563 7.855-33.485 14.626-50.709 20.378 44.339-37.888 72.269-92.779 72.269-153.754 0-61.009-27.959-115.923-72.333-153.81 17.25 5.758 34.189 12.567 50.773 20.434 58.381 27.69 110.515 68.246 150.775 117.278 7.778 9.481 7.778 22.716-0.004 32.196z"></path></g>
</svg>
