<?xml version="1.0" encoding="utf-8"?>
<!-- Generator: Adobe Illustrator 17.0.0, SVG Export Plug-In . SVG Version: 6.00 Build 0)  -->
<!DOCTYPE svg PUBLIC "-//W3C//DTD SVG 1.1//EN" "http://www.w3.org/Graphics/SVG/1.1/DTD/svg11.dtd">
<svg version="1.1" id="Layer_1" xmlns="http://www.w3.org/2000/svg" xmlns:xlink="http://www.w3.org/1999/xlink" x="0px" y="0px"
	 width="1024px" height="1024px" viewBox="0 0 1025 1024" enable-background="new 0 0 1025 1024" xml:space="preserve">
<g><path d="M896 240.152v502.858c0 38.4-30.626 69.487-68.454 69.487h-673.756c-37.831-1.83-68.456-32.917-68.456-69.487v-502.858c0-38.4 30.625-69.486 68.456-69.486h675.557c36.028 0 66.654 31.086 66.654 69.486zM850.961 240.152c0-12.8-10.807-23.771-23.415-23.771h-673.756c-12.61 0-23.419 10.971-23.419 23.771v502.858c0 12.8 10.809 23.77 23.419 23.77h675.557c12.608 0 23.42-10.97 23.42-23.77v-502.858h-1.805zM220.445 507.123c0-9.143 7.206-16.457 16.213-16.457h79.265c9.008 0 16.213 7.313 16.213 16.457v56.687c0 9.143-7.206 16.457-16.213 16.457h-79.265c-9.007 0-16.213-7.313-16.213-16.457v-56.687zM355.555 657.067c0 9.143-7.206 16.457-16.213 16.457h-102.684c-9.007 0-16.213-7.313-16.213-16.457v-10.97c0-9.143 7.206-16.461 16.213-16.461h100.883c9.007 0 16.213 7.317 16.213 16.461v10.97h1.801zM371.769 582.097c-9.007 0-16.213-7.317-16.213-16.461v-56.683c0-9.143 7.206-16.457 16.213-16.457h79.265c9.007 0 16.213 7.313 16.213 16.457v56.683c0 9.143-7.206 16.461-16.213 16.461h-79.265zM625.779 657.067c0 9.143-7.206 16.457-16.213 16.457h-192.76c-9.007 0-16.213-7.313-16.213-16.457v-10.97c0-9.143 7.206-16.461 16.213-16.461h190.955c9.011 0 16.213 7.317 16.213 16.461v10.97h1.805zM490.667 507.123c0-9.143 7.206-16.457 16.213-16.457h79.266c9.007 0 16.213 7.313 16.213 16.457v56.687c0 9.143-7.206 16.457-16.213 16.457h-79.266c-9.007 0-16.213-7.313-16.213-16.457v-56.687zM805.926 296.838v69.486c0 18.286-14.413 34.743-34.227 34.743h-113.493c-18.018 0-34.231-14.629-34.231-34.743v-69.486c0-18.286 14.413-34.743 34.231-34.743h113.493c19.814 0 34.227 14.628 34.227 34.743zM760.887 565.636c0 9.143-7.206 16.461-16.213 16.461h-100.881c-9.007 0-16.213-7.317-16.213-16.461v-56.683c0-9.143 7.206-16.457 16.213-16.457h100.881c9.007 0 16.213 7.313 16.213 16.457v56.683zM760.887 307.81h-90.074v45.714h90.074v-45.714z"></path></g>
</svg>
