<?xml version="1.0" encoding="utf-8"?>
<!-- Generator: Adobe Illustrator 17.0.0, SVG Export Plug-In . SVG Version: 6.00 Build 0)  -->
<!DOCTYPE svg PUBLIC "-//W3C//DTD SVG 1.1//EN" "http://www.w3.org/Graphics/SVG/1.1/DTD/svg11.dtd">
<svg version="1.1" id="Layer_1" xmlns="http://www.w3.org/2000/svg" xmlns:xlink="http://www.w3.org/1999/xlink" x="0px" y="0px"
	 width="1024px" height="1024px" viewBox="0 0 1025 1024" enable-background="new 0 0 1025 1024" xml:space="preserve">
<g><path d="M413.425 712.772c0 39.876-13.732 73.271-41.196 100.186-27.464 26.918-61.793 40.375-102.989 40.375-39.234 0-72.582-15.45-100.046-46.353s-41.196-69.786-41.196-116.638c0-33.894 7.356-71.279 22.069-112.149 15.694-40.87 35.801-82.244 60.322-124.113 25.502-41.868 53.946-83.239 85.333-124.111 32.368-41.869 64.736-80.748 97.104-116.636l39.723 32.897c-44.137 52.835-80.918 106.168-110.344 160s-47.080 106.665-52.966 158.505c39.234 2.991 73.073 17.941 101.518 44.86 28.444 26.914 42.667 61.308 42.667 103.177zM835.678 712.772c0 39.876-13.73 73.271-41.195 100.186-27.465 26.918-61.794 40.375-102.989 40.375-39.232 0-72.585-15.45-100.045-46.353-27.465-30.903-41.195-69.786-41.195-116.638 0-33.894 7.356-71.279 22.067-112.149 15.693-40.87 35.802-82.244 60.322-124.113 25.502-41.868 53.948-83.239 85.333-124.111 32.367-41.869 64.734-80.748 97.101-116.636l38.255 32.897c-44.139 52.835-80.922 106.168-110.345 160-28.446 53.831-45.611 106.665-51.494 158.505 39.232 2.991 73.071 17.941 101.517 44.86 28.446 26.914 42.667 61.308 42.667 103.177z"></path></g>
</svg>
