<svg width="1024" height="1024" xmlns="http://www.w3.org/2000/svg">

<g><path d="M327.742 471.967c-25.221-7.261-50.442-10.945-74.975-10.945-37.885 0-69.497 8.658-94.009 19.259 23.631-86.511 80.399-235.785 193.485-252.595 10.473-1.558 19.055-9.13 21.912-19.324l24.716-88.402c2.084-7.476 0.849-15.478-3.416-21.966s-11.117-10.817-18.797-11.869c-8.346-1.139-16.853-1.719-25.285-1.719-135.739 0-270.168 141.679-326.893 344.541-33.298 119.015-43.062 297.945 38.959 410.569 45.898 63.020 112.86 96.673 199.028 100.035 0.354 0.011 0.698 0.021 1.053 0.021 106.318 0 200.596-71.602 229.275-174.107 17.133-61.28 9.388-125.546-21.827-181.003-30.882-54.835-81.742-94.804-143.226-112.495z"></path><path d="M993.269 584.472c-30.882-54.846-81.742-94.814-143.226-112.506-25.221-7.261-50.442-10.945-74.964-10.945-37.885 0-69.508 8.658-94.020 19.259 23.631-86.511 80.399-235.785 193.496-252.595 10.473-1.558 19.045-9.13 21.912-19.324l24.716-88.402c2.084-7.476 0.849-15.478-3.416-21.966-4.254-6.488-11.107-10.817-18.797-11.869-8.335-1.139-16.843-1.719-25.285-1.719-135.739 0-270.168 141.679-326.904 344.541-33.288 119.015-43.052 297.945 38.981 410.59 45.887 63.009 112.86 96.673 199.017 100.024 0.354 0.011 0.698 0.021 1.063 0.021 106.308 0 200.596-71.602 229.275-174.107 17.111-61.28 9.356-125.556-21.848-181.003z"></path></g>
</svg>