<?xml version="1.0" encoding="utf-8"?>
<!-- Generator: Adobe Illustrator 17.0.0, SVG Export Plug-In . SVG Version: 6.00 Build 0)  -->
<!DOCTYPE svg PUBLIC "-//W3C//DTD SVG 1.1//EN" "http://www.w3.org/Graphics/SVG/1.1/DTD/svg11.dtd">
<svg version="1.1" id="Layer_1" xmlns="http://www.w3.org/2000/svg" xmlns:xlink="http://www.w3.org/1999/xlink" x="0px" y="0px"
	 width="1024px" height="1024px" viewBox="0 0 1025 1024" enable-background="new 0 0 1025 1024" xml:space="preserve">
<g><path d="M848.474 321.932v-0.021c0-0.044-0.004-0.086-0.004-0.13-0.009-0.521-0.030-1.040-0.081-1.557-0.026-0.257-0.073-0.51-0.107-0.765-0.043-0.297-0.081-0.595-0.137-0.89-0.068-0.331-0.154-0.653-0.235-0.977-0.055-0.215-0.102-0.431-0.166-0.644-0.098-0.338-0.222-0.665-0.341-0.994-0.073-0.199-0.137-0.401-0.218-0.598-0.124-0.303-0.265-0.595-0.405-0.89-0.102-0.22-0.201-0.44-0.316-0.655-0.132-0.248-0.277-0.489-0.418-0.73-0.149-0.25-0.29-0.503-0.452-0.746-0.128-0.192-0.269-0.378-0.405-0.565-0.196-0.273-0.393-0.549-0.606-0.811-0.124-0.155-0.26-0.301-0.393-0.45-0.239-0.273-0.478-0.547-0.734-0.806-0.145-0.146-0.303-0.283-0.452-0.424-0.256-0.239-0.503-0.48-0.777-0.704-0.218-0.18-0.448-0.345-0.674-0.516-0.218-0.165-0.427-0.336-0.657-0.491-0.41-0.28-0.836-0.538-1.271-0.783-0.055-0.032-0.107-0.070-0.162-0.099l-0.026-0.014c-0.034-0.018-0.068-0.037-0.102-0.055l-321.399-176.472c-5.205-2.859-11.516-2.859-16.725 0l-321.525 176.537c-0.107 0.058-0.199 0.134-0.306 0.197-0.113 0.067-0.236 0.113-0.349 0.183-0.253 0.153-0.477 0.338-0.719 0.503-0.292 0.199-0.586 0.391-0.864 0.605-0.334 0.257-0.642 0.535-0.954 0.813-0.257 0.229-0.521 0.451-0.762 0.697-0.299 0.301-0.57 0.623-0.846 0.945-0.218 0.255-0.445 0.498-0.646 0.762-0.264 0.347-0.496 0.713-0.732 1.079-0.174 0.266-0.361 0.524-0.519 0.802-0.23 0.401-0.422 0.822-0.619 1.239-0.125 0.264-0.269 0.516-0.38 0.788-0.209 0.507-0.373 1.033-0.533 1.561-0.060 0.197-0.144 0.387-0.197 0.588-0.195 0.735-0.343 1.483-0.442 2.245-0.023 0.172-0.016 0.347-0.035 0.521-0.055 0.565-0.111 1.131-0.111 1.705v294.34c0 9.596 7.779 17.374 17.375 17.374s17.375-7.778 17.375-17.374v-265.644l62.617 32.765v93.876c0 9.596 7.779 17.374 17.375 17.374s17.375-7.778 17.375-17.374v-71.879l88.17 47.252v140.288l-97.337-52.164c-8.456-4.531-18.99-1.353-23.521 7.104-4.534 8.461-1.35 18.991 7.105 23.522l122.92 65.877c2.567 1.374 5.389 2.061 8.208 2.061 3.092 0 6.181-0.823 8.924-2.466 5.242-3.136 8.451-8.798 8.451-14.908v-156.062l66.491 34.79v349.35l-296.14-153.894c-8.514-4.42-19.003-1.105-23.431 7.407-4.425 8.516-1.109 19.008 7.407 23.433l321.525 167.083c0.218 0.111 0.439 0.192 0.657 0.294 0.277 0.128 0.555 0.256 0.836 0.371 0.431 0.175 0.87 0.324 1.31 0.461 0.273 0.085 0.542 0.179 0.819 0.252 0.486 0.128 0.986 0.218 1.481 0.303 0.235 0.038 0.465 0.094 0.7 0.124 0.734 0.098 1.472 0.149 2.21 0.149 0.734 0 1.472-0.055 2.206-0.149 0.239-0.030 0.469-0.085 0.704-0.128 0.495-0.081 0.99-0.175 1.476-0.303 0.277-0.073 0.546-0.166 0.823-0.252 0.439-0.137 0.875-0.286 1.306-0.461 0.282-0.115 0.559-0.243 0.841-0.371 0.218-0.102 0.439-0.183 0.657-0.294l321.523-167.083c5.756-2.991 9.365-8.934 9.365-15.42v-389.471c0-0.047 0-0.090 0-0.137zM326.58 374.321l119.91-63.101 80.060 41.848-113.414 66.234-86.555-44.98zM526.95 850.018v-349.35l229.295-119.981c8.503-4.448 11.789-14.947 7.339-23.449-4.446-8.5-14.946-11.787-23.45-7.339l-229.483 120.079-61.056-31.731 121.609-71.019c5.457-3.188 8.755-9.091 8.61-15.41-0.149-6.322-3.721-12.063-9.323-14.991l-115.977-60.627c-5.060-2.643-11.093-2.636-16.141 0.021l-149.341 78.591-64.116-33.321 284.655-156.294 304.154 166.999v368.797l-286.775 149.026z"></path><path d="M754.782 653.564l-137.246 71.155c-8.516 4.42-11.844 14.903-7.424 23.424 3.089 5.961 9.156 9.378 15.437 9.378 2.697 0 5.427-0.627 7.987-1.95l137.246-71.159c8.516-4.42 11.844-14.903 7.424-23.424-4.416-8.516-14.903-11.84-23.424-7.424z"></path><path d="M754.782 573.572l-137.246 71.159c-8.516 4.416-11.844 14.903-7.424 23.42 3.089 5.965 9.156 9.382 15.437 9.382 2.697 0 5.427-0.627 7.987-1.954l137.246-71.159c8.516-4.416 11.844-14.903 7.424-23.42-4.416-8.521-14.903-11.844-23.424-7.428z"></path><path d="M754.782 493.589l-78.541 40.725c-8.521 4.416-11.844 14.899-7.428 23.42 3.089 5.965 9.156 9.378 15.441 9.378 2.692 0 5.427-0.627 7.983-1.95l78.541-40.725c8.521-4.416 11.849-14.899 7.428-23.42-4.42-8.516-14.903-11.849-23.424-7.428z"></path></g>
</svg>
