<?xml version="1.0" encoding="utf-8"?>
<!-- Generator: Adobe Illustrator 17.0.0, SVG Export Plug-In . SVG Version: 6.00 Build 0)  -->
<!DOCTYPE svg PUBLIC "-//W3C//DTD SVG 1.1//EN" "http://www.w3.org/Graphics/SVG/1.1/DTD/svg11.dtd">
<svg version="1.1" id="Layer_1" xmlns="http://www.w3.org/2000/svg" xmlns:xlink="http://www.w3.org/1999/xlink" x="0px" y="0px"
	 width="1025px" height="1024px" viewBox="0 0 1025 1024" enable-background="new 0 0 1025 1024" xml:space="preserve">
<g><path d="M632.795 317.962c-13.771 0-24.935 11.164-24.935 24.935s11.164 24.935 24.935 24.935h49.87c13.771 0 24.935-11.164 24.935-24.935s-11.164-24.935-24.935-24.935h-49.87z"></path><path d="M391.318 916.404h-97.706c-13.771 0-24.935 11.164-24.935 24.935s11.164 24.935 24.935 24.935h97.706c13.771 0 24.935-11.164 24.935-24.935s-11.164-24.935-24.935-24.935z"></path><path d="M24.935 522.509c13.771 0 24.935-11.164 24.935-24.935v-88.184c0-2.001 0.14-4.006 0.422-5.961 1.948-13.631-7.524-26.265-21.155-28.21-13.638-1.965-26.262 7.524-28.21 21.155-0.618 4.282-0.928 8.664-0.928 13.016v88.184c0 13.771 11.164 24.935 24.935 24.935z"></path><path d="M130.766 916.404h-39.338c-12.388 0-24.037-5.469-31.973-15.008-8.807-10.586-24.526-12.032-35.119-3.225-10.586 8.807-12.032 24.529-3.225 35.119 17.438 20.962 43.068 32.984 70.314 32.984h39.338c13.771 0 24.935-11.164 24.935-24.935 0.003-13.771-11.161-24.935-24.932-24.935z"></path><path d="M651.866 916.404h-97.706c-13.771 0-24.935 11.164-24.935 24.935s11.164 24.935 24.935 24.935h97.706c13.771 0 24.935-11.164 24.935-24.935s-11.164-24.935-24.935-24.935z"></path><path d="M49.87 758.122v-97.706c0-13.771-11.164-24.935-24.935-24.935s-24.935 11.164-24.935 24.935v97.706c0 13.771 11.164 24.935 24.935 24.935s24.935-11.164 24.935-24.935z"></path><path d="M999.065 453.456c-13.771 0-24.935 11.164-24.935 24.935v97.706c0 13.771 11.164 24.935 24.935 24.935s24.935-11.164 24.935-24.935v-97.706c0-13.771-11.164-24.935-24.935-24.935z"></path><path d="M999.065 714.004c-13.771 0-24.935 11.164-24.935 24.935v97.709c0 13.771 11.164 24.935 24.935 24.935s24.935-11.164 24.935-24.935v-97.709c0-13.771-11.164-24.935-24.935-24.935z"></path><path d="M912.417 916.404h-97.706c-13.771 0-24.935 11.164-24.935 24.935s11.164 24.935 24.935 24.935h97.706c13.771 0 24.935-11.164 24.935-24.935s-11.164-24.935-24.935-24.935z"></path><path d="M947.107 319.112c-4.781-0.765-9.671-1.154-14.535-1.154h-87.060c-13.771 0-24.935 11.164-24.935 24.935s11.164 24.935 24.935 24.935h87.060c2.234 0 4.475 0.176 6.656 0.525 1.333 0.213 2.66 0.316 3.97 0.316 12.035 0 22.631-8.734 24.593-20.999 2.174-13.598-7.088-26.385-20.683-28.559z"></path><path d="M159.581 367.832h49.87c13.771 0 24.935-11.164 24.935-24.935s-11.164-24.935-24.935-24.935h-49.87c-13.771 0-24.935 11.164-24.935 24.935s11.164 24.935 24.935 24.935z"></path><path d="M750.582 179.938c-7.587-16.723-27.292-24.127-44.012-16.544l-300.258 136.195-23.775-10.785c16.387-11.065 29.35-25.942 37.413-43.819 13.827-30.657 11.676-67.119-5.895-100.030-16.308-30.54-44.311-55.938-78.858-71.514-22.797-10.283-47.443-15.716-71.261-15.716-51.672 0-95.129 25.194-113.415 65.749-13.827 30.657-11.68 67.119 5.891 100.026 16.288 30.507 44.255 55.881 78.755 71.464 0.013 0.007 0.023 0.013 0.037 0.020l90.627 41.11-90.627 41.11c-0.020 0.010-0.037 0.020-0.057 0.030-34.49 15.583-62.451 40.953-78.735 71.454-17.571 32.911-19.719 69.369-5.895 100.023 18.286 40.558 61.746 65.752 113.418 65.752 0.003 0 0.003 0 0.007 0 23.815 0 48.457-5.436 71.254-15.716 74.283-33.503 112.301-110.456 84.753-171.543-8.062-17.873-21.025-32.755-37.413-43.819l23.775-10.785 300.258 136.195c4.455 2.021 9.123 2.979 13.714 2.979 12.647 0 24.732-7.254 30.298-19.522 7.584-16.723 0.176-36.425-16.544-44.012l-247.239-112.148 247.239-112.148c16.72-7.577 24.127-27.282 16.544-44.005zM306.535 244.241c-14.466 0-29.656-3.401-43.929-9.841-20.922-9.432-38.247-24.822-47.533-42.217-4.575-8.568-11.168-25.334-3.936-41.376 7.397-16.404 27.625-26.591 52.799-26.591 14.466 0 29.656 3.401 43.926 9.834 20.922 9.435 38.247 24.822 47.536 42.22 4.575 8.568 11.171 25.337 3.936 41.372-7.397 16.411-27.628 26.597-52.799 26.597zM307.862 538.139c-14.27 6.437-29.457 9.834-43.919 9.834h-0.003c-25.174-0.003-45.408-10.19-52.802-26.594-7.231-16.038-0.638-32.805 3.936-41.372 9.286-17.395 26.611-32.781 47.536-42.217 14.273-6.437 29.46-9.838 43.926-9.838 25.171 0 45.405 10.187 52.802 26.594 12.265 27.193-11.311 65.476-51.476 83.592z"></path></g>
</svg>
