<?xml version="1.0" encoding="utf-8"?>
<!-- Generator: Adobe Illustrator 17.0.0, SVG Export Plug-In . SVG Version: 6.00 Build 0)  -->
<!DOCTYPE svg PUBLIC "-//W3C//DTD SVG 1.1//EN" "http://www.w3.org/Graphics/SVG/1.1/DTD/svg11.dtd">
<svg version="1.1" id="Layer_1" xmlns="http://www.w3.org/2000/svg" xmlns:xlink="http://www.w3.org/1999/xlink" x="0px" y="0px"
	 width="1024px" height="1024px" viewBox="0 0 1025 1024" enable-background="new 0 0 1025 1024" xml:space="preserve">
<g><path d="M845.001 804.779l-194.133-194.133c37.602-46.451 60.245-105.472 60.245-169.758 0-148.99-121.233-270.221-270.225-270.221s-270.221 121.229-270.221 270.221c0 148.992 121.231 270.225 270.221 270.225 64.286 0 123.307-22.643 169.758-60.245l194.133 194.133c5.547 5.547 12.83 8.333 20.109 8.333 7.283 0 14.566-2.786 20.113-8.333 11.119-11.123 11.119-29.099 0-40.222zM440.887 654.221c-117.645 0-213.332-95.684-213.332-213.333 0-117.646 95.687-213.333 213.332-213.333 117.649 0 213.333 95.687 213.333 213.333 0 117.649-95.684 213.333-213.333 213.333z"></path></g>
</svg>
