<?xml version="1.0" encoding="utf-8"?>
<!-- Generator: Adobe Illustrator 17.0.0, SVG Export Plug-In . SVG Version: 6.00 Build 0)  -->
<!DOCTYPE svg PUBLIC "-//W3C//DTD SVG 1.1//EN" "http://www.w3.org/Graphics/SVG/1.1/DTD/svg11.dtd">
<svg version="1.1" id="Layer_1" xmlns="http://www.w3.org/2000/svg" xmlns:xlink="http://www.w3.org/1999/xlink" x="0px" y="0px"
	 width="1025px" height="1024px" viewBox="0 0 1025 1024" enable-background="new 0 0 1025 1024" xml:space="preserve">
<g><path d="M1017 963.2l-258-258c-4.6-4.6-10.6-7-17-7h-20.6c68.6-74.2 110.6-173.2 110.6-282.2 0-229.8-186.2-416-416-416s-416 186.2-416 416 186.2 416 416 416c109 0 208-42 282.2-110.4v20.4c0 6.4 2.6 12.4 7 17l258 258c9.4 9.4 24.6 9.4 34 0l19.8-19.8c9.4-9.4 9.4-24.6 0-34zM416 768c-194.6 0-352-157.4-352-352s157.4-352 352-352 352 157.4 352 352-157.4 352-352 352z"></path></g>
</svg>
