<?xml version="1.0" encoding="utf-8"?>
<!-- Generator: Adobe Illustrator 17.0.0, SVG Export Plug-In . SVG Version: 6.00 Build 0)  -->
<!DOCTYPE svg PUBLIC "-//W3C//DTD SVG 1.1//EN" "http://www.w3.org/Graphics/SVG/1.1/DTD/svg11.dtd">
<svg version="1.1" id="Layer_1" xmlns="http://www.w3.org/2000/svg" xmlns:xlink="http://www.w3.org/1999/xlink" x="0px" y="0px"
	 width="1024px" height="1024px" viewBox="0 0 1025 1024" enable-background="new 0 0 1025 1024" xml:space="preserve">
<g><path d="M598.942 766.362c108.779-6.302 210.167-51.644 287.846-129.323 5.628-5.628 8.789-13.257 8.789-21.214s-3.162-15.586-8.789-21.214l-66.15-66.146c40.448-48.589 65.638-108.038 72.307-172.334 8.875-85.55-16.102-169.436-70.319-236.202-54.217-66.768-131.196-108.426-216.742-117.298-85.551-8.876-169.438 16.1-236.206 70.32-0.838 0.68-1.652 1.38-2.482 2.068l-66.232-66.232c-11.714-11.716-30.71-11.716-42.426 0-83.906 83.906-130.116 195.464-130.116 314.126s46.208 230.222 130.116 314.126c75.906 75.908 174.448 120.96 280.406 128.858v64.875c0 0.9 0.060 1.788 0.132 2.667h-119.564c-88.534 0-160.56 72.030-160.56 160.563 0 16.567 13.432 29.999 30 29.999h559.983c16.567 0 30.003-13.431 30.003-29.999 0-88.538-72.030-160.563-160.563-160.563h-119.565c0.077-0.879 0.132-1.766 0.132-2.667v-64.41zM814.366 963.998h-490.846c12.792-40.841 50.986-70.558 95.992-70.558h298.863c45.009 0 83.2 29.717 95.991 70.558zM776.047 157.751c38.071 46.88 58.402 104.138 58.628 163.684l-122.146-69.154c-30.383-17.204-67.541-14.096-94.643 7.916l-10.752 8.726-16.444-6.084c-6.404-2.37-11.371-7.144-13.99-13.448-2.624-6.304-2.505-13.194 0.329-19.402l36.621-80.208c13.205-28.922 9.165-62.144-10.441-87.064 68.198 7.984 129.468 41.626 172.838 95.034v0zM527.595 64.713l28.233 34.764c5.854 7.21 7.095 16.94 3.238 25.386l-36.621 80.208c-9.698 21.244-10.116 45.794-1.148 67.358s26.667 38.578 48.572 46.682l32.486 12.020c9.946 3.678 21.090 1.836 29.321-4.846l24.030-19.51c7.808-6.34 18.513-7.238 27.264-2.28l144.009 81.534c-13.534 55.017-44.403 103.93-89.156 140.269-30.37 24.666-64.649 41.374-100.288 50.428-0.004-0.004-0.009-0.009-0.013-0.013l-74.057-91.196c-5.372-6.618-7.846-14.929-6.967-23.403l2.125-20.489c5.231-50.405-31.522-95.667-81.929-100.895-24.405-2.532-48.358 4.596-67.415 20.070l-78.208 63.508c-43.814-104.522-15.89-229.814 76.434-304.784 35.299-28.664 76.486-47.266 120.091-54.812v0zM516.885 523.341l49.839 61.376c-74.15-1.737-147.133-34.684-197.446-96.64-2.872-3.537-5.636-7.13-8.292-10.769l86.114-69.929c6.618-5.372 14.925-7.844 23.398-6.966 17.502 1.816 30.259 17.526 28.442 35.026l-2.125 20.484c-2.53 24.414 4.599 48.354 20.070 67.418v0zM188.424 322.913c0-92.568 32.516-180.144 92.138-249.676l44.18 44.178c-96.032 115.78-100.396 287.362-2.040 408.482 63.56 78.268 156.526 118.878 250.264 118.878 71.334 0 143.125-23.535 202.684-71.902 0.841-0.678 1.655-1.378 2.483-2.065l44.207 44.207c-69.534 59.627-157.107 92.139-249.677 92.139-211.872 0-384.24-172.369-384.24-384.24v0z"></path></g>
</svg>
