<svg width="1025" height="1024" xmlns="http://www.w3.org/2000/svg">

 <g>
  <title>background</title>
  <rect fill="none" id="canvas_background" height="602" width="802" y="-1" x="-1"/>
 </g>
 <g>
  <title>Layer 1</title>
  <g id="svg_1">
   <path id="svg_2" d="m768.5,256c0,-141.158 -114.842,-256 -256,-256c-141.16,0 -256,114.842 -256,256l-192,0l0,608c0,88.366 71.634,160 160,160l576,0c88.366,0 160,-71.634 160,-160l0,-608l-192,0zm-256,-192c105.87,0 192,86.13 192,192l-384,0c0,-105.87 86.13,-192 192,-192zm384,800c0,52.934 -43.066,96 -96,96l-576,0c-52.934,0 -96,-43.066 -96,-96l0,-544l128,0l0,96c0,17.674 14.328,32 32,32s32,-14.326 32,-32l0,-96l384,0l0,96c0,17.674 14.326,32 32,32s32,-14.326 32,-32l0,-96l128,0l0,544z"/>
  </g>
 </g>
</svg>