<?xml version="1.0" encoding="utf-8"?>
<!-- Generator: Adobe Illustrator 17.0.0, SVG Export Plug-In . SVG Version: 6.00 Build 0)  -->
<!DOCTYPE svg PUBLIC "-//W3C//DTD SVG 1.1//EN" "http://www.w3.org/Graphics/SVG/1.1/DTD/svg11.dtd">
<svg version="1.1" id="Layer_1" xmlns="http://www.w3.org/2000/svg" xmlns:xlink="http://www.w3.org/1999/xlink" x="0px" y="0px"
	 width="1024px" height="1024px" viewBox="0 0 1025 1024" enable-background="new 0 0 1025 1024" xml:space="preserve">
<g><path d="M736.029 575.981h-224c-8.837 0-16 7.163-16 16v0 32c0 8.837 7.163 16 16 16v0h224c8.837 0 16-7.163 16-16v0-32c0-8.837-7.163-16-16-16v0zM608.029 767.981h-96c-8.837 0-16 7.163-16 16v0 32c0 8.837 7.163 16 16 16v0h96c8.837 0 16-7.163 16-16v0-32c0-8.837-7.163-16-16-16v0zM992.029 191.981h-480c-8.837 0-16 7.163-16 16v0 32c0 8.837 7.163 16 16 16v0h480c8.837 0 16-7.163 16-16v0-32c0-8.837-7.163-16-16-16v0zM864.029 383.981h-352c-8.837 0-16 7.163-16 16v0 32c0 8.837 7.163 16 16 16v0h352c8.837 0 16-7.163 16-16v0-32c0-8.837-7.163-16-16-16v0zM381.889 743.101c-4.33-4.395-10.347-7.117-17-7.117-6.563 0-12.508 2.65-16.822 6.939l0.001-0.001-108 105.34v-768.28c0-8.837-7.163-16-16-16v0h-32.040c-8.837 0-16 7.163-16 16v0 767.84l-107.88-104.7c-4.338-4.313-10.318-6.979-16.92-6.979s-12.582 2.666-16.921 6.98l0.001-0.001-11.28 11.32c-4.361 4.346-7.059 10.358-7.059 17s2.698 12.654 7.058 16.999l0.001 0.001 168.12 164.6c4.32 4.312 10.284 6.979 16.87 6.979s12.55-2.667 16.87-6.979l-0 0 168-164.64c4.415-4.355 7.149-10.403 7.149-17.090 0-6.598-2.662-12.573-6.971-16.912l0.001 0.001-11.18-11.3z"></path></g>
</svg>
