<?xml version="1.0" encoding="utf-8"?>
<!-- Generator: Adobe Illustrator 17.0.0, SVG Export Plug-In . SVG Version: 6.00 Build 0)  -->
<!DOCTYPE svg PUBLIC "-//W3C//DTD SVG 1.1//EN" "http://www.w3.org/Graphics/SVG/1.1/DTD/svg11.dtd">
<svg version="1.1" id="Layer_1" xmlns="http://www.w3.org/2000/svg" xmlns:xlink="http://www.w3.org/1999/xlink" x="0px" y="0px"
	 width="1025px" height="1024px" viewBox="0 0 1025 1024" enable-background="new 0 0 1025 1024" xml:space="preserve">
<g>
	<path d="M459.556 338.389l42.423 42.432c4.026-4.026 10.955-8.823 21.097-8.823 10.675 0 17.794 5.525 21.090 8.819l42.428-42.426c-9.858-9.856-31.219-26.391-63.518-26.391-32.294 0-53.66 16.533-63.52 26.389z"></path>
	<path d="M671.509 253.566c-39.699-39.701-92.414-61.566-148.435-61.566-56.017 0-108.734 21.865-148.435 61.564l42.426 42.426c28.369-28.365 66.018-43.989 106.010-43.989 39.994 0 77.643 15.625 106.010 43.991l42.426-42.426z"></path>
	<path d="M824.666 432h-603.998c-115.795 0-210.001 94.206-210.001 210.001 0 115.793 94.206 209.999 210.001 209.999h603.998c115.795 0 210.001-94.206 210.001-209.999 0-115.795-94.206-210.001-210.001-210.001zM672.666 492v300h-299.998v-300h299.998zM70.667 642.001c0-82.711 67.29-150.001 150.001-150.001h91.998v300h-91.998c-82.711 0-150.001-67.29-150.001-149.999zM824.666 792h-91.998v-300h91.998c82.711 0 150.001 67.29 150.001 150.001 0 82.709-67.29 149.999-150.001 149.999z"></path>
	<path d="M522.667 732c49.626 0 90.001-40.373 90.001-89.999 0-49.628-40.375-90.001-90.001-90.001s-90.001 40.373-90.001 90.001c0 49.626 40.375 89.999 90.001 89.999zM522.667 612c16.542 0 29.999 13.457 29.999 30.001 0 16.542-13.457 29.999-29.999 29.999s-29.999-13.457-29.999-29.999c0-16.544 13.457-30.001 29.999-30.001z"></path>
</g>
</svg>
