<?xml version="1.0" encoding="utf-8"?>
<!-- Generator: Adobe Illustrator 17.0.0, SVG Export Plug-In . SVG Version: 6.00 Build 0)  -->
<!DOCTYPE svg PUBLIC "-//W3C//DTD SVG 1.1//EN" "http://www.w3.org/Graphics/SVG/1.1/DTD/svg11.dtd">
<svg version="1.1" id="Layer_1" xmlns="http://www.w3.org/2000/svg" xmlns:xlink="http://www.w3.org/1999/xlink" x="0px" y="0px"
	 width="1024px" height="1024px" viewBox="0 0 1025 1024" enable-background="new 0 0 1025 1024" xml:space="preserve">
<g><path d="M853.333 848c0 26.88-21.457 48-48.764 48h-585.141c-27.307 0-48.762-21.12-48.762-48 0-105.6 87.771-192 195.048-192h7.802c17.554 0 37.059 3.84 54.614 9.6 23.407 7.68 60.463 13.44 85.82 13.44s62.417-5.76 85.82-13.44c17.557-5.76 35.11-9.6 54.613-9.6h3.904c107.277 0 195.046 86.4 195.046 192zM219.429 440.96v-24.96c0-159.36 130.682-288 292.571-288s292.57 128.64 292.57 288v24.96c0 92.16-76.066 167.040-171.639 168.96h-146.287c-27.307 0-48.759-21.12-48.759-48s21.453-48 48.759-48h48.764c27.307 0 48.759 21.12 48.759 48h48.764c66.317 0 120.93-53.76 122.88-120.96v-24.96c0-132.48-109.227-240-243.81-240s-243.81 107.52-243.81 240v24.96c0 13.44-11.703 24.96-25.356 24.96s-23.406-13.44-23.406-24.96zM804.57 848c0-78.72-66.313-144-146.283-144h-7.804c-9.754 0-23.407 1.92-39.010 7.68-27.307 9.6-72.166 17.28-101.423 17.28s-74.121-7.68-101.425-17.28c-15.604-5.76-27.307-7.68-39.009-7.68h-3.901c-79.97 0-146.286 65.28-146.286 144h585.141zM512 272c-79.97 0-146.286 63.36-146.286 144 0 30.72 17.554 74.88 39.009 96-7.802 11.52-13.653 34.56-13.653 48 0 1.92 0 3.84 0 5.76-44.861-36.48-74.118-88.32-74.118-149.76 0-105.6 87.771-192 195.048-192s195.046 86.4 195.046 192c0 21.12-3.9 42.24-11.703 61.44-11.699 19.2-39.006 34.56-62.413 34.56h-13.653c21.453-23.040 37.060-65.28 37.060-96 1.95-80.64-62.417-144-144.337-144z"></path></g>
</svg>
