<?xml version="1.0" encoding="utf-8"?>
<!-- Generator: Adobe Illustrator 17.0.0, SVG Export Plug-In . SVG Version: 6.00 Build 0)  -->
<!DOCTYPE svg PUBLIC "-//W3C//DTD SVG 1.1//EN" "http://www.w3.org/Graphics/SVG/1.1/DTD/svg11.dtd">
<svg version="1.1" id="Layer_1" xmlns="http://www.w3.org/2000/svg" xmlns:xlink="http://www.w3.org/1999/xlink" x="0px" y="0px"
	 width="1025px" height="1024px" viewBox="0 0 1025 1024" enable-background="new 0 0 1025 1024" xml:space="preserve">
<g>
	<path fill="rgb(112, 112, 112)" d="M532.689 1024c-28.762 0.083-56.361-11.347-76.64-31.738l-424.308-424.367c-22.391-22.328-33.873-53.347-31.414-84.872l27.081-355.632c3.862-53.492 46.482-95.997 99.984-99.714l355.63-27.081c2.762-0.596 5.579-0.596 8.341-0.596 28.698 0.074 56.205 11.481 76.531 31.739l424.362 424.31c20.326 20.316 31.744 47.876 31.744 76.613s-11.418 56.297-31.744 76.613l-382.981 382.987c-20.266 20.378-47.843 31.808-76.586 31.738zM491.309 108.325l-355.901 27.082-27.081 355.903 424.362 424.364 382.927-382.93-424.307-424.419zM302.878 411.203c-51.679 0.011-96.17-36.486-106.262-87.171s17.025-101.441 64.767-121.226c47.742-19.786 102.812-3.091 131.531 39.875s23.087 100.234-13.45 136.783c-20.266 20.382-47.843 31.811-76.586 31.74z"></path>
</g>
</svg>
