<svg width="1025" height="1024" xmlns="http://www.w3.org/2000/svg">

 <g>
  <title>background</title>
  <rect fill="none" id="canvas_background" height="602" width="802" y="-1" x="-1"/>
 </g>
 <g>
  <title>Layer 1</title>
  <g id="svg_1">
   <path id="svg_2" d="m152.5,112l-96,0c-17.673,0 -32,14.327 -32,32l0,0l0,96c0,17.673 14.327,32 32,32l0,0l96,0c17.673,0 32,-14.327 32,-32l0,0l0,-96c0,-17.673 -14.327,-32 -32,-32l0,0zm0,320l-96,0c-17.673,0 -32,14.327 -32,32l0,0l0,96c0,17.673 14.327,32 32,32l0,0l96,0c17.673,0 32,-14.327 32,-32l0,0l0,-96c0,-17.673 -14.327,-32 -32,-32l0,0zm0,320l-96,0c-17.673,0 -32,14.327 -32,32l0,0l0,96c0,17.673 14.327,32 32,32l0,0l96,0c17.673,0 32,-14.327 32,-32l0,0l0,-96c0,-17.673 -14.327,-32 -32,-32l0,0zm832,48l-672,0c-8.837,0 -16,7.163 -16,16l0,0l0,32c0,8.837 7.163,16 16,16l0,0l672,0c8.837,0 16,-7.163 16,-16l0,0l0,-32c0,-8.837 -7.163,-16 -16,-16l0,0zm0,-640l-672,0c-8.837,0 -16,7.163 -16,16l0,0l0,32c0,8.837 7.163,16 16,16l0,0l672,0c8.837,0 16,-7.163 16,-16l0,0l0,-32c0,-8.837 -7.163,-16 -16,-16l0,0zm0,320l-672,0c-8.837,0 -16,7.163 -16,16l0,0l0,32c0,8.837 7.163,16 16,16l0,0l672,0c8.837,0 16,-7.163 16,-16l0,0l0,-32c0,-8.837 -7.163,-16 -16,-16l0,0z"/>
  </g>
 </g>
</svg>