<?xml version="1.0" encoding="utf-8"?>
<!-- Generator: Adobe Illustrator 17.0.0, SVG Export Plug-In . SVG Version: 6.00 Build 0)  -->
<!DOCTYPE svg PUBLIC "-//W3C//DTD SVG 1.1//EN" "http://www.w3.org/Graphics/SVG/1.1/DTD/svg11.dtd">
<svg version="1.1" id="Layer_1" xmlns="http://www.w3.org/2000/svg" xmlns:xlink="http://www.w3.org/1999/xlink" x="0px" y="0px"
	 width="1025px" height="1024px" viewBox="0 0 1025 1024" enable-background="new 0 0 1025 1024" xml:space="preserve">
<g><path d="M627.2 576c-57.4 0-85 32-179.2 32s-121.6-32-179.2-32c-148.4 0-268.8 120.4-268.8 268.8v83.2c0 53 43 96 96 96h704c53 0 96-43 96-96v-83.2c0-148.4-120.4-268.8-268.8-268.8zM832 928c0 17.6-14.4 32-32 32h-704c-17.6 0-32-14.4-32-32v-83.2c0-113 91.8-204.8 204.8-204.8 39.2 0 78.2 32 179.2 32 100.8 0 140-32 179.2-32 113 0 204.8 91.8 204.8 204.8v83.2zM448 512c141.4 0 256-114.6 256-256s-114.6-256-256-256-256 114.6-256 256 114.6 256 256 256zM448 64c105.8 0 192 86.2 192 192s-86.2 192-192 192-192-86.2-192-192 86.2-192 192-192z"></path></g>
</svg>
