<?xml version="1.0" encoding="utf-8"?>
<!-- Generator: Adobe Illustrator 17.0.0, SVG Export Plug-In . SVG Version: 6.00 Build 0)  -->
<!DOCTYPE svg PUBLIC "-//W3C//DTD SVG 1.1//EN" "http://www.w3.org/Graphics/SVG/1.1/DTD/svg11.dtd">
<svg version="1.1" id="Layer_1" xmlns="http://www.w3.org/2000/svg" xmlns:xlink="http://www.w3.org/1999/xlink" x="0px" y="0px"
	 width="1024px" height="1024px" viewBox="0 0 1025 1024" enable-background="new 0 0 1025 1024" xml:space="preserve">
<g><path d="M512 85.333c-235.26 0-426.667 191.407-426.667 426.667s191.407 426.667 426.667 426.667c235.26 0 426.667-191.407 426.667-426.667s-191.407-426.667-426.667-426.667zM512 885.333c-205.86 0-373.333-167.475-373.333-373.333 0-205.86 167.473-373.333 373.333-373.333 205.858 0 373.333 167.473 373.333 373.333 0 205.858-167.475 373.333-373.333 373.333v0z"></path><path d="M538.667 245.333h-53.333v277.709l167.812 167.812 37.709-37.709-152.188-152.188v-255.625z"></path></g>
</svg>
