<?xml version="1.0" encoding="utf-8"?>
<!-- Generator: Adobe Illustrator 17.0.0, SVG Export Plug-In . SVG Version: 6.00 Build 0)  -->
<!DOCTYPE svg PUBLIC "-//W3C//DTD SVG 1.1//EN" "http://www.w3.org/Graphics/SVG/1.1/DTD/svg11.dtd">
<svg version="1.1" id="Layer_1" xmlns="http://www.w3.org/2000/svg" xmlns:xlink="http://www.w3.org/1999/xlink" x="0px" y="0px"
	 width="1025px" height="1024px" viewBox="0 0 1025 1024" enable-background="new 0 0 1025 1024" xml:space="preserve">
<g>
	<path d="M286.534 877.734c4.826-14.157 10.901-32.011 17.15-50.443 18.94-55.849 71.262-93.372 130.202-93.372h134.833c75.797 0 137.463 61.666 137.463 137.466v12.233c-126.492 21.615-291.273 20.87-419.648-5.884zM126.553 180.313c25.935-25.794 60.34-39.993 96.931-39.993h0.062c36.742 0.016 71.273 14.346 97.229 40.349l51.829 51.921v92.514c0 0-90.031-104.994-90.528-105.493-15.58-15.58-36.29-24.157-58.321-24.157-22.032 0-42.745 8.58-58.323 24.157l-19.152 19.151-38.023-39.054 18.296-19.394zM242.643 347.125c-4.237-7.465-11.716-12.523-20.222-13.673-8.503-1.152-17.060 1.734-23.129 7.804l-54.698 54.699c-10.717 10.716-28.153 10.718-38.871 0-10.74-10.743-10.746-28.13 0-38.874l98.59-98.59c5.193-5.193 12.097-8.051 19.442-8.051 7.051 0 13.694 2.635 18.807 7.441l157.534 183.787v154.79c0 15.183 12.309 27.492 27.492 27.492h56.819v54.987h-50.519c-82.515 0-155.763 52.525-182.274 130.699-7.108 20.962-13.749 40.471-18.684 54.935-17.564-5.026-35.17-10.822-52.060-17.408-0.095-0.036-0.189-0.075-0.282-0.111 3.583-10.566 3.213-10.308 21.86-63.998 51.177-147.356 109.185-314.37 40.195-435.93zM511.9 953.865c115.84 0 246.199-13.79 354.731-56.93 72.689-28.866 103.878-58.558 106.268-60.934 10.825-10.65 10.97-28.055 0.32-38.88-10.594-10.771-27.876-10.959-38.741-0.457-0.028 0.026-0.117 0.107-0.288 0.265-2.601 2.347-21.894 19.091-63.049 38.229-0.247-254.236 0.546-240.141-0.689-254.901 25.18 12.070 55.674 34.302 55.674 71.185 0 15.183 12.309 27.492 27.494 27.492 15.183 0 27.492-12.309 27.492-27.492v-192.452c0-60.638-49.333-109.971-109.971-109.971-48.864 0-90.366 32.043-104.649 76.211-26.34-13.562-56.192-21.227-87.804-21.227h-238.455c0 0-8.612-10.046-12.646-14.752 0-39.072 0-168.036 0-168.036 0-7.285-2.889-14.27-8.034-19.424l-59.863-59.969c-36.339-36.404-84.681-56.465-136.117-56.487-0.032 0-0.055 0-0.087 0-51.402 0-99.733 20.019-136.083 56.37-0.189 0.189-0.374 0.379-0.557 0.574l-36.665 38.86c-10.108 10.715-9.974 27.491 0.301 38.046l56.916 58.462-40.554 40.555c-32.229 32.226-32.235 84.399 0 116.634 32.156 32.158 84.477 32.158 116.633 0l26.093-26.091c30.339 98.854-16.87 234.786-59.064 356.269-16.485 47.462-19.080 55.703-20.176 58.929-28.296-15.383-40.847-27.123-41.034-27.29-10.836-10.492-28.12-10.304-38.716 0.469-10.647 10.825-10.502 28.233 0.323 38.88 5.284 5.246 13.074 11.108 19.201 15.364 113.99 80.529 302.038 102.5 441.799 102.5zM623.703 596.454v-137.466h54.987c75.797 0 137.466 61.668 137.466 137.466v260.331c-15.991 5.297-34.285 10.607-54.987 15.588v-0.99c0-106.118-86.334-192.452-192.45-192.452h-29.327v-54.987h56.819c15.183 0.002 27.492-12.305 27.492-27.49zM455.081 458.989h113.638v109.973h-113.638v-109.973zM853.274 515.529c-9.291-19.959-21.899-38.065-37.118-53.613v-2.925c0-30.319 24.666-54.987 54.985-54.987 30.321 0 54.987 24.668 54.987 54.987v90.581c-4.166-3.051-8.563-5.986-13.184-8.802-25.184-15.349-50.345-22.812-59.669-25.242z"></path>
</g>
</svg>
