<?xml version="1.0" encoding="utf-8"?>
<!-- Generator: Adobe Illustrator 17.0.0, SVG Export Plug-In . SVG Version: 6.00 Build 0)  -->
<!DOCTYPE svg PUBLIC "-//W3C//DTD SVG 1.1//EN" "http://www.w3.org/Graphics/SVG/1.1/DTD/svg11.dtd">
<svg version="1.1" id="Layer_1" xmlns="http://www.w3.org/2000/svg" xmlns:xlink="http://www.w3.org/1999/xlink" x="0px" y="0px"
	 width="1024px" height="1024px" viewBox="0 0 1025 1024" enable-background="new 0 0 1025 1024" xml:space="preserve">
<g>
	<path fill="rgb(153, 153, 153)" d="M706.361 102.716h-181.828v-69.324c0-18.44-14.861-33.392-33.194-33.392h-243.133c-18.331 0-33.194 14.95-33.194 33.392v69.324h-181.825c-18.331 0-33.194 14.95-33.194 33.392v102.714c0 18.44 14.861 33.392 33.194 33.392h10.084l30.339 719.809c0.752 17.874 15.378 31.977 33.162 31.977h525.998c17.783 0 32.41-14.103 33.161-31.977l30.339-719.811h10.086c18.33 0 33.195-14.95 33.195-33.392v-102.712c0-18.444-14.859-33.392-33.189-33.392zM281.4 66.782h176.745v35.934h-176.745v-35.934zM600.957 957.218h-462.369l-28.872-685.005h520.106l-28.865 685.005zM673.166 205.43c-30.162 0-588.717 0-606.785 0v-35.932h606.785v35.932z"></path><path fill="rgb(153, 153, 153)" d="M312.882 341.333c-15.708 0-28.444 14.169-28.444 31.647v391.817c0 17.476 12.733 31.647 28.444 31.647 15.708 0 28.444-14.171 28.444-31.647v-391.817c-0.002-17.478-12.737-31.647-28.444-31.647z"></path><path fill="rgb(153, 153, 153)" d="M426.66 341.333c-15.708 0-28.444 14.169-28.444 31.647v391.817c0 17.476 12.735 31.647 28.444 31.647s28.444-14.171 28.444-31.647v-391.817c0-17.478-12.735-31.647-28.444-31.647z"></path>
</g>
</svg>
