<svg width="1024" height="1024" xmlns="http://www.w3.org/2000/svg">

<g><path d="M998.198 601.446v-10.957l-92.229-302.932h-204.098v-72.458h-490.616v187.485h-104.468l-44.182 58.916h148.649v44.182h-167.073l-44.182 58.916h211.233v36.848h-23.46v99.409h23.46v14.757h15.95c8.925 52.863 54.896 93.29 110.278 93.29s101.331-40.426 110.256-93.29h251.438c8.881 52.863 54.852 93.29 110.233 93.29 55.36 0 101.353-40.426 110.256-93.29h78.533v-14.757h25.824v-99.409h-25.802zM337.46 756.237c-32.672 0-59.292-26.619-59.292-59.336 0-32.672 26.597-59.27 59.292-59.27 32.672 0 59.27 26.575 59.27 59.27 0 32.717-26.597 59.336-59.27 59.336zM809.409 756.237c-32.672 0-59.314-26.619-59.314-59.336 0-32.672 26.619-59.27 59.314-59.27s59.27 26.575 59.27 59.27c-0.022 32.717-26.597 59.336-59.27 59.336zM754.536 474.401v-134.18h112.398l40.868 134.18h-153.266z"></path></g>
</svg>