<svg width="1024" height="1024" viewBox="0 0 20 20" fill="none" xmlns="http://www.w3.org/2000/svg">
<path d="M18.549 4.60941H12.366L14.5615 1.00703C14.7519 0.694716 14.653 0.287212 14.3407 0.096881C14.0284 -0.0935381 13.6209 0.00540214 13.4305 0.317719L10.8149 4.60941H9.1851L6.56952 0.317719C6.37919 0.00549044 5.97169 -0.0934056 5.65937 0.096881C5.34705 0.287256 5.24816 0.694716 5.43853 1.00703L7.63402 4.60941H1.45099C0.650904 4.60941 0 5.26031 0 6.06036V18.037C0 18.837 0.650904 19.4879 1.45099 19.4879H18.549C19.3491 19.4879 20 18.837 20 18.037V6.06036C20 5.26031 19.3491 4.60941 18.549 4.60941ZM14.0254 16.2963C14.0254 16.7319 13.6723 17.0851 13.2367 17.0851H3.14295C2.70737 17.085 2.35426 16.7319 2.35426 16.2963V7.80106C2.35426 7.36547 2.70737 7.01232 3.143 7.01232H13.2367C13.6723 7.01232 14.0254 7.36547 14.0254 7.80106V16.2963ZM16.9444 16.0443C16.1898 16.0443 15.5758 15.4303 15.5758 14.6756C15.5758 13.9209 16.1898 13.307 16.9444 13.307C17.6991 13.307 18.3131 13.9209 18.3131 14.6756C18.3131 15.4303 17.6991 16.0443 16.9444 16.0443ZM16.9444 10.7904C16.1898 10.7904 15.5758 10.1765 15.5758 9.42176C15.5758 8.66706 16.1898 8.05311 16.9444 8.05311C17.6991 8.05311 18.3131 8.66706 18.3131 9.42176C18.3131 10.1765 17.6991 10.7904 16.9444 10.7904Z" fill="#707070"/>
</svg>
