<?xml version="1.0" encoding="utf-8"?>
<!-- Generator: Adobe Illustrator 17.0.0, SVG Export Plug-In . SVG Version: 6.00 Build 0)  -->
<!DOCTYPE svg PUBLIC "-//W3C//DTD SVG 1.1//EN" "http://www.w3.org/Graphics/SVG/1.1/DTD/svg11.dtd">
<svg version="1.1" id="Layer_1" xmlns="http://www.w3.org/2000/svg" xmlns:xlink="http://www.w3.org/1999/xlink" x="0px" y="0px"
	 width="1024px" height="1024px" viewBox="0 0 1025 1024" enable-background="new 0 0 1025 1024" xml:space="preserve">
<g><path d="M819.2 388.267c0 209.067-157.867 448-448 448-89.6 0-170.667-25.6-243.2-72.533 12.8 0 25.6 0 38.4 0 72.533 0 140.8-25.6 196.267-68.267-68.267 0-128-46.933-145.067-110.933 8.533 0 21.333 4.267 29.867 4.267 12.8 0 29.867 0 42.667-4.267-76.8-8.533-132.267-72.533-132.267-149.333 21.333 12.8 46.933 17.067 72.533 21.333-42.667-29.867-68.267-76.8-68.267-132.267 0-29.867 8.533-55.467 21.333-81.067 76.8 93.867 192 157.867 324.267 166.4-4.267-12.8-4.267-25.6-4.267-38.4 0-85.333 68.267-157.867 157.867-157.867 46.933 0 85.333 17.067 115.2 51.2 34.133-8.533 68.267-21.333 98.133-38.4-12.8 38.4-38.4 68.267-68.267 85.333 29.867-4.267 59.733-12.8 89.6-25.6-21.333 29.867-46.933 59.733-81.067 81.067 4.267 8.533 4.267 17.067 4.267 21.333z"></path></g>
</svg>
