<svg width="1024" height="1024" xmlns="http://www.w3.org/2000/svg">

<g><path d="M430.060 142.1l-177.94 177.9h-204.12c-26.52 0-48 21.48-48 48v288c0 26.5 21.48 48 48 48h204.12l177.94 177.9c30.060 30.060 81.94 8.94 81.94-33.94v-671.92c0-42.92-51.92-63.96-81.94-33.94zM960 512c0-127.060-64.12-243.88-171.54-312.48-22.38-14.28-52.060-7.64-66.24 14.92s-7.56 52.42 14.82 66.72c79.5 50.78 126.96 137.060 126.96 230.84s-47.46 180.060-126.96 230.84c-22.38 14.28-29 44.14-14.82 66.72 13.020 20.72 42.24 30.28 66.24 14.92 107.42-68.6 171.54-185.42 171.54-312.48zM676.46 358.26c-23.16-12.66-52.38-4.32-65.22 18.9-12.78 23.22-4.32 52.4 18.9 65.22 25.82 14.18 41.86 40.88 41.86 69.62 0 28.76-16.040 55.44-41.84 69.62-23.22 12.82-31.68 42-18.9 65.22 12.86 23.32 42.1 31.6 65.22 18.9 56.46-31.1 91.54-90 91.54-153.76s-35.080-122.64-91.56-153.72z"></path></g>
</svg>