<?xml version="1.0" encoding="utf-8"?>
<!-- Generator: Adobe Illustrator 17.0.0, SVG Export Plug-In . SVG Version: 6.00 Build 0)  -->
<!DOCTYPE svg PUBLIC "-//W3C//DTD SVG 1.1//EN" "http://www.w3.org/Graphics/SVG/1.1/DTD/svg11.dtd">
<svg version="1.1" id="Layer_1" xmlns="http://www.w3.org/2000/svg" xmlns:xlink="http://www.w3.org/1999/xlink" x="0px" y="0px"
	 width="1024px" height="1024px" viewBox="0 0 1025 1024" enable-background="new 0 0 1025 1024" xml:space="preserve">
<g><path d="M947.2 307.2v384c0 29.867-21.333 46.933-46.933 46.933-8.533 0-17.067-4.267-25.6-8.533l-166.4-106.667v89.6c0 38.4-34.133 72.533-76.8 72.533h-469.333c-42.667 0-76.8-34.133-76.8-72.533v-426.667c0-38.4 34.133-72.533 76.8-72.533h469.333c42.667 0 76.8 34.133 76.8 72.533v89.6l166.4-106.667c8.533-4.267 17.067-8.533 25.6-8.533 25.6 0 51.2 21.333 46.933 46.933zM661.333 285.867c0-12.8-12.8-25.6-29.867-25.6h-469.333c-17.067 0-29.867 12.8-29.867 25.6v430.933c0 12.8 12.8 25.6 29.867 25.6h469.333c17.067 0 29.867-12.8 29.867-25.6v-430.933zM900.267 311.467l-192 123.733v140.8l192 119.467v-384z"></path></g>
</svg>
