<?xml version="1.0" encoding="utf-8"?>
<!-- Generator: Adobe Illustrator 17.0.0, SVG Export Plug-In . SVG Version: 6.00 Build 0)  -->
<!DOCTYPE svg PUBLIC "-//W3C//DTD SVG 1.1//EN" "http://www.w3.org/Graphics/SVG/1.1/DTD/svg11.dtd">
<svg version="1.1" id="Layer_1" xmlns="http://www.w3.org/2000/svg" xmlns:xlink="http://www.w3.org/1999/xlink" x="0px" y="0px"
	 width="1025px" height="1024px" viewBox="0 0 1025 1024" enable-background="new 0 0 1025 1024" xml:space="preserve">
<g>
	<path  d="M918.935 830.398h-184.93c-33.734 0-65.5-13.124-89.453-36.969l-64.267-64.265c-12.367-12.431-29.444-19.509-46.953-19.509-17.515 0-34.594 7.078-46.859 19.407l-64.314 64.314c-24 23.898-55.765 37.022-89.5 37.022h-184.929c-68.703 0-126.399-55.531-126.399-126.398v-385.602c0-70.586 57.437-126.398 126.399-126.398h771.204c68.702 0 126.398 55.539 126.398 126.398v385.602c0 70.594-57.438 126.398-126.398 126.398zM533.333 649.655c33.367 0 65.946 13.523 89.391 37.086l64.218 64.228c12.572 12.508 29.297 19.428 47.063 19.428h184.93c36.077 0 66.398-29.203 66.398-66.398v-385.602c0-37.21-30.345-66.398-66.398-66.398h-771.204c-36.078 0-66.399 29.203-66.399 66.398v385.602c0 37.218 30.344 66.398 66.399 66.398h184.929c17.758 0 34.492-6.921 47.117-19.492l64.267-64.258c23.343-23.469 55.921-36.992 89.289-36.992z"></path>
	<path  d="M308.397 637.602c-69.696 0-126.399-56.704-126.399-126.4 0-69.694 56.703-126.404 126.399-126.404 69.702 0 126.404 56.71 126.404 126.404 0 69.696-56.702 126.4-126.404 126.4zM308.397 444.798c-36.61 0-66.4 29.788-66.4 66.404 0 36.61 29.79 66.4 66.4 66.4 36.617 0 66.404-29.79 66.404-66.4 0-36.617-29.788-66.404-66.404-66.404z"></path>
	<path  d="M758.27 637.602c-69.702 0-126.404-56.704-126.404-126.4 0-69.694 56.702-126.404 126.404-126.404 69.696 0 126.4 56.71 126.4 126.404 0 69.696-56.704 126.4-126.4 126.4zM758.27 444.798c-36.617 0-66.404 29.788-66.404 66.404 0 36.61 29.788 66.4 66.404 66.4 36.61 0 66.4-29.79 66.4-66.4 0-36.617-29.79-66.404-66.4-66.404z"></path>
</g>
</svg>
