<?xml version="1.0" encoding="utf-8"?>
<!-- Generator: Adobe Illustrator 17.0.0, SVG Export Plug-In . SVG Version: 6.00 Build 0)  -->
<!DOCTYPE svg PUBLIC "-//W3C//DTD SVG 1.1//EN" "http://www.w3.org/Graphics/SVG/1.1/DTD/svg11.dtd">
<svg version="1.1" id="Layer_1" xmlns="http://www.w3.org/2000/svg" xmlns:xlink="http://www.w3.org/1999/xlink" x="0px" y="0px"
	 width="1025px" height="1024px" viewBox="0 0 1025 1024" enable-background="new 0 0 1025 1024" xml:space="preserve">
<g>
	<path d="M93.091 651.636h279.273v279.273h-279.273v-279.273zM0 1024h465.455v-465.455h-465.455l0 465.455z"></path>
	<path d="M93.091 93.091h279.273v279.273h-279.273v-279.273zM0 465.455h465.455v-465.455l-465.455 0 0 465.455z"></path>
	<path d="M651.636 93.091h279.273v279.273h-279.273v-279.273zM558.545 465.455h465.455v-465.455l-465.455 0v465.455z"></path>
	<path d="M930.909 791.273c0 77.121-62.515 139.636-139.636 139.636s-139.636-62.515-139.636-139.636c0-77.121 62.515-139.636 139.636-139.636s139.636 62.515 139.636 139.636zM1024 791.273c0-128.531-104.197-232.727-232.727-232.727s-232.727 104.197-232.727 232.727c0 128.531 104.197 232.727 232.727 232.727s232.727-104.197 232.727-232.727z"></path>
</g>
</svg>
