<?xml version="1.0" encoding="utf-8"?>
<!-- Generator: Adobe Illustrator 17.0.0, SVG Export Plug-In . SVG Version: 6.00 Build 0)  -->
<!DOCTYPE svg PUBLIC "-//W3C//DTD SVG 1.1//EN" "http://www.w3.org/Graphics/SVG/1.1/DTD/svg11.dtd">
<svg version="1.1" id="Layer_1" xmlns="http://www.w3.org/2000/svg" xmlns:xlink="http://www.w3.org/1999/xlink" x="0px" y="0px"
	 width="1024px" height="1024px" viewBox="0 0 1025 1024" enable-background="new 0 0 1025 1024" xml:space="preserve">
<g><path d="M871.548 518.447l-322.667 326.528c-10.667 10.449-24 15.676-37.333 15.676s-26.667-5.227-37.333-15.676l-322.665-326.528c-93.333-94.043-88-250.777 16-339.594 106.667-88.816 242.667-47.020 311.998 20.898l32 33.959 32-33.959c85.333-86.204 221.333-96.653 312-20.898 104 88.817 109.333 245.551 16 339.594zM820.881 218.037c-90.667-75.755-200-20.898-237.333 18.286l-72 73.143-72-73.143c-39.998-39.183-146.665-94.041-237.332-18.286s-77.333 198.531-13.333 263.836l322.665 326.532 320-326.532c66.667-65.306 80-188.081-10.667-263.836z"></path></g>
</svg>
