<?xml version="1.0" encoding="utf-8"?>
<!-- Generator: Adobe Illustrator 17.0.0, SVG Export Plug-In . SVG Version: 6.00 Build 0)  -->
<!DOCTYPE svg PUBLIC "-//W3C//DTD SVG 1.1//EN" "http://www.w3.org/Graphics/SVG/1.1/DTD/svg11.dtd">
<svg version="1.1" id="Layer_1" xmlns="http://www.w3.org/2000/svg" xmlns:xlink="http://www.w3.org/1999/xlink" x="0px" y="0px"
	 width="1024px" height="1024px" viewBox="0 0 1025 1024" enable-background="new 0 0 1025 1024" xml:space="preserve">
<g><path d="M904.533 503.467c0 0 0 132.267-17.067 200.533-8.533 34.133-38.4 64-72.533 72.533-64 17.067-320 17.067-320 17.067s-256 0-320-17.067c-34.133-8.533-64-34.133-72.533-72.533-17.067-68.267-17.067-200.533-17.067-200.533s0-132.267 17.067-200.533c8.533-34.133 38.4-64 72.533-72.533 64-17.067 320-17.067 320-17.067s256 0 320 17.067c34.133 8.533 64 38.4 72.533 72.533 17.067 64 17.067 200.533 17.067 200.533zM627.2 503.467l-213.333-123.733v243.2l213.333-119.467z"></path></g>
</svg>
