<?xml version="1.0" encoding="utf-8"?>
<!-- Generator: Adobe Illustrator 17.0.0, SVG Export Plug-In . SVG Version: 6.00 Build 0)  -->
<!DOCTYPE svg PUBLIC "-//W3C//DTD SVG 1.1//EN" "http://www.w3.org/Graphics/SVG/1.1/DTD/svg11.dtd">
<svg version="1.1" id="Layer_1" xmlns="http://www.w3.org/2000/svg" xmlns:xlink="http://www.w3.org/1999/xlink" x="0px" y="0px"
	 width="1025px" height="1024px" viewBox="0 0 1025 1024" enable-background="new 0 0 1025 1024" xml:space="preserve">
<g>
	<path d="m459.68765,583.65155l-71.65156,0c-52.54448,0 -100.31219,-47.76771 -100.31219,-100.31219c0,-19.10708 14.33031,-38.21417 38.21417,-38.21417s38.21417,14.33031 38.21417,38.21417c0,19.10708 14.33031,28.66063 28.66063,28.66063l71.65156,0c9.55354,0 19.10708,-9.55354 19.10708,-23.88385c0,-14.33031 -4.77677,-19.10708 -14.33031,-23.88385l-114.6425,-38.21417c-42.99094,-9.55354 -62.09802,-38.21417 -62.09802,-85.98188c0,-52.54448 42.99094,-95.53542 90.75865,-95.53542l71.65156,0c57.32125,0 100.31219,47.76771 100.31219,100.31219c0,19.10708 -14.33031,38.21417 -38.21417,38.21417s-33.4374,-14.33031 -33.4374,-33.4374c0,-19.10708 -14.33031,-28.66063 -28.66063,-28.66063l-71.65156,0c-14.33031,0 -19.10708,9.55354 -19.10708,19.10708c0,14.33031 4.77677,19.10708 14.33031,23.88385l114.6425,38.21417c42.99094,14.33031 62.09802,42.99094 62.09802,90.75865c-4.77677,52.54448 -42.99094,90.75865 -95.53542,90.75865z" class="st0"/>
	<path d="m421.47348,621.86572c-19.10708,0 -38.21417,-14.33031 -38.21417,-38.21417l0,-33.4374c0,-19.10708 14.33031,-38.21417 38.21417,-38.21417s38.21417,14.33031 38.21417,38.21417l0,33.4374c0,23.88385 -19.10708,38.21417 -38.21417,38.21417z" class="st0"/>
	<path d="m421.47348,316.15238c-19.10708,0 -38.21417,-14.33031 -38.21417,-38.21417l0,-33.4374c4.77677,-19.10708 19.10708,-33.4374 38.21417,-33.4374s38.21417,14.33031 38.21417,38.21417l0,38.21417c0,14.33031 -19.10708,28.66063 -38.21417,28.66063z" class="st0"/>
	<path d="m421.47348,832.04364c-229.285,0 -415.57907,-186.29407 -415.57907,-415.57907s186.29407,-415.57907 415.57907,-415.57907s415.57907,186.29407 415.57907,415.57907s-186.29407,415.57907 -415.57907,415.57907zm0,-759.50657c-191.07084,0 -343.92751,152.85667 -343.92751,343.92751s152.85667,343.92751 343.92751,343.92751s343.92751,-152.85667 343.92751,-343.92751s-152.85667,-343.92751 -343.92751,-343.92751z" class="st0"/>
	<path d="m755.84744,1023.11447c-85.98188,0 -171.96375,-42.99094 -224.50823,-114.6425c-9.55354,-14.33031 -9.55354,-38.21417 9.55354,-47.76771c14.33031,-9.55354 38.21417,-9.55354 47.76771,9.55354c38.21417,52.54448 100.31219,85.98188 162.41021,85.98188c109.86573,0 200.62438,-90.75865 200.62438,-200.62438c0,-62.09802 -33.4374,-124.19604 -85.98188,-162.41021c-14.33031,-9.55354 -19.10708,-33.4374 -9.55354,-47.76771c9.55354,-14.33031 33.4374,-19.10708 47.76771,-9.55354c71.65156,52.54448 114.6425,133.74959 114.6425,219.73146c9.55354,148.0799 -109.86573,267.49917 -262.7224,267.49917z" class="st0"/>
</g>
</svg>
