<svg xmlns="http://www.w3.org/2000/svg" xmlns:v="https://vecta.io/nano" fill-rule="evenodd" height="512" stroke-linejoin="round" stroke-miterlimit="2" viewBox="0 0 64 64" width="512"><g fill="#feb62c"><path d="M8 26H6a2 2 0 0 0-2 2v4a2 2 0 0 0 2 2h2z"/><path d="M44 12l-8.704 5.44a30 30 0 0 1-15.9 4.56H10a2 2 0 0 0-2 2v12a2 2 0 0 0 2 2h9.396a30 30 0 0 1 15.9 4.56L44 48z"/></g><path d="M16 22h-6a2 2 0 0 0-2 2v12a2 2 0 0 0 2 2h6zm32-10.002a2 2 0 1 0-4 0v36.004A2 2 0 0 0 45.998 50h.004A2 2 0 0 0 48 48.002V11.998z" fill="#ff3d65"/><path d="M52 29.236a2 2 0 0 0-1.106-1.789L48 26v8l2.894-1.447A2 2 0 0 0 52 30.764v-1.528z" fill="#feb62c"/><path d="M12 38l1.657 1.657A8 8 0 0 1 16 45.314V52a2 2 0 0 0 2 2h2a2 2 0 0 0 2-2V38.113L19.396 38z" fill="#5b6f87"/><path d="M56 31h4a1 1 0 1 0 0-2h-4a1 1 0 1 0 0 2zm-1.585 3.863l3.464 2a1 1 0 1 0 1-1.732l-3.464-2a1 1 0 1 0-1 1.732zm-3.278 2.552l2 3.464a1 1 0 1 0 1.732-1l-2-3.464a1 1 0 1 0-1.732 1zm4.278-10.552l3.464-2a1 1 0 1 0-1-1.732l-3.464 2a1 1 0 1 0 1 1.732z"/><path d="M52.863 23.585l2-3.464a1 1 0 1 0-1.732-1l-2 3.464a1 1 0 1 0 1.732 1zM46.002 9h-.004a3 3 0 0 0-2.94 2.41l-8.292 5.182C30.157 19.473 24.831 21 19.396 21H10c-.796 0-1.559.316-2.121.879A3 3 0 0 0 7 24v1H6a3 3 0 0 0-3 3v4a3 3 0 0 0 3 3h1v1c0 .796.316 1.559.879 2.121A3 3 0 0 0 10 39h1.586l1.364 1.364a7 7 0 0 1 2.05 4.95V52a3 3 0 0 0 3 3h2c.796 0 1.559-.316 2.121-.879A3 3 0 0 0 23 52V39.225a28.99 28.99 0 0 1 11.766 4.183l8.292 5.182a3 3 0 0 0 2.94 2.41h.004A3 3 0 0 0 49 48.002V34.618l2.342-1.171A3 3 0 0 0 53 30.764v-1.528a3 3 0 0 0-1.658-2.683L49 25.382V11.998A3 3 0 0 0 46.002 9zM14.414 39A9 9 0 0 1 17 45.314V52a1 1 0 0 0 1 1h2c.265 0 .52-.105.707-.293S21 52.265 21 52V39.044A29.53 29.53 0 0 0 19.396 39zm31.588-28h-.004a1 1 0 0 0-.998.998V20a1 1 0 1 1-2 0v-6.196l-7.174 4.484C30.899 21.367 25.206 23 19.396 23H17v14h2.396c5.81 0 11.503 1.633 16.43 4.712L43 46.196V24a1 1 0 1 1 2 0v24.002a1 1 0 0 0 .998.998h.004a1 1 0 0 0 .998-.998V11.998a1 1 0 0 0-.998-.998zM15 23h-5c-.265 0-.52.105-.707.293S9 23.735 9 24v12c0 .265.105.52.293.707S9.735 37 10 37h5zm-8 4v6H6a1 1 0 0 1-1-1v-4a1 1 0 0 1 1-1zm42 .618l1.447.724a1 1 0 0 1 .553.894v1.528a1 1 0 0 1-.553.894L49 32.382z"/><path d="M51.137 37.415l2 3.464a1 1 0 1 0 1.732-1l-2-3.464a1 1 0 1 0-1.732 1zm1.726-13.83l2-3.464a1 1 0 1 0-1.732-1l-2 3.464a1 1 0 1 0 1.732 1z"/></svg>