<svg xmlns="http://www.w3.org/2000/svg" viewBox="0 0 40 40"><path fill="#8bb7f0" d="M20 23.293L8 35.293 4.707 32 16.707 20 4.707 8 8 4.707 20 16.707 32 4.707 35.293 8 23.293 20 35.293 32 32 35.293z"/><path fill="#4e7ab5" d="M32,5.414L34.586,8L23.293,19.293L22.586,20l0.707,0.707L34.586,32L32,34.586L20.707,23.293 L20,22.586l-0.707,0.707L8,34.586L5.414,32l11.293-11.293L17.414,20l-0.707-0.707L5.414,8L8,5.414l11.293,11.293L20,17.414 l0.707-0.707L32,5.414 M32,4L20,16L8,4L4,8l12,12L4,32l4,4l12-12l12,12l4-4L24,20L36,8L32,4L32,4z"/></svg>