<svg width="166" height="76" viewBox="0 0 172 76" xmlns="http://www.w3.org/2000/svg"><g id="svgGroup" stroke-linecap="round" fill-rule="evenodd" font-size="9pt" stroke="#8bb7f0" stroke-width="0.25mm" fill="#8bb7f0" style="stroke:#8bb7f0;stroke-width:0.25mm;fill:#8bb7f0"><path d="M 0 69.3 L 4.8 61.3 Q 8.4 64.3 12.9 66.2 A 23.348 23.348 0 0 0 18.27 67.71 A 32.118 32.118 0 0 0 23.4 68.1 A 27.981 27.981 0 0 0 27.947 67.754 Q 30.37 67.354 32.331 66.494 A 13.701 13.701 0 0 0 34.8 65.1 Q 38.848 62.209 38.995 57.366 A 12.116 12.116 0 0 0 39 57 A 11.94 11.94 0 0 0 38.663 54.108 A 9.816 9.816 0 0 0 37.8 51.85 A 8.097 8.097 0 0 0 36.6 50.194 Q 35.33 48.813 33.184 47.472 A 25.81 25.81 0 0 0 33.15 47.45 Q 30.034 45.508 24.265 43.281 A 118.584 118.584 0 0 0 23 42.8 Q 15.8 40 11.5 37.15 A 21.931 21.931 0 0 1 8.411 34.703 Q 6.694 33.053 5.638 31.188 A 13.303 13.303 0 0 1 5.35 30.65 Q 3.5 27 3.5 22 Q 3.5 17 6.25 12.95 Q 9 8.9 14.35 6.45 A 25.558 25.558 0 0 1 20.25 4.615 Q 23.493 4 27.3 4 Q 33.5 4 38.45 5.25 Q 43.4 6.5 48.1 8.8 L 44.6 16.9 A 31.496 31.496 0 0 0 40.474 14.882 A 41.686 41.686 0 0 0 36.65 13.55 Q 32.1 12.2 27.1 12.2 A 27.187 27.187 0 0 0 23.07 12.48 Q 20.938 12.801 19.2 13.487 A 12.616 12.616 0 0 0 16.7 14.8 A 9.902 9.902 0 0 0 14.537 16.765 A 7.359 7.359 0 0 0 12.9 21.5 A 10.464 10.464 0 0 0 13.192 24.022 A 8.562 8.562 0 0 0 14 26.1 Q 15.056 28.02 18.091 29.847 A 23.503 23.503 0 0 0 18.35 30 A 33.003 33.003 0 0 0 20.566 31.173 Q 22.835 32.275 26.046 33.523 A 130.016 130.016 0 0 0 28.1 34.3 A 81.228 81.228 0 0 1 33.078 36.33 Q 37.464 38.3 40.45 40.4 A 26.044 26.044 0 0 1 43.49 42.878 Q 45.713 45.007 46.9 47.35 A 17.579 17.579 0 0 1 48.641 53.213 A 22.155 22.155 0 0 1 48.8 55.9 A 21.71 21.71 0 0 1 48.133 61.401 A 17.105 17.105 0 0 1 45.55 67 Q 42.3 71.6 36.55 74 A 30.521 30.521 0 0 1 29.14 76.004 A 40.027 40.027 0 0 1 23.4 76.4 Q 16.1 76.4 10.1 74.45 A 38.206 38.206 0 0 1 4.733 72.268 A 28.433 28.433 0 0 1 0 69.3 Z M 62.8 75 L 62.8 5.4 Q 67.5 4.9 72 4.65 A 151.31 151.31 0 0 1 76.186 4.479 Q 79.038 4.4 82.3 4.4 A 48.608 48.608 0 0 1 89.644 4.927 Q 93.578 5.528 96.91 6.818 A 29.198 29.198 0 0 1 97.85 7.2 A 30.978 30.978 0 0 1 105.139 11.521 A 27.223 27.223 0 0 1 108.65 14.9 Q 112.9 19.8 114.95 26.25 A 44.256 44.256 0 0 1 116.922 37.246 A 51.506 51.506 0 0 1 117 40.1 A 45.309 45.309 0 0 1 115.519 51.798 A 41.802 41.802 0 0 1 114.9 53.9 Q 112.8 60.4 108.45 65.35 Q 104.1 70.3 97.35 73.15 Q 91.075 75.8 82.509 75.986 A 60.192 60.192 0 0 1 81.2 76 A 186.98 186.98 0 0 1 77.129 75.958 Q 75.115 75.914 73.322 75.825 A 101.5 101.5 0 0 1 71.25 75.7 Q 67 75.4 62.8 75 Z M 146.4 54.5 L 138.6 54.5 Q 138.1 52.8 137.85 50.8 Q 137.6 48.8 137.6 47.1 Q 137.6 42.692 139.019 39.517 A 12.998 12.998 0 0 1 139.5 38.55 Q 141.4 35.1 144.2 32.55 A 102.193 102.193 0 0 1 149.1 28.356 A 93.203 93.203 0 0 1 149.8 27.8 A 26.994 26.994 0 0 0 152.948 24.914 A 22.845 22.845 0 0 0 154.5 23.05 Q 156.4 20.5 156.4 17 A 8.241 8.241 0 0 0 154.105 11.27 A 11.006 11.006 0 0 0 153.7 10.85 A 9.012 9.012 0 0 0 149.152 8.472 A 13.221 13.221 0 0 0 146.4 8.2 A 14.436 14.436 0 0 0 141.141 9.146 A 13.602 13.602 0 0 0 139 10.2 A 20.638 20.638 0 0 0 134.836 13.565 A 25.722 25.722 0 0 0 133 15.7 L 126.5 10.5 A 34.396 34.396 0 0 1 131.709 5.308 A 29.133 29.133 0 0 1 135.4 2.8 A 20.688 20.688 0 0 1 141.876 0.471 A 28.67 28.67 0 0 1 147.2 0 A 24.161 24.161 0 0 1 152.385 0.533 A 18.912 18.912 0 0 1 157.05 2.2 A 18.017 18.017 0 0 1 161.634 5.53 A 16.193 16.193 0 0 1 163.7 8.1 Q 166.1 11.8 166.1 16.3 Q 166.1 21.4 164.1 24.8 Q 162.1 28.2 159.2 30.75 Q 156.3 33.3 153.35 35.75 Q 150.4 38.2 148.4 41.25 A 11.744 11.744 0 0 0 146.783 45.172 Q 146.4 46.888 146.4 48.9 L 146.4 54.5 Z M 72.3 13.1 L 72.3 67.2 Q 74.4 67.5 76.7 67.6 A 107.265 107.265 0 0 0 80.263 67.694 A 121.297 121.297 0 0 0 81.5 67.7 A 37.906 37.906 0 0 0 87.664 67.228 Q 92.593 66.415 96.2 64.2 Q 101.9 60.7 104.6 54.45 A 32.292 32.292 0 0 0 106.854 46.376 A 42.502 42.502 0 0 0 107.3 40.1 Q 107.3 32.9 104.6 26.6 Q 101.9 20.3 96.3 16.45 A 20.895 20.895 0 0 0 89.248 13.391 Q 86.407 12.712 83.096 12.616 A 38.008 38.008 0 0 0 82 12.6 Q 79.1 12.6 76.7 12.75 Q 74.3 12.9 72.3 13.1 Z M 138.363 74.462 A 6.418 6.418 0 0 0 143 76.4 A 8.605 8.605 0 0 0 143.622 76.378 A 6.461 6.461 0 0 0 147.8 74.55 Q 149.7 72.7 149.7 69.7 A 6.225 6.225 0 0 0 149.121 67.029 A 6.955 6.955 0 0 0 147.65 65 Q 145.6 63 143 63 A 8.813 8.813 0 0 0 141.147 63.185 A 5.979 5.979 0 0 0 138.1 64.8 A 5.927 5.927 0 0 0 136.532 67.64 A 8.624 8.624 0 0 0 136.3 69.7 Q 136.3 72.4 138.3 74.4 A 8.317 8.317 0 0 0 138.363 74.462 Z" vector-effect="non-scaling-stroke"/></g></svg>