<svg width="35" height="21" viewBox="0 0 40 21" xmlns="http://www.w3.org/2000/svg"><g id="svgGroup" stroke-linecap="round" fill-rule="evenodd" font-size="9pt" stroke="#8bb7f0" stroke-width="0.15mm" fill="#8bb7f0" style="stroke:#8bb7f0;stroke-width:0.15mm;fill:#8bb7f0"><path d="M 0 19.59 L 1.44 17.19 Q 2.52 18.09 3.87 18.66 A 7.005 7.005 0 0 0 5.481 19.113 A 9.635 9.635 0 0 0 7.02 19.23 A 8.394 8.394 0 0 0 8.384 19.126 Q 9.608 18.924 10.44 18.33 A 3.084 3.084 0 0 0 11.279 17.459 Q 11.674 16.827 11.698 16.01 A 3.634 3.634 0 0 0 11.7 15.9 A 3.582 3.582 0 0 0 11.599 15.032 A 2.945 2.945 0 0 0 11.34 14.355 Q 10.982 13.683 9.955 13.041 A 7.652 7.652 0 0 0 9.945 13.035 A 9.631 9.631 0 0 0 9.203 12.622 Q 8.411 12.221 7.28 11.784 A 35.577 35.577 0 0 0 6.9 11.64 A 27.124 27.124 0 0 1 5.518 11.061 Q 4.84 10.753 4.278 10.444 A 11.849 11.849 0 0 1 3.45 9.945 A 6.579 6.579 0 0 1 2.523 9.211 Q 2.008 8.716 1.691 8.156 A 3.991 3.991 0 0 1 1.605 7.995 A 5 5 0 0 1 1.149 6.594 A 6.878 6.878 0 0 1 1.05 5.4 Q 1.05 3.9 1.875 2.685 A 5.153 5.153 0 0 1 3.211 1.354 A 7.016 7.016 0 0 1 4.305 0.735 A 7.667 7.667 0 0 1 6.075 0.185 Q 6.865 0.035 7.768 0.007 A 13.568 13.568 0 0 1 8.19 0 A 15.869 15.869 0 0 1 9.956 0.094 A 11.831 11.831 0 0 1 11.535 0.375 Q 13.02 0.75 14.43 1.44 L 13.38 3.87 A 9.449 9.449 0 0 0 12.142 3.264 A 12.506 12.506 0 0 0 10.995 2.865 A 10.02 10.02 0 0 0 8.13 2.46 A 8.156 8.156 0 0 0 6.921 2.544 Q 5.776 2.716 5.01 3.24 A 2.97 2.97 0 0 0 4.361 3.829 A 2.208 2.208 0 0 0 3.87 5.25 Q 3.87 6.03 4.2 6.63 A 2.073 2.073 0 0 0 4.52 7.057 Q 4.858 7.411 5.427 7.754 A 7.05 7.05 0 0 0 5.505 7.8 A 9.901 9.901 0 0 0 6.17 8.152 Q 6.851 8.483 7.814 8.857 A 39.004 39.004 0 0 0 8.43 9.09 Q 10.77 9.96 12.135 10.92 Q 13.5 11.88 14.07 13.005 A 5.274 5.274 0 0 1 14.592 14.764 A 6.647 6.647 0 0 1 14.64 15.57 A 6.513 6.513 0 0 1 14.44 17.22 A 5.131 5.131 0 0 1 13.665 18.9 A 5.885 5.885 0 0 1 11.586 20.707 A 7.307 7.307 0 0 1 10.965 21 A 9.156 9.156 0 0 1 8.742 21.601 A 12.008 12.008 0 0 1 7.02 21.72 A 14.21 14.21 0 0 1 4.687 21.536 A 11.415 11.415 0 0 1 3.03 21.135 A 11.462 11.462 0 0 1 1.42 20.48 A 8.53 8.53 0 0 1 0 19.59 Z M 18.84 21.3 L 18.84 0.42 Q 20.25 0.27 21.6 0.195 A 45.393 45.393 0 0 1 22.856 0.144 Q 23.711 0.12 24.69 0.12 Q 27.39 0.12 29.355 0.96 Q 31.32 1.8 32.595 3.27 Q 33.87 4.74 34.485 6.675 A 13.277 13.277 0 0 1 35.077 9.974 A 15.452 15.452 0 0 1 35.1 10.83 A 13.593 13.593 0 0 1 34.656 14.339 A 12.54 12.54 0 0 1 34.47 14.97 Q 33.84 16.92 32.535 18.405 A 8.691 8.691 0 0 1 30.058 20.34 A 10.577 10.577 0 0 1 29.205 20.745 A 10.307 10.307 0 0 1 26.981 21.386 Q 25.77 21.6 24.36 21.6 A 56.093 56.093 0 0 1 23.139 21.587 Q 22.534 21.574 21.997 21.547 A 30.449 30.449 0 0 1 21.375 21.51 Q 20.1 21.42 18.84 21.3 Z M 21.69 2.73 L 21.69 18.96 Q 22.32 19.05 23.01 19.08 Q 23.7 19.11 24.45 19.11 A 11.372 11.372 0 0 0 26.299 18.968 Q 27.304 18.803 28.126 18.443 A 6.009 6.009 0 0 0 28.86 18.06 Q 30.57 17.01 31.38 15.135 A 9.687 9.687 0 0 0 32.056 12.713 A 12.751 12.751 0 0 0 32.19 10.83 A 10.172 10.172 0 0 0 31.38 6.78 Q 30.57 4.89 28.89 3.735 Q 27.21 2.58 24.6 2.58 A 29.47 29.47 0 0 0 23.767 2.591 A 22.259 22.259 0 0 0 23.01 2.625 Q 22.29 2.67 21.69 2.73 Z" vector-effect="non-scaling-stroke"/></g></svg>