<svg width="140" height="140" viewBox="0 0 140 140" fill="none" xmlns="http://www.w3.org/2000/svg">
    <circle cx="70" cy="70" r="70" fill="#6817C5"/>
    <path d="M88.6723 61.4784C85.4672 64.1554 82.4482 66.5381 78.859 69.2571C74.6636 72.4201 70.138 75.6612 65.2044 78.9744C63.1997 80.3128 61.177 81.5433 59.2563 82.8337C48.6388 89.9641 32.5953 97.1305 32.3853 97.2205C32.4093 97.1665 32.4333 97.1065 32.4633 97.0525C32.4693 97.0405 32.4753 97.0285 32.4813 97.0165L67.5151 32.2185C68.6615 30.0938 71.7106 30.0938 72.857 32.2185L88.6783 61.4784H88.6723ZM107.891 97.0225L92.4476 68.4528L91.7033 67.0843C91.6733 67.1143 91.6433 67.1384 91.6133 67.1684C72.6709 85.3905 63.0316 97.6827 69.3698 101.5H105.22C107.519 101.5 108.983 99.0452 107.891 97.0225Z" fill="#FBF9FF"/>
    <path d="M65.2061 78.9751C70.1398 75.6619 74.6653 72.4208 78.8607 69.2578C82.456 66.5389 85.481 64.1501 88.6861 61.4671L88.38 60.939C81.8978 65.6626 77.5343 67.7093 69.8157 71.1544C58.1417 76.3642 51.2994 77.2465 42.1763 79.0831C42.1763 79.0831 33.4254 95.2526 32.375 97.2273C32.375 97.2273 48.5685 90.0128 59.2521 82.8344C61.1728 81.544 63.1954 80.3135 65.2001 78.9751H65.2061Z" fill="#D9D9D9"/>
</svg>
