<svg width="245" height="190" viewBox="0 0 245 190" fill="none" xmlns="http://www.w3.org/2000/svg">
    <g clip-path="url(#clip0_2618_1242)">
        <circle cx="122.5" cy="122.5" r="122.5" fill="white"/>
        <path d="M155.176 107.587C149.567 112.272 144.284 116.442 138.003 121.2C130.661 126.735 122.741 132.407 114.107 138.205C110.599 140.547 107.059 142.701 103.698 144.959C85.1174 157.437 57.0415 169.978 56.6738 170.136C56.7158 170.041 56.7579 169.936 56.8104 169.842C56.8209 169.821 56.8314 169.8 56.8419 169.779L118.151 56.3824C120.157 52.6642 125.493 52.6642 127.499 56.3824L155.187 107.587H155.176ZM188.809 169.789L161.783 119.792L160.48 117.398C160.428 117.45 160.375 117.492 160.323 117.545C127.174 149.433 110.305 170.945 121.397 177.625H184.134C188.157 177.625 190.72 173.329 188.809 169.789Z" fill="#6817C5"/>
        <path opacity="0.6" d="M114.111 138.206C122.745 132.408 130.664 126.736 138.006 121.201C144.298 116.443 149.592 112.262 155.201 107.567L154.665 106.643C143.321 114.909 135.685 118.491 122.177 124.52C101.748 133.637 89.774 135.181 73.8085 138.395C73.8085 138.395 58.4944 166.692 56.6562 170.148C56.6562 170.148 84.9948 157.522 103.691 144.96C107.052 142.702 110.592 140.549 114.1 138.206H114.111Z" fill="#53129E"/>
    </g>
    <defs>
        <clipPath id="clip0_2618_1242">
            <rect width="245" height="190" fill="white"/>
        </clipPath>
    </defs>
</svg>
