<svg width="123" height="140" viewBox="0 0 123 140" fill="none" xmlns="http://www.w3.org/2000/svg">
    <g clip-path="url(#cicde49pga)" fill="#fff">
        <path d="M0 106.073V35.387c.153-.08.308-.155.458-.242 6.761-3.902 13.52-7.806 20.281-11.71L60.773.31c.158-.092.306-.205.46-.31h.086c.164.114.319.238.49.337C80.72 11.262 99.633 22.184 118.546 33.11c1.309.755 2.612 1.517 3.918 2.278v20.158c-.124.14-.236.29-.373.413-2.62 2.324-5.223 4.669-7.869 6.961-9.969 8.641-20.277 16.864-30.845 24.762-13.49 10.08-27.357 19.61-41.688 28.457-3.8 2.345-7.655 4.601-11.48 6.908-.252.152-.463.206-.7.004-.043-.036-.099-.06-.147-.088-9.63-5.563-19.263-11.125-28.895-16.685-.146-.085-.31-.137-.465-.206l-.002.002zm5.67.256v.058c.103.034.206.077.313.102 3.087.764 6.176 1.523 9.264 2.289 8.242 2.042 16.487 4.077 24.724 6.145.674.169 1.222.169 1.748-.289.164-.142.4-.198.548-.414-.158-.043-.283-.079-.407-.11-1.662-.413-3.326-.822-4.987-1.235-9.193-2.276-18.387-4.549-27.576-6.842-.688-.171-1.34-.239-2.03-.047-.522.146-1.061.231-1.595.343h-.001zm39.602 6.076c-.179-.054-.27-.088-.364-.112-5.449-1.352-10.896-2.704-16.345-4.054-4.82-1.195-9.64-2.388-14.462-3.574a1.721 1.721 0 0 0-.718-.03c-.622.119-1.234.279-1.85.427-.095.023-.186.063-.343.117.153.052.232.086.315.106.712.177 1.426.352 2.138.528l24.644 6.105 5.24 1.3c.168.041.33.088.498-.022.383-.252.776-.492 1.249-.789l-.002-.002zm-39.576-4.683-.03.067c.115.072.228.146.345.214.96.555 1.916 1.118 2.882 1.662.235.132.494.234.756.299 7.262 1.805 14.525 3.603 21.79 5.402 2.025.501 4.05 1.008 6.075 1.507.148.036.34.101.454.042.453-.24.882-.523 1.415-.848l-33.687-8.345zm42.503 2.821c-.254-.069-.402-.11-.553-.148l-8.551-2.12c-6.651-1.649-13.302-3.298-19.955-4.945-.137-.035-.292-.074-.422-.044-.735.177-1.467.375-2.2.565l-.01.086c.188.049.374.101.561.146 8.218 2.037 16.433 4.074 24.65 6.108 1.594.395 3.187.788 4.782 1.176.128.03.3.046.404-.015.41-.234.802-.499 1.294-.813v.004zm-26.705-8.023c.006.027.01.054.015.083.124.034.247.071.373.103l22.177 5.497c1.76.437 3.52.876 5.283 1.309.133.032.312.072.414.014.427-.243.835-.524 1.31-.831-.172-.055-.252-.088-.333-.108-2.237-.553-4.472-1.105-6.708-1.66-6.471-1.604-12.942-3.203-19.407-4.823-.638-.16-1.23-.193-1.848.047-.41.16-.849.25-1.274.371l-.002-.002zm32.435 4.301c-.238-.067-.384-.112-.532-.148-5.194-1.289-10.39-2.579-15.585-3.866-3.018-.748-6.035-1.493-9.05-2.244a1.263 1.263 0 0 0-.757.023c-.435.154-.88.271-1.32.408-.146.045-.29.104-.5.182.183.056.29.093.4.12 6.158 1.527 12.317 3.054 18.478 4.579 2.388.591 4.778 1.18 7.166 1.766.121.029.281.081.37.029.429-.251.841-.534 1.33-.851v.002zm-23.062-7.132v.072c.08.027.157.06.238.08 1.577.392 3.156.781 4.735 1.172 6.396 1.585 12.793 3.169 19.19 4.759.24.059.44.058.645-.103.25-.195.527-.353.786-.533.072-.051.128-.121.226-.215-.123-.034-.19-.054-.258-.07-4.75-1.179-9.497-2.356-14.247-3.533-2.975-.737-5.95-1.474-8.927-2.206-.162-.04-.353-.08-.505-.034-.634.185-1.258.405-1.885.61h.002zm4.423-1.47c.005.026.013.05.018.075.094.029.188.06.283.084l17.684 4.386c1.523.376 3.044.755 4.569 1.128.135.032.313.085.413.027.423-.247.832-.523 1.272-.856-.173-.052-.267-.085-.362-.11-5.224-1.296-10.449-2.59-15.672-3.884-1.942-.482-3.883-.966-5.826-1.44-.175-.044-.378-.082-.542-.033-.619.188-1.224.413-1.835.624h-.002zm27.035 2.96c-.202-.059-.31-.095-.42-.122l-2.304-.573c-5.672-1.404-11.346-2.796-17.011-4.225-.734-.186-1.394-.236-2.077.113-.288.148-.607.23-.913.343.155.113.299.156.447.193l16.636 4.125c1.341.332 2.682.664 4.025.986.128.031.299.042.402-.021.39-.238.762-.509 1.216-.819h-.001zm-26.042 16.776-.027-.085-22.775-5.642c.036.09.086.139.146.175 1.083.629 2.166 1.258 3.255 1.88.148.085.317.137.483.177 5.63 1.395 11.263 2.781 16.889 4.192.457.115.823.097 1.2-.187.256-.195.55-.339.825-.507l.004-.003zm7.5-22.78.005.07c.134.039.265.078.399.112 4.16 1.033 8.322 2.066 12.482 3.097 2.247.557 4.497 1.112 6.746 1.664.123.03.285.086.371.036.426-.256.838-.534 1.267-.882-.207-.056-.346-.093-.484-.128l-8.546-2.12-10.055-2.485c-.123-.03-.269-.08-.377-.041-.608.212-1.208.448-1.81.677h.002zm24.021 2.207c-.249-.067-.386-.105-.526-.14-5.53-1.37-11.062-2.734-16.588-4.127-.689-.173-1.314-.22-1.943.143-.186.106-.4.16-.6.243-.098.04-.188.094-.341.171.197.054.32.09.443.121l13.03 3.228c1.635.406 3.268.813 4.903 1.211.13.031.304.05.405-.012.388-.24.754-.516 1.213-.838h.004zm2.696-1.9c-.192-.058-.299-.094-.407-.12-5.252-1.302-10.506-2.598-15.757-3.914-.488-.123-.917-.128-1.362.108-.267.14-.56.23-.837.348-.097.041-.185.101-.337.186.222.06.372.102.521.138 3.66.907 7.322 1.812 10.98 2.719 1.859.46 3.715.922 5.575 1.378.121.031.287.076.373.022.41-.258.797-.548 1.251-.867v.002zm2.69-1.92c-.427-.11-.747-.194-1.067-.274-4.752-1.177-9.503-2.354-14.256-3.527-.15-.036-.33-.081-.461-.032-.563.212-1.112.457-1.752.728.214.063.335.102.458.133l10.607 2.628c1.62.402 3.243.806 4.865 1.2.128.031.304.05.403-.01.386-.244.752-.523 1.204-.844l-.001-.002zm2.638-1.907c-.207-.06-.315-.095-.425-.122l-3.307-.822c-3.49-.865-6.98-1.73-10.469-2.59-.135-.034-.3-.078-.42-.03-.551.215-1.092.464-1.723.738.196.061.288.096.384.119 2.413.6 4.829 1.202 7.242 1.8 2.372.588 4.746 1.174 7.121 1.754.13.033.309.065.406.004.386-.245.748-.526 1.193-.849l-.002-.002zm2.63-1.92c-.182-.055-.274-.088-.37-.111a7338.826 7338.826 0 0 0-12.7-3.147c-.149-.036-.33-.09-.46-.038-.543.215-1.071.465-1.693.74.207.066.312.104.42.13 3.003.747 6.007 1.491 9.01 2.237 1.383.343 2.765.69 4.15 1.028.17.041.344.133.531-.016.335-.269.69-.514 1.112-.822zM67.005 85.48l.02.081c.11.033.218.067.33.094l8.668 2.15c1.145.285 2.29.57 3.436.85.135.032.317.08.412.02.393-.253.76-.545 1.208-.873-.184-.053-.276-.081-.368-.103l-5.275-1.309c-2.136-.53-4.27-1.063-6.408-1.588-.148-.036-.328-.08-.456-.028-.53.216-1.044.466-1.565.706h-.002zm16.651.397c-.178-.058-.28-.096-.385-.123-3.575-.885-7.149-1.768-10.721-2.657a.734.734 0 0 0-.54.047c-.398.2-.805.382-1.207.577-.063.03-.111.092-.196.164 2.157.535 4.264 1.06 6.371 1.582 1.704.422 3.407.844 5.112 1.26.132.033.312.063.407 0 .38-.248.738-.535 1.16-.85zm-9.558-3.722c.195.06.303.099.413.126 3.282.813 6.566 1.613 9.841 2.45.47.12.822.09 1.164-.246.197-.193.451-.324.689-.555-.15-.045-.229-.074-.31-.094-1.227-.306-2.457-.61-3.686-.915-2.024-.501-4.048-1.004-6.074-1.502-.135-.032-.301-.08-.415-.032-.524.227-1.034.487-1.622.768zm14.68-.166c-.205-.06-.324-.1-.443-.128-2.65-.658-5.304-1.316-7.956-1.97-.362-.09-.739-.262-1.088-.224-.352.038-.681.287-1.015.454-.191.098-.407.163-.616.348.131.042.196.065.263.082l5.234 1.297c1.34.332 2.678.667 4.021.993.146.036.346.078.453.01.38-.248.73-.541 1.15-.862h-.002zm-67.477 34.749-.025.061c.045.033.087.07.135.099 1.083.628 2.167 1.258 3.255 1.878.16.091.345.145.525.19 2.039.51 4.079 1.007 6.116 1.528.376.097.69.079 1.005-.158.217-.165.469-.282.702-.426.073-.047.133-.117.241-.213-4.025-.996-7.988-1.979-11.95-2.961l-.004.002zM81.158 78.69l.022.096 3.803.943c1.604.396 3.208.794 4.814 1.186.117.028.28.055.362 0 .374-.256.725-.545 1.156-.875-.344-.086-.591-.151-.84-.212a3420.51 3420.51 0 0 0-7.406-1.839c-.148-.036-.334-.077-.458-.021-.494.221-.97.48-1.453.724v-.002zm12.657-.612-1.352-.34c-2.011-.498-4.021-.998-6.033-1.5-.218-.055-.413-.051-.616.066-.35.2-.716.37-1.073.56-.063.035-.108.102-.189.183 1.267.311 2.482.61 3.697.912 1.327.328 2.653.66 3.98.987.164.042.33.12.494-.01.335-.267.674-.53 1.094-.86l-.002.002zm-5.968-2.823c.148.056.21.085.272.1.53.134 1.062.264 1.592.396 1.674.414 3.35.832 5.027 1.243.131.033.317.08.407.018.373-.256.721-.553 1.154-.894l-1.459-.364c-1.674-.416-3.349-.836-5.025-1.249-.148-.036-.333-.09-.454-.034-.49.225-.963.492-1.512.78l-.002.004zm10.861-1.06c-.084-.052-.118-.085-.158-.094-1.87-.465-3.738-.93-5.608-1.391-.091-.023-.212-.036-.291.004-.482.243-.956.504-1.525.809l1.604.4c1.507.373 3.013.746 4.519 1.121.154.038.297.088.445-.036.319-.267.647-.523 1.01-.815l.004.002zm-4.194-2.494c0 .03.002.06.004.092 1.757.436 3.513.874 5.27 1.304.09.022.222.03.288-.02.363-.27.711-.56 1.084-.86-.085-.046-.108-.066-.135-.073-1.605-.4-3.21-.804-4.817-1.195a.582.582 0 0 0-.37.032c-.448.228-.882.476-1.322.718l-.002.002zm9.038-1.444c-.069-.056-.089-.081-.11-.087-1.352-.338-2.704-.677-4.058-1.01a.437.437 0 0 0-.288.023c-.456.24-.903.493-1.374.755.064.054.09.095.125.104 1.463.364 2.929.728 4.394 1.084.098.023.238 0 .316-.058.331-.25.645-.523.995-.811zm-2.619-2.114.032.1c1.215.3 2.432.6 3.648.896.09.022.222.042.283-.005.359-.274.716-.557 1.091-.916-1.21-.299-2.338-.578-3.468-.854-.065-.016-.152-.023-.206.007-.463.253-.919.512-1.379.772h-.001zm7.444-1.904c-.954-.238-1.792-.449-2.63-.65-.106-.026-.245-.042-.334.005-.452.242-.894.505-1.355.77.056.052.07.079.092.084.962.242 1.927.485 2.891.721.076.018.188.022.24-.02.346-.273.679-.56 1.096-.908v-.002zm2.345-1.991c-.689-.174-1.271-.325-1.855-.464-.108-.025-.247-.052-.334-.007-.457.247-.904.517-1.445.831.863.216 1.613.406 2.363.586.061.014.151 0 .198-.04.341-.28.672-.566 1.073-.908v.002zm-.556-1.453c.62.155 1.132.286 1.646.409.049.013.123 0 .16-.03.348-.29.7-.574 1.066-.925-.44-.112-.799-.208-1.161-.29-.094-.022-.216-.04-.292.003-.447.249-.885.517-1.417.833h-.002zm5.143-2.506c-.458-.198-.577-.236-.737-.144-.431.247-.853.514-1.367.826.366.092.626.162.887.22.063.014.157.01.2-.026.337-.28.667-.571 1.017-.876zm-85.116 61.222-.997-.227-.033.084c.168.099.34.193.502.301.203.134.337.038.528-.157v-.001zm86.969-62.851-.051-.085-.829.525c.463.135.597-.278.88-.442v.002zM122.464 105.986c-.138.101-.268.217-.416.301-14.01 8.095-28.02 16.186-42.03 24.277l-15.909 9.187-.434.249c-.063-.213.056-.355.115-.499.872-2.156 1.948-4.209 3.124-6.211 2.373-4.049 5.093-7.861 7.957-11.572 4.213-5.46 8.73-10.661 13.39-15.741 4.339-4.727 8.809-9.327 13.366-13.842 6.645-6.586 13.471-12.983 20.423-19.243.126-.114.276-.202.414-.303v33.397z"/>
    </g>
    <defs>
        <clipPath id="cicde49pga">
            <path fill="#fff" d="M0 0h122.464v140H0z"/>
        </clipPath>
    </defs>
</svg>
