<svg width="142" height="52" viewBox="0 0 142 52" fill="none" xmlns="http://www.w3.org/2000/svg">
<path d="M48.84 40V35.12L64.96 15.6L65.04 16.44L63.84 14.84L64.64 15.48H49.32V10.8H71.24V15.68L55.08 35.16L54.96 34.24L56.28 36.04L55.32 35.32H71.44V40H48.84ZM85.5031 40.76C83.5831 40.76 81.8898 40.4533 80.4231 39.84C78.9565 39.2267 77.7165 38.4 76.7031 37.36C75.6898 36.2933 74.9165 35.0933 74.3831 33.76C73.8765 32.4267 73.6231 31.04 73.6231 29.6V28.76C73.6231 27.2667 73.8898 25.8533 74.4231 24.52C74.9831 23.16 75.7698 21.96 76.7831 20.92C77.8231 19.8533 79.0765 19.0267 80.5431 18.44C82.0098 17.8267 83.6631 17.52 85.5031 17.52C87.3431 17.52 88.9965 17.8267 90.4631 18.44C91.9298 19.0267 93.1698 19.8533 94.1831 20.92C95.2231 21.96 96.0098 23.16 96.5431 24.52C97.0765 25.8533 97.3431 27.2667 97.3431 28.76V29.6C97.3431 31.04 97.0765 32.4267 96.5431 33.76C96.0365 35.0933 95.2765 36.2933 94.2631 37.36C93.2498 38.4 92.0098 39.2267 90.5431 39.84C89.0765 40.4533 87.3965 40.76 85.5031 40.76ZM85.5031 36C86.8631 36 88.0098 35.7067 88.9431 35.12C89.8765 34.5067 90.5831 33.6933 91.0631 32.68C91.5431 31.64 91.7831 30.4667 91.7831 29.16C91.7831 27.8267 91.5298 26.6533 91.0231 25.64C90.5431 24.6 89.8231 23.7867 88.8631 23.2C87.9298 22.5867 86.8098 22.28 85.5031 22.28C84.1965 22.28 83.0631 22.5867 82.1031 23.2C81.1698 23.7867 80.4498 24.6 79.9431 25.64C79.4365 26.6533 79.1831 27.8267 79.1831 29.16C79.1831 30.4667 79.4231 31.64 79.9031 32.68C80.4098 33.6933 81.1298 34.5067 82.0631 35.12C82.9965 35.7067 84.1431 36 85.5031 36ZM110.852 40.28C108.852 40.28 107.198 40.0267 105.892 39.52C104.612 38.9867 103.652 38.1067 103.012 36.88C102.372 35.6267 102.052 33.9467 102.052 31.84L102.092 12.16H107.292L107.252 32.2C107.252 33.2667 107.532 34.0933 108.092 34.68C108.678 35.24 109.505 35.52 110.572 35.52H113.972V40.28H110.852ZM98.6116 22.36V18.28H113.972V22.36H98.6116ZM130.92 40V33.56H130V26.4C130 25.1467 129.693 24.2133 129.08 23.6C128.467 22.9867 127.52 22.68 126.24 22.68C125.573 22.68 124.773 22.6933 123.84 22.72C122.907 22.7467 121.96 22.7867 121 22.84C120.067 22.8667 119.227 22.9067 118.48 22.96V18.24C119.093 18.1867 119.787 18.1333 120.56 18.08C121.333 18.0267 122.12 18 122.92 18C123.747 17.9733 124.52 17.96 125.24 17.96C127.48 17.96 129.333 18.2533 130.8 18.84C132.293 19.4267 133.413 20.3467 134.16 21.6C134.933 22.8533 135.32 24.4933 135.32 26.52V40H130.92ZM123.92 40.56C122.347 40.56 120.96 40.28 119.76 39.72C118.587 39.16 117.667 38.36 117 37.32C116.36 36.28 116.04 35.0267 116.04 33.56C116.04 31.96 116.427 30.6533 117.2 29.64C118 28.6267 119.107 27.8667 120.52 27.36C121.96 26.8533 123.64 26.6 125.56 26.6H130.6V29.92H125.48C124.2 29.92 123.213 30.24 122.52 30.88C121.853 31.4933 121.52 32.2933 121.52 33.28C121.52 34.2667 121.853 35.0667 122.52 35.68C123.213 36.2933 124.2 36.6 125.48 36.6C126.253 36.6 126.96 36.4667 127.6 36.2C128.267 35.9067 128.813 35.4267 129.24 34.76C129.693 34.0667 129.947 33.1333 130 31.96L131.36 33.52C131.227 35.04 130.853 36.32 130.24 37.36C129.653 38.4 128.827 39.2 127.76 39.76C126.72 40.2933 125.44 40.56 123.92 40.56Z" fill="#1D1D1D"/>
<path d="M25.4431 19.7161H5.55686C5.07733 19.7161 4.71063 19.3222 4.71063 18.8721L4.71063 10.7748C4.71063 4.83881 9.56232 0 15.5141 0C21.4377 0.0281326 26.2893 4.83881 26.2893 10.7748V18.844C26.2893 19.3222 25.8944 19.7161 25.4431 19.7161ZM6.43129 18H24.5687V10.7748C24.5687 5.79532 20.5068 1.74422 15.4859 1.74422C10.465 1.74422 6.43129 5.79532 6.43129 10.7748V18Z" fill="#5C9963"/>
<path fill-rule="evenodd" clip-rule="evenodd" d="M2.90537 15H28.0946L31 41.9229H0L2.90537 15ZM10.9745 32.804V35H21.1445V32.894H14.0849L13.915 32.6623L21.0545 24.056V21.86H11.1905V23.966H17.9405L18.0988 24.1771L10.9745 32.804Z" fill="#5C9963"/>
</svg>
