<svg xmlns="http://www.w3.org/2000/svg" xmlns:v="https://vecta.io/nano" width="21" height="20" fill="none"><script xmlns=""/><g clip-path="url(#A)"><path fill="#fff" d="M.125 0h20v20h-20z"/><g clip-path="url(#B)"><path d="M.125 14.511l5.251-9.023 5.246 9.023H.125z" fill="#f2c994"/><path d="M4.867 14.511l5.251-9.023 5.246 9.023H4.867z" fill="#ed4642"/><path d="M9.625 14.511l5.251-9.023 5.246 9.023H9.625z" fill="#17bcb5"/><path d="M4.867 14.512h5.781L7.749 9.568l-2.882 4.944z" fill="#df392f"/><path d="M9.594 14.51h5.758l-2.859-4.932-2.899 4.932z" fill="#16342f"/><path d="M9.594 14.51h1.058l-.529-.893-.529.893z" fill="#15291a"/></g></g><defs><clipPath id="A"><path fill="#fff" transform="translate(.125)" d="M0 0h20v20H0z"/></clipPath><clipPath id="B"><path fill="#fff" transform="translate(.125 5.488)" d="M0 0h20v9.023H0z"/></clipPath></defs><script xmlns=""/></svg>
