<?xml version="1.0" encoding="utf-8"?>
<!-- Generator: Adobe Illustrator 25.2.1, SVG Export Plug-In . SVG Version: 6.00 Build 0)  -->
<svg version="1.1" id="Layer_1" xmlns="http://www.w3.org/2000/svg" xmlns:xlink="http://www.w3.org/1999/xlink" x="0px" y="0px"
	 viewBox="0 0 993.7 541.3" style="enable-background:new 0 0 993.7 541.3;" xml:space="preserve">
<style type="text/css">
	.st0{fill:#222222;}
	.st1{fill:#F2C994;}
	.st2{fill:#ED4642;}
	.st3{fill:#17BCB5;}
	.st4{fill:#DF392F;}
	.st5{fill:#16342F;}
	.st6{fill:#15291A;}
	.st7{fill:none;}
</style>
<g>
	<g>
		<g>
			<path class="st0" d="M119.1,421.7V302.6h50.8c5.7,0,10.9,1.2,15.7,3.5c4.8,2.3,8.8,5.4,12.2,9.2c3.4,3.8,6.1,8.1,8.1,12.9
				c2,4.8,2.9,9.7,2.9,14.6c0,5.3-0.9,10.3-2.8,15.1c-1.8,4.8-4.4,9.1-7.7,12.9c-3.3,3.8-7.3,6.8-12,9.1c-4.7,2.2-9.9,3.4-15.6,3.4
				h-24.2v38.4H119.1z M146.6,359.3h22.5c3.2,0,6-1.4,8.4-4.2c2.4-2.8,3.5-6.9,3.5-12.3c0-2.8-0.4-5.2-1.1-7.2c-0.7-2-1.7-3.7-2.9-5
				c-1.2-1.3-2.6-2.3-4.2-2.9c-1.6-0.6-3.1-0.9-4.7-0.9h-21.5V359.3z"/>
			<path class="st0" d="M216.4,421.7V302.6h53.7c5.6,0,10.8,1.2,15.5,3.5c4.8,2.3,8.9,5.4,12.3,9.2c3.5,3.8,6.2,8.1,8.1,12.9
				c2,4.8,2.9,9.7,2.9,14.6c0,3.7-0.4,7.3-1.3,10.7c-0.9,3.4-2.2,6.6-3.9,9.6c-1.7,3-3.7,5.7-6.1,8.1c-2.4,2.4-5.1,4.4-8.1,6.1
				l27.3,44.3h-31.1l-24-38.4h-18v38.4H216.4z M244,359.3h25.2c3.2,0,6-1.5,8.4-4.6c2.3-3.1,3.5-7,3.5-11.8c0-4.9-1.3-8.8-4-11.8
				c-2.7-2.9-5.6-4.4-8.7-4.4H244V359.3z"/>
			<path class="st0" d="M323.9,421.7V302.6h27.5v119.2H323.9z"/>
			<path class="st0" d="M391.7,353.6v68.1h-27.5V302.6h21.5l55.6,70v-70h27.5v119.2h-22.1L391.7,353.6z"/>
			<path class="st0" d="M575.6,326.8h-36.3v95h-27.5v-95h-36.4v-24.2h100.2V326.8z"/>
			<path class="st0" d="M582.5,421.7V302.6h80.9v24.2H610v25.7h44v22.3h-44v47H582.5z"/>
			<path class="st0" d="M721.6,398.3c4.7,0,8.7-1,11.9-2.9c3.2-2,5.9-4.6,7.9-7.8c2-3.2,3.4-7,4.3-11.2c0.8-4.2,1.3-8.5,1.3-12.8
				v-60.9h27.5v60.9c0,8.3-1,16-3.1,23.2c-2.1,7.2-5.3,13.4-9.6,18.8c-4.3,5.4-9.8,9.6-16.4,12.7c-6.7,3.1-14.6,4.6-23.8,4.6
				c-9.5,0-17.6-1.6-24.3-4.9c-6.7-3.2-12.2-7.6-16.4-13c-4.2-5.4-7.3-11.7-9.2-18.9c-2-7.2-2.9-14.7-2.9-22.5v-60.9h27.5v60.9
				c0,4.6,0.4,8.9,1.3,13.1c0.9,4.2,2.4,7.8,4.4,11.1c2,3.2,4.6,5.8,7.8,7.7C713,397.3,716.9,398.3,721.6,398.3z"/>
			<path class="st0" d="M788.9,421.7V302.6h27.5v95h57.7v24.2H788.9z"/>
		</g>
		<g>
			<polygon class="st1" points="119.1,275.5 210.4,118.9 301.6,275.5 			"/>
			<polygon class="st2" points="201.5,275.5 292.8,118.9 384,275.5 			"/>
			<polygon class="st3" points="284.3,275.5 375.6,118.9 466.8,275.5 			"/>
			<polygon class="st4" points="201.5,275.5 302,275.5 251.6,189.7 			"/>
			<polygon class="st5" points="283.7,275.5 383.8,275.5 334.1,189.9 			"/>
			<polygon class="st6" points="283.7,275.5 302.1,275.5 292.9,260 			"/>
		</g>
	</g>
	<rect class="st7" width="993.7" height="541.3"/>
	<rect x="0" class="st7" width="993.7" height="541.3"/>
</g>
</svg>
