<svg width="15" height="15" viewBox="0 0 15 15" fill="none" xmlns="http://www.w3.org/2000/svg">
<path d="M5.32545 10.0687C5.12822 9.90719 5.10017 9.62531 5.2617 9.42808L10.4537 3.08853C10.6153 2.89129 10.8972 2.86324 11.0944 3.02477C11.2916 3.18631 11.3197 3.46819 11.1581 3.66542L5.96609 10.005C5.80456 10.2022 5.52268 10.2303 5.32545 10.0687Z" fill="#6F6F6F"/>
<path d="M11.5398 7.50929C11.4931 7.47202 11.4548 7.42541 11.4272 7.37243C11.3997 7.31946 11.3835 7.26131 11.3798 7.20172L10.9781 3.16566L6.94209 3.56729C6.68583 3.59279 6.46747 3.41395 6.44197 3.1577C6.41647 2.90144 6.5953 2.68308 6.85156 2.65758L11.3361 2.21132C11.5923 2.18582 11.8107 2.36466 11.8362 2.62091L12.2824 7.10542C12.3079 7.36168 12.1291 7.58004 11.8729 7.60554C11.7447 7.61829 11.6243 7.57852 11.5398 7.50929Z" fill="#6F6F6F"/>
<path d="M5.9026 4.89502H2.82096C1.81527 4.89502 1 5.71029 1 6.71598V12.1789C1 13.1846 1.81527 13.9998 2.82096 13.9998H8.28386C9.28955 13.9998 10.1048 13.1846 10.1048 12.1789V8.04669" stroke="#6F6F6F" stroke-width="0.910482"/>
</svg>
