<svg xmlns="http://www.w3.org/2000/svg" xmlns:xlink="http://www.w3.org/1999/xlink" xmlns:v="https://vecta.io/nano" width="24" height="22" fill="none"><path d="M13.155 10.365v2.412h-.238c-.076 0-.15.015-.22.044s-.133.071-.187.125-.096.117-.125.187-.044.145-.044.22v.035h-1.046c-.102 0-.202.02-.296.059s-.179.096-.251.168-.129.157-.168.251-.059.195-.059.296v4.991L6.86 21.267v-7.269l6.294-3.634h.001z" fill="#c16752"/><path d="M6.859 14L3.65 12.147l6.294-3.634h0l3.209 1.853L6.859 14z" fill="#af593c"/><path d="M9.944 8.512L3.65 12.146.565 10.365 6.859 6.73l3.085 1.781z" fill="#c16752"/><path d="M6.859 13.998v7.269L.565 17.633v-7.268h.001l3.085 1.781 3.209 1.853z" fill="#e48e66"/><path d="M23.794 3.775v15.179c0 .46-.183.901-.508 1.226s-.766.508-1.226.508H11.768a1.73 1.73 0 0 1-.664-.132c-.21-.087-.401-.215-.562-.376s-.289-.352-.376-.563-.132-.436-.132-.664V3.775a1.73 1.73 0 0 1 .132-.663c.087-.21.215-.401.376-.562s.352-.289.562-.376.436-.132.664-.132h2.341v.005a1.29 1.29 0 0 0 .377.911 1.29 1.29 0 0 0 .911.377h3.032a1.29 1.29 0 0 0 .911-.377 1.29 1.29 0 0 0 .377-.911v-.005h2.341c.46 0 .901.183 1.226.508s.508.766.508 1.226zm-8.944 9.61v-2.477h-2.476v2.477h2.476z" fill="#f8ec7d"/><path d="M14.109 2.042v-.079c0-.169.033-.337.098-.493a1.29 1.29 0 0 1 1.191-.796h3.032a1.29 1.29 0 0 1 1.289 1.288v.084a1.29 1.29 0 0 1-1.289 1.288h-3.032a1.29 1.29 0 0 1-1.19-.795c-.065-.156-.098-.324-.098-.493v-.005zm.741 8.866h-2.476v2.477h2.476v-2.477zm-1.926-1.813h-.551c-.139 0-.273-.055-.372-.154s-.154-.232-.154-.372V6.092c0-.139.055-.273.154-.372s.232-.154.372-.154h2.476c.139 0 .273.055.372.154s.154.232.154.372v.354a.53.53 0 0 1-.438.519.53.53 0 0 1-.356-.066c-.107-.063-.188-.163-.229-.281h-1.453v1.426h.025c.139 0 .273.055.372.154s.154.232.154.372-.055.273-.154.372-.232.154-.372.154h0zm0 9.631h-.551c-.139 0-.273-.055-.372-.154s-.154-.232-.154-.372v-2.476c0-.139.055-.273.154-.372s.232-.154.372-.154h2.476c.139 0 .273.055.372.154s.154.232.154.372v.506c.001.069-.011.138-.036.202a.53.53 0 0 1-.111.173c-.048.05-.105.09-.168.117a.53.53 0 0 1-.2.044c-.069.001-.138-.011-.202-.036a.53.53 0 0 1-.173-.111.51.51 0 0 1-.117-.169c-.027-.064-.042-.131-.044-.2h-1.425v1.425h.025c.139 0 .273.055.372.154s.154.232.154.372-.055.273-.154.372-.232.154-.372.154h0z" fill="#6fe3ff"/><path d="M14.521 9.018c-.069 0-.137-.013-.201-.04a.52.52 0 0 1-.17-.114l-.841-.84a.52.52 0 0 1-.114-.171c-.026-.064-.04-.132-.04-.201s.014-.137.04-.201a.52.52 0 0 1 .285-.285c.064-.026.132-.04.201-.04s.137.014.201.04a.52.52 0 0 1 .171.114l.469.468 1.54-1.54a.52.52 0 0 1 .171-.114c.064-.026.132-.04.201-.04s.137.014.201.04a.52.52 0 0 1 .171.114.53.53 0 0 1 .114.171c.026.064.04.132.04.201s-.014.137-.04.201a.53.53 0 0 1-.114.171l-1.912 1.911c-.049.049-.107.087-.171.114s-.132.04-.201.04zm0 9.708c-.069 0-.137-.013-.201-.04a.52.52 0 0 1-.17-.114l-.841-.84a.52.52 0 0 1-.114-.171c-.026-.064-.04-.132-.04-.201s.014-.137.04-.201a.52.52 0 0 1 .285-.285c.064-.026.132-.04.201-.04s.137.014.201.04a.52.52 0 0 1 .171.114l.469.468 1.54-1.54a.52.52 0 0 1 .171-.114c.064-.026.132-.04.201-.04s.137.014.201.04a.52.52 0 0 1 .171.114.53.53 0 0 1 .114.171c.026.064.04.132.04.201s-.014.137-.04.201a.52.52 0 0 1-.114.171l-1.912 1.912c-.049.049-.107.087-.171.114s-.132.04-.201.04h0z" fill="#2561a1"/><g fill="#e48e66"><use xlink:href="#B"/><path d="M21.455 12.673h-3.302c-.139 0-.273-.055-.372-.154s-.154-.232-.154-.372.055-.273.154-.372.232-.154.372-.154h3.302c.14 0 .273.055.372.154s.154.232.154.372-.055.273-.154.372-.232.154-.372.154h0z"/><use xlink:href="#B" y="9.632"/></g><defs><path id="B" d="M21.455 7.857h-3.302c-.139 0-.273-.055-.372-.154s-.154-.232-.154-.372.055-.273.154-.372.232-.154.372-.154h3.302c.14 0 .273.055.372.154s.154.232.154.372-.055.273-.154.372-.232.154-.372.154z"/></defs></svg>