<?xml version="1.0" encoding="utf-8"?>
<!-- Generator: Adobe Illustrator 25.2.0, SVG Export Plug-In . SVG Version: 6.00 Build 0)  -->
<svg version="1.1" id="Layer_1" xmlns="http://www.w3.org/2000/svg" xmlns:xlink="http://www.w3.org/1999/xlink" x="0px" y="0px"
	 viewBox="0 0 211.16 33.87" enable-background="new 0 0 211.16 33.87" xml:space="preserve">
<g>
	<path fill="#FFFFFF" d="M9.98,10.64H0.93V6.35H24.1v4.29h-9.05v23.01H9.98V10.64z"/>
	<path fill="#FFFFFF" d="M31.9,6.35h5.07v27.3H31.9V6.35z"/>
	<path fill="#FFFFFF" d="M46.36,20c0-8.15,6.24-14.04,14.63-14.04c4.45,0,8.27,1.6,10.8,4.56l-3.28,3.08
		c-1.99-2.14-4.45-3.2-7.29-3.2c-5.66,0-9.75,3.98-9.75,9.59s4.1,9.59,9.75,9.59c2.85,0,5.3-1.05,7.29-3.24l3.28,3.12
		c-2.54,2.96-6.36,4.56-10.84,4.56C52.6,34.04,46.36,28.16,46.36,20z"/>
	<path fill="#FFFFFF" d="M90.04,22.23l-4.33,4.45v6.98h-5.07V6.35h5.07v14l13.49-14h5.69L93.44,18.56l12.17,15.09h-5.93L90.04,22.23
		z"/>
	<path fill="#FFFFFF" d="M133.53,29.4v4.25h-20.48V6.35h19.93v4.25h-14.86v7.1h13.18v4.17h-13.18v7.53H133.53z"/>
	<path fill="#FFFFFF" d="M161.02,33.66l-5.58-8c-0.35,0.04-0.7,0.04-1.05,0.04h-6.16v7.96h-5.07V6.35h11.23
		c7.18,0,11.62,3.67,11.62,9.71c0,4.13-2.11,7.18-5.81,8.62l6.28,8.97H161.02z M154.16,10.64h-5.93v10.88h5.93
		c4.45,0,6.75-2.03,6.75-5.46C160.91,12.63,158.61,10.64,154.16,10.64z"/>
	<path fill="#FFFFFF" d="M193.35,27.34H179.7l-2.69,6.32h-5.23l12.29-27.3h4.99l12.32,27.3h-5.3L193.35,27.34z M191.68,23.36
		l-5.15-11.93l-5.11,11.93H191.68z"/>
</g>
<g>
	<path fill="#FFFFFF" d="M205.01,10.34l-1.24-1.78c-0.08,0.01-0.16,0.01-0.23,0.01h-1.37v1.77h-1.13V4.27h2.5
		c1.59,0,2.58,0.82,2.58,2.16c0,0.92-0.47,1.59-1.29,1.92l1.4,1.99H205.01z M203.48,5.22h-1.32v2.42h1.32c0.99,0,1.5-0.45,1.5-1.21
		S204.47,5.22,203.48,5.22z"/>
</g>
<circle fill="none" stroke="#FFFFFF" stroke-width="1.5" stroke-miterlimit="10" cx="203.24" cy="7.27" r="6.29"/>
</svg>
