<svg xmlns="http://www.w3.org/2000/svg" width="24" height="24" viewBox="0 0 24 24"><g fill="none" stroke="#222" stroke-linecap="round" stroke-linejoin="round" stroke-width="1.5"><path d="M22 12.5c0-.491-.005-1.483-.016-1.976c-.065-3.065-.098-4.598-1.229-5.733c-1.131-1.136-2.705-1.175-5.854-1.254a115 115 0 0 0-5.802 0c-3.149.079-4.723.118-5.854 1.254c-1.131 1.135-1.164 2.668-1.23 5.733a69 69 0 0 0 0 2.952c.066 3.065.099 4.598 1.23 5.733c1.131 1.136 2.705 1.175 5.854 1.254q1.204.03 2.401.036"></path><path d="m7 8.5l2.942 1.74c1.715 1.014 2.4 1.014 4.116 0L17 8.5m5 9h-8m8 0c0-.7-1.994-2.008-2.5-2.5m2.5 2.5c0 .7-1.994 2.009-2.5 2.5"></path></g></svg>