<svg xmlns="http://www.w3.org/2000/svg" xml:space="preserve" style="fill-rule:evenodd;clip-rule:evenodd;stroke-linejoin:round;stroke-miterlimit:2" viewBox="0 0 578 103"><path d="M44.973 85.634C21.356 86.809 1.228 68.589.054 44.972-1.077 22.243 15.757 2.746 38.077.266a43 43 0 0 1 2.639-.212 42.65 42.65 0 0 1 17.371 2.744l-.042.042.045.026-4.029 7.085a18.6 18.6 0 0 1-5.482 6.044 18.77 18.77 0 0 1-8.956 3.317c-12.084 1.642-21.116 12.309-20.5 24.712.47 9.447 6.41 17.336 14.6 20.752l2.121.794a15.54 15.54 0 0 1 8.514 7.707 15.55 15.55 0 0 1 .615 12.357M56.982 42.843c0-14.863 7.585-27.969 19.093-35.654A42.6 42.6 0 0 1 99.825 0c23.646 0 42.843 19.197 42.843 42.843 0 13.292-6.065 25.178-15.577 33.039a42.8 42.8 0 0 1-13.936 7.687 42.8 42.8 0 0 1-13.33 2.118c-4.652 0-9.132-.743-13.327-2.117v-.254c.127-8.796 6.875-15.99 15.484-16.819l.122-.012c12.041-1.148 21.471-11.302 21.471-23.642 0-13.108-10.642-23.75-23.75-23.75s-23.75 10.642-23.75 23.75v44.162c0 4.163-2.012 8.154-5.592 11.097-3.581 2.943-8.437 4.597-13.501 4.597z" style="fill:#222"/><path d="M.361.013a.294.294 0 0 1-.276-.166.4.4 0 0 1-.04-.183q0-.104.04-.183a.3.3 0 0 1 .111-.122.3.3 0 0 1 .165-.044q.078 0 .139.03a.27.27 0 0 1 .15.216H.49a.12.12 0 0 0-.042-.078.13.13 0 0 0-.087-.03.14.14 0 0 0-.086.027.16.16 0 0 0-.057.073.3.3 0 0 0-.02.111q0 .063.02.111a.16.16 0 0 0 .057.074.15.15 0 0 0 .086.026q.051 0 .087-.03A.12.12 0 0 0 .49-.233h.16a.27.27 0 0 1-.15.216.3.3 0 0 1-.139.03" style="fill:#222;fill-rule:nonzero" transform="matrix(73.09051 0 0 73.09051 165.007 70.8)"/><path d="M.283.01a.26.26 0 0 1-.129-.032.23.23 0 0 1-.089-.091.3.3 0 0 1-.033-.137q0-.08.033-.138a.23.23 0 0 1 .089-.09.26.26 0 0 1 .129-.032q.075 0 .131.032a.23.23 0 0 1 .089.09.3.3 0 0 1 .032.138.3.3 0 0 1-.032.138.23.23 0 0 1-.09.09.26.26 0 0 1-.13.032m0-.133q.045 0 .074-.035A.14.14 0 0 0 .385-.25a.14.14 0 0 0-.028-.093.1.1 0 0 0-.074-.034.1.1 0 0 0-.073.034.14.14 0 0 0-.028.093q0 .059.028.092.03.035.073.035" style="fill:#222;fill-rule:nonzero" transform="matrix(73.09051 0 0 73.09051 213.735 70.8)"/><path d="M.283.01a.26.26 0 0 1-.129-.032.23.23 0 0 1-.089-.091.3.3 0 0 1-.033-.137q0-.08.033-.138a.23.23 0 0 1 .089-.09.26.26 0 0 1 .129-.032q.075 0 .131.032a.23.23 0 0 1 .089.09.3.3 0 0 1 .032.138.3.3 0 0 1-.032.138.23.23 0 0 1-.09.09.26.26 0 0 1-.13.032m0-.133q.045 0 .074-.035A.14.14 0 0 0 .385-.25a.14.14 0 0 0-.028-.093.1.1 0 0 0-.074-.034.1.1 0 0 0-.073.034.14.14 0 0 0-.028.093q0 .059.028.092.03.035.073.035" style="fill:#222;fill-rule:nonzero" transform="matrix(73.09051 0 0 73.09051 255.153 70.8)"/><path d="M.058-.7h.15V0h-.15z" style="fill:#222;fill-rule:nonzero" transform="matrix(73.09051 0 0 73.09051 296.57 70.8)"/><path d="M.075 0v-.675h.293q.105 0 .166.059a.2.2 0 0 1 .061.159.2.2 0 0 1-.062.158.23.23 0 0 1-.165.059h-.14V0zm.153-.377h.13a.1.1 0 0 0 .061-.021.08.08 0 0 0 .023-.059.08.08 0 0 0-.023-.06.1.1 0 0 0-.061-.021h-.13z" style="fill:#222;fill-rule:nonzero" transform="matrix(73.09051 0 0 73.09051 328.848 70.8)"/><path d="M.058-.7h.15V0h-.15z" style="fill:#222;fill-rule:nonzero" transform="matrix(73.09051 0 0 73.09051 374.53 70.8)"/><path d="M.237.009a.17.17 0 0 1-.095-.026.17.17 0 0 1-.064-.072.25.25 0 0 1-.023-.109V-.5h.15v.272q0 .048.022.074.023.027.063.026.044 0 .068-.028a.1.1 0 0 0 .025-.077V-.5h.15V0H.388v-.075H.385a.15.15 0 0 1-.059.063.2.2 0 0 1-.089.021" style="fill:#222;fill-rule:nonzero" transform="matrix(73.09051 0 0 73.09051 394.02 70.8)"/><path d="M.288.21A.3.3 0 0 1 .116.163.18.18 0 0 1 .037.035h.158a.07.07 0 0 0 .031.04Q.25.09.284.09.332.09.36.061a.1.1 0 0 0 .028-.077v-.062H.385A.15.15 0 0 1 .33-.02.16.16 0 0 1 .25 0a.2.2 0 0 1-.109-.032.2.2 0 0 1-.074-.091.3.3 0 0 1-.027-.132q0-.076.027-.133a.2.2 0 0 1 .074-.09.19.19 0 0 1 .19-.012.13.13 0 0 1 .054.058h.003V-.5h.145v.484A.21.21 0 0 1 .468.15a.26.26 0 0 1-.181.06Zm.003-.343q.044 0 .069-.03a.12.12 0 0 0 .024-.08v-.025q0-.05-.025-.079a.08.08 0 0 0-.068-.03.09.09 0 0 0-.073.033.14.14 0 0 0-.027.089q0 .056.027.089a.09.09 0 0 0 .073.033" style="fill:#222;fill-rule:nonzero" transform="matrix(73.09051 0 0 73.09051 437.266 70.8)"/><path d="M.058 0v-.5h.15V0zm.075-.543a.08.08 0 0 1-.058-.024.08.08 0 0 1-.024-.058q0-.034.024-.058a.08.08 0 0 1 .058-.024.08.08 0 0 1 .059.024.08.08 0 0 1 .024.058.08.08 0 0 1-.024.058.08.08 0 0 1-.059.025Z" style="fill:#222;fill-rule:nonzero" transform="matrix(73.09051 0 0 73.09051 480.511 70.8)"/><path d="M.058 0v-.5h.145v.072h.004a.15.15 0 0 1 .059-.06.2.2 0 0 1 .087-.021.17.17 0 0 1 .16.102.24.24 0 0 1 .024.109V0h-.15v-.268a.1.1 0 0 0-.024-.076.08.08 0 0 0-.066-.028.08.08 0 0 0-.065.028.11.11 0 0 0-.024.077V0z" style="fill:#222;fill-rule:nonzero" transform="matrix(73.09051 0 0 73.09051 500.002 70.8)"/><path d="M.265.01a.25.25 0 0 1-.16-.048A.18.18 0 0 1 .04-.17h.143a.08.08 0 0 0 .03.048.1.1 0 0 0 .059.017.1.1 0 0 0 .043-.01Q.33-.125.33-.147q0-.029-.039-.037L.192-.206q-.14-.03-.14-.141a.14.14 0 0 1 .056-.118.23.23 0 0 1 .147-.045.23.23 0 0 1 .15.046.16.16 0 0 1 .06.126H.322a.1.1 0 0 0-.025-.046A.08.08 0 0 0 .246-.4a.07.07 0 0 0-.04.01.03.03 0 0 0-.014.028q0 .013.008.022t.025.012l.103.023a.23.23 0 0 1 .107.05.13.13 0 0 1 .035.096.15.15 0 0 1-.055.124.23.23 0 0 1-.15.045" style="fill:#222;fill-rule:nonzero" transform="matrix(73.09051 0 0 73.09051 543.248 70.8)"/></svg>