<svg xmlns="http://www.w3.org/2000/svg" width="250" height="65" version="1.0" viewBox="0 0 187.5 48.75"><defs><clipPath id="a"><path d="M1.723 3.637h41.226v41.226H1.723Zm0 0"/></clipPath><clipPath id="b"><path d="M8.438 3.637h27.796a6.717 6.717 0 0 1 6.715 6.715v27.796a6.717 6.717 0 0 1-6.715 6.715H8.438a6.717 6.717 0 0 1-6.715-6.715V10.352a6.717 6.717 0 0 1 6.715-6.715m0 0"/></clipPath><clipPath id="c"><path d="M1.723 3.637H42.94v41.218H1.723Zm0 0"/></clipPath><clipPath id="d"><path d="M8.438 3.637H36.23a6.72 6.72 0 0 1 6.72 6.715v27.796a6.72 6.72 0 0 1-6.72 6.715H8.438a6.717 6.717 0 0 1-6.715-6.715V10.352a6.717 6.717 0 0 1 6.715-6.715m0 0"/></clipPath><clipPath id="e"><path d="M21.45 20.617h16.374v16.52H21.45Zm0 0"/></clipPath><clipPath id="f"><path d="M6.848 12.82h16.37v16.524H6.849Zm0 0"/></clipPath><clipPath id="g"><path d="M21.45 20.617h1.769v8.727h-1.77Zm0 0"/></clipPath><clipPath id="h"><path d="M23.238 12.797h11.399v7.82H23.238Zm0 0"/></clipPath><clipPath id="i"><path d="M10.031 29.344h11.403v7.82H10.03Zm0 0"/></clipPath></defs><g clip-path="url(#a)"><g clip-path="url(#b)"><path fill="#efffef" d="M1.723 3.637h41.226v41.226H1.723Zm0 0"/></g></g><g clip-path="url(#c)"><g clip-path="url(#d)"><path fill="none" stroke="#131413" stroke-width="1.4922936000000002" d="M8.437 3.637H36.23a6.72 6.72 0 0 1 6.72 6.715v27.796a6.72 6.72 0 0 1-6.72 6.715H8.437a6.717 6.717 0 0 1-6.714-6.715V10.352a6.717 6.717 0 0 1 6.714-6.715Zm0 0"/></g></g><g clip-path="url(#e)"><path fill="#30b230" d="M21.45 20.617h16.374v16.5H21.45Zm0 0"/></g><g clip-path="url(#f)"><path fill="#30b230" d="M6.848 12.82h16.37v16.504H6.849Zm0 0"/></g><g clip-path="url(#g)"><path fill="#075a07" d="M21.45 20.617h1.769v8.727h-1.77Zm0 0"/></g><path fill="#f5fff5" d="M19.14 17.642h-1.063v1.656q-.001.674-.125 1.062c-.074.25-.211.477-.406.672q-.299.283-.72.438c-.28.105-.648.18-1.093.218l-.297-1.406q.515-.076.672-.234a.7.7 0 0 0 .188-.328c.03-.125.046-.336.046-.641v-1.437h-2.625v2.109c0 .324.008.594.032.812q.045.316.172.532.123.222.375.422.263.206.703.453l1.812 1.047q.778.455 1.047.906c.188.293.281.644.281 1.062q0 .515-.234 1-.22.5-.453.828l-1.422-.812q.14-.16.25-.406c.07-.157.11-.305.11-.438a1 1 0 0 0-.094-.453c-.063-.125-.184-.258-.36-.39-.18-.126-.437-.29-.781-.5l-1.563-.907a4.7 4.7 0 0 1-.875-.594 2.06 2.06 0 0 1-.53-.765 3 3 0 0 1-.157-.563 7 7 0 0 1-.047-.89v-2.453h-.875V16.22h8.031ZM27.055 33.917h-2.297l3.5-10.125h2.75l3.5 10.125h-2.296l-.75-2.312h-3.657Zm1.297-3.984h2.563l-1.235-3.828h-.078Zm0 0"/><g clip-path="url(#h)"><path d="M26.668 14.168V12.82l-3.445 2.778 3.445 2.773v-1.34s6.11-1.218 7.965 3.586c0 0-.676-6.156-7.965-6.449"/></g><g clip-path="url(#i)"><path d="M18.004 35.793v1.344l3.441-2.774-3.441-2.777v1.34s-6.113 1.222-7.965-3.582c0 0 .672 6.152 7.965 6.449"/></g><path fill="#30b230" d="M51.487 27.19q-.392.002-.39-.406V12.846q-.001-.405.39-.406h3.156q.405.001.406.406v10.782q-.002.174.172.172h6.36c.257 0 .39.136.39.406v2.578c0 .273-.133.406-.39.406ZM70.15 27.44q-1.753 0-3.094-.703a5.2 5.2 0 0 1-2.078-1.969c-.493-.851-.735-1.843-.735-2.968v-3.97c0-1.093.242-2.054.735-2.89a5.1 5.1 0 0 1 2.078-1.953q1.342-.703 3.093-.703 1.764 0 3.094.703a5 5 0 0 1 2.078 1.953q.75 1.252.75 2.89v3.97c0 1.125-.25 2.117-.75 2.968a5.1 5.1 0 0 1-2.078 1.97q-1.33.702-3.094.702m0-3.39q.872 0 1.406-.579.546-.574.547-1.546V17.8q-.001-.967-.547-1.547-.533-.576-1.407-.578-.86.002-1.406.578-.532.58-.531 1.547v4.125q0 .973.531 1.546.546.58 1.406.579M84.395 27.362q-1.722 0-3.046-.672a4.9 4.9 0 0 1-2.047-1.906q-.72-1.23-.719-2.86v-4.25q-.001-1.607.719-2.828a5 5 0 0 1 2.047-1.89c.882-.445 1.898-.672 3.046-.672q1.735.001 3.047.625 1.326.627 2.047 1.781.733 1.144.735 2.656-.002.205-.391.235l-3.156.219h-.11q-.313 0-.312-.11v-.125q0-.857-.516-1.375c-.336-.344-.781-.515-1.344-.515q-.83 0-1.343.515-.502.518-.5 1.375v4.531q-.002.844.5 1.36.513.515 1.343.515c.563 0 1.008-.171 1.344-.515q.516-.516.516-1.36-.001-.106.11-.171a.52.52 0 0 1 .312-.063l3.156.172q.389.018.39.094v.11q-.001 1.515-.734 2.687-.721 1.158-2.047 1.796-1.312.643-3.047.641M98.576 27.44q-1.752 0-3.093-.703a5.2 5.2 0 0 1-2.079-1.969q-.736-1.279-.734-2.968v-3.97q-.002-1.638.734-2.89a5.1 5.1 0 0 1 2.079-1.953q1.341-.703 3.093-.703 1.764 0 3.094.703a5 5 0 0 1 2.078 1.953q.75 1.252.75 2.89v3.97c0 1.125-.25 2.117-.75 2.968a5.1 5.1 0 0 1-2.078 1.97q-1.33.702-3.094.702m0-3.39q.873 0 1.407-.579.545-.574.546-1.546V17.8q0-.967-.546-1.547-.534-.576-1.407-.578-.861.002-1.406.578-.532.58-.531 1.547v4.125q0 .973.531 1.546.545.58 1.406.579m0 0"/><path fill="#131413" d="M122.628 27.19q-.363.001-.437-.344l-.422-1.515q-.05-.14-.203-.14h-4.375q-.141 0-.188.14l-.422 1.515q-.08.345-.437.344h-3.422q-.205.002-.297-.125-.095-.122-.031-.344l4.375-13.937q.107-.342.437-.344h4.344q.342.002.437.344l4.391 13.937a1 1 0 0 1 .016.157q0 .314-.36.312Zm-4.703-5.187q-.001.157.156.156h2.61q.076 0 .125-.047.045-.059.015-.14l-1.344-4.876q-.017-.093-.093-.093c-.055 0-.094.031-.125.093l-1.344 4.875ZM129.38 27.19q-.393.002-.391-.406V12.846q-.002-.405.39-.406h5.328q1.7.002 3.016.594 1.325.595 2.047 1.672c.476.71.719 1.539.719 2.484v5.266c0 .937-.243 1.765-.72 2.484q-.72 1.08-2.046 1.672-1.315.58-3.016.578Zm3.562-3.562c0 .117.054.172.172.172h1.75q.702.002 1.171-.547.468-.562.485-1.469v-3.922c0-.601-.156-1.094-.469-1.469q-.457-.562-1.219-.562h-1.718c-.118 0-.172.058-.172.172ZM143.656 27.19q-.391.002-.39-.406V12.846q-.001-.405.39-.406h5.328q1.701.002 3.015.594 1.326.595 2.047 1.672c.477.71.72 1.539.72 2.484v5.266c0 .937-.243 1.765-.72 2.484q-.721 1.08-2.047 1.672-1.314.58-3.015.578Zm3.562-3.562q-.002.174.172.172h1.75q.704.002 1.172-.547.468-.562.484-1.469v-3.922c0-.601-.156-1.094-.468-1.469q-.457-.562-1.22-.562h-1.718q-.174 0-.172.172ZM163.245 27.44q-1.752 0-3.094-.703a5.2 5.2 0 0 1-2.078-1.969q-.737-1.279-.735-2.968v-3.97q-.002-1.638.735-2.89a5.1 5.1 0 0 1 2.078-1.953q1.342-.703 3.094-.703 1.764 0 3.093.703a5 5 0 0 1 2.079 1.953q.75 1.252.75 2.89v3.97c0 1.125-.25 2.117-.75 2.968a5.1 5.1 0 0 1-2.079 1.97q-1.329.702-3.093.702m0-3.39q.873 0 1.406-.579.546-.574.547-1.546V17.8q-.001-.967-.547-1.547-.533-.576-1.406-.578-.861.002-1.407.578-.531.58-.53 1.547v4.125q-.001.973.53 1.546.546.58 1.407.579M172.272 27.19q-.391.002-.39-.406V12.846q-.001-.405.39-.406h3.031q.342 0 .485.281l4.156 6.97q.06.093.125.093.076.001.078-.156l-.016-6.782c0-.27.133-.406.407-.406h3.156q.389.001.39.406v13.938q-.001.408-.39.406h-3.031q-.344 0-.485-.281l-4.172-7.094q-.065-.105-.14-.094c-.055.012-.078.06-.078.141l.046 6.922q0 .408-.406.406Zm0 0"/><path fill="#646464" d="M51.698 39.92h-.735l3.125-5.86h.735l1.171 5.86h-.734l-.312-1.656h-2.375Zm1.203-2.297h1.922l-.5-2.64h-.047ZM60.283 38.123l.422-2.593h.687l-.734 4.39h-.672l.125-.75h-.047q-.22.344-.594.578a1.55 1.55 0 0 1-.859.235q-.61.002-.953-.406-.328-.423-.188-1.266l.47-2.781h.671l-.453 2.734q-.082.487.14.781.235.282.657.282c.164 0 .344-.04.531-.125a1.5 1.5 0 0 0 .5-.407q.216-.263.297-.672M64.914 35.53l-.078.562h-.953l-.422 2.563q-.047.297.016.437.058.14.187.188a.8.8 0 0 0 .266.047.8.8 0 0 0 .187-.016q.074-.014.11-.016l.046.61c-.054.011-.12.023-.203.047-.086.02-.187.03-.312.03q-.3 0-.547-.124a.9.9 0 0 1-.39-.375c-.087-.164-.106-.38-.063-.64l.453-2.75h-.656l.093-.563h.657l.172-1.063h.671l-.171 1.063ZM67.419 40.014q-.61 0-1.016-.281a1.57 1.57 0 0 1-.578-.813q-.175-.527-.063-1.218c.07-.446.22-.836.438-1.172.219-.344.488-.602.812-.782q.481-.28 1.063-.28.607.001 1.016.296c.27.188.46.461.578.813q.169.515.062 1.218-.11.675-.437 1.172a2.5 2.5 0 0 1-.813.766q-.488.28-1.062.281m0-.61q.468 0 .812-.234.341-.233.547-.625.216-.387.297-.843.06-.434-.016-.797a1 1 0 0 0-.312-.594q-.235-.234-.688-.234-.456.001-.797.25-.346.236-.562.625-.205.392-.281.843a2.5 2.5 0 0 0 0 .797q.077.361.312.594.247.22.688.219M76.079 35.53l-.078.562h-.953l-.422 2.563q-.049.297.015.437.06.14.188.188a.8.8 0 0 0 .265.047.8.8 0 0 0 .188-.016q.075-.014.11-.016l.046.61c-.054.011-.12.023-.203.047-.086.02-.187.03-.312.03q-.3 0-.547-.124a.9.9 0 0 1-.39-.375c-.087-.164-.106-.38-.063-.64l.453-2.75h-.657l.094-.563h.656l.172-1.063h.672l-.172 1.063ZM76.755 39.92l.735-4.39h.656l-.125.656h.047a1.3 1.3 0 0 1 .516-.531q.356-.201.765-.203.34.002.516.156l-.313.562a.9.9 0 0 0-.375-.062q-.328 0-.61.14c-.179.086-.327.204-.452.36a1.2 1.2 0 0 0-.219.531l-.469 2.781ZM81.514 40.03c-.281 0-.527-.055-.734-.157a1.1 1.1 0 0 1-.469-.468q-.142-.295-.078-.735.06-.375.25-.61.2-.233.469-.374.262-.14.578-.203.31-.061.625-.11.404-.043.656-.078.263-.03.39-.093.123-.06.157-.22v-.03q.076-.422-.11-.657-.174-.234-.64-.234-.485 0-.813.219-.316.206-.468.453l-.594-.235a1.9 1.9 0 0 1 .547-.625 1.9 1.9 0 0 1 .687-.312q.357-.094.703-.094.2 0 .47.047c.175.031.343.102.5.203q.232.159.343.469.123.316.047.844l-.485 2.89h-.672l.094-.593h-.031q-.094.141-.281.312a2 2 0 0 1-.469.281c-.188.07-.414.11-.672.11m.203-.61q.388.002.688-.156.311-.154.5-.406c.125-.164.203-.344.234-.531l.094-.61a.55.55 0 0 1-.203.094 6 6 0 0 1-.344.062q-.187.035-.375.063l-.281.031q-.27.035-.516.11a1.2 1.2 0 0 0-.406.234.67.67 0 0 0-.203.39c-.032.243.023.422.172.547.156.118.367.172.64.172M86.273 37.28l-.437 2.64h-.672l.734-4.39h.657l-.125.687h.062q.2-.34.547-.547.356-.201.86-.203.669.001 1.015.406c.227.274.297.688.203 1.25l-.469 2.797h-.671l.453-2.75q.093-.516-.141-.797-.22-.294-.687-.296-.486 0-.86.312-.363.317-.469.89M93.954 36.514l-.64.172a.9.9 0 0 0-.125-.297.6.6 0 0 0-.25-.25 1 1 0 0 0-.469-.094q-.41 0-.703.188-.299.187-.344.469-.048.252.11.406.169.141.53.234l.641.156q1.109.3.97 1.204-.066.377-.329.671c-.18.2-.406.356-.688.47a2.4 2.4 0 0 1-.921.171q-.675 0-1.079-.297-.393-.292-.406-.844l.672-.171q.047.719.89.718.468.001.782-.203c.219-.133.336-.297.36-.484q.092-.469-.548-.625l-.703-.172q-.579-.14-.812-.438c-.156-.207-.211-.46-.156-.765q.06-.375.312-.656a1.8 1.8 0 0 1 .656-.438q.404-.17.86-.172.656 0 .984.281.327.284.406.766M96.522 34.06l-.984 5.86h-.672l.969-5.86ZM98.446 40.03c-.282 0-.528-.055-.735-.157a1.1 1.1 0 0 1-.468-.468q-.142-.295-.079-.735.061-.375.25-.61.2-.233.47-.374.261-.14.577-.203.31-.061.625-.11.405-.043.657-.078.262-.03.39-.093.122-.06.156-.22v-.03q.078-.422-.109-.657-.174-.234-.64-.234-.486 0-.813.219-.316.206-.469.453l-.594-.235a1.9 1.9 0 0 1 .547-.625 1.9 1.9 0 0 1 .688-.312q.357-.094.703-.094.2 0 .469.047c.175.031.343.102.5.203q.234.159.343.469.123.316.047.844l-.484 2.89h-.672l.094-.593h-.031q-.095.141-.282.312a2 2 0 0 1-.468.281c-.188.07-.414.11-.672.11m.203-.61q.388.002.687-.156.311-.154.5-.406c.125-.164.203-.344.235-.531l.093-.61a.55.55 0 0 1-.203.094 6 6 0 0 1-.343.062q-.187.035-.375.063l-.282.031q-.27.035-.515.11a1.2 1.2 0 0 0-.407.234.67.67 0 0 0-.203.39c-.03.243.024.422.172.547.156.118.367.172.64.172M104.736 35.53l-.078.562h-.953l-.422 2.563q-.047.297.016.437.058.14.187.188a.8.8 0 0 0 .266.047.8.8 0 0 0 .187-.016q.075-.014.11-.016l.047.61c-.055.011-.121.023-.203.047q-.127.03-.313.03-.3 0-.547-.124a.9.9 0 0 1-.39-.375c-.086-.164-.106-.38-.063-.64l.453-2.75h-.656l.094-.563h.656l.172-1.063h.672l-.172 1.063ZM107.24 40.014q-.625 0-1.046-.281a1.5 1.5 0 0 1-.578-.781q-.159-.514-.047-1.204.124-.67.453-1.187.327-.516.813-.797a2.1 2.1 0 0 1 1.093-.297q.34.001.657.125.328.112.562.36.232.25.313.671.093.425 0 1.047l-.047.282h-3.203q-.13.812.187 1.14.31.315.953.313.404.002.719-.172a1.25 1.25 0 0 0 .5-.516l.61.188a1.85 1.85 0 0 1-.75.812 2.33 2.33 0 0 1-1.188.297m-.937-2.64h2.516c.063-.376.004-.68-.172-.922q-.269-.375-.812-.375-.375 0-.703.187-.316.189-.532.5-.221.299-.297.61M112.892 41.577l1-6.047h.656l-.125.687h.094q.076-.105.234-.281.172-.187.453-.328.282-.14.703-.14.563 0 .938.28c.25.18.422.438.516.782q.152.516.046 1.203a3.2 3.2 0 0 1-.437 1.219 2.45 2.45 0 0 1-.797.78c-.305.188-.64.282-1.016.282q-.421 0-.656-.14a.94.94 0 0 1-.328-.329q-.112-.186-.172-.297h-.047l-.39 2.329Zm1.297-3.86q-.128.75.125 1.219.248.468.86.469c.28 0 .523-.07.733-.22q.328-.233.532-.608a2.7 2.7 0 0 0 .297-.86q.076-.451-.016-.828a1.1 1.1 0 0 0-.328-.594c-.156-.144-.383-.218-.672-.218a1.31 1.31 0 0 0-1.016.453q-.392.456-.515 1.187M120.111 34.06l-.984 5.86h-.672l.969-5.86ZM123.831 38.123l.422-2.593h.688l-.735 4.39h-.671l.125-.75h-.047c-.149.23-.344.422-.594.578a1.55 1.55 0 0 1-.86.235q-.61.002-.953-.406-.327-.423-.187-1.266l.469-2.781h.672l-.454 2.734q-.081.487.141.781.234.282.656.282.248.001.532-.125a1.5 1.5 0 0 0 .5-.407q.216-.263.296-.672M127.322 41.655q-.487-.001-.828-.125a1.5 1.5 0 0 1-.532-.328 1.14 1.14 0 0 1-.296-.422l.609-.375q.06.106.172.265.106.154.328.266.216.124.625.125.528-.001.922-.266.405-.252.5-.797l.14-.89h-.062a4 4 0 0 1-.25.297c-.106.117-.25.218-.438.312q-.28.14-.703.14-.534.002-.922-.25a1.5 1.5 0 0 1-.546-.734q-.16-.48-.047-1.171.105-.668.422-1.172c.218-.344.484-.602.796-.782a1.97 1.97 0 0 1 1.032-.28q.422 0 .656.14a.83.83 0 0 1 .328.328q.106.175.172.281h.062l.125-.687h.641l-.734 4.515a1.77 1.77 0 0 1-.422.922q-.316.357-.766.516a2.8 2.8 0 0 1-.984.172m.36-2.407c.405 0 .737-.132 1-.406q.403-.42.53-1.156.123-.716-.14-1.156c-.18-.301-.469-.453-.875-.453q-.44.001-.75.218-.316.222-.516.578a2.8 2.8 0 0 0-.265.813q-.112.69.125 1.125.246.438.89.437M131.12 39.92l.734-4.39h.672l-.735 4.39Zm1.265-5.14a.45.45 0 0 1-.328-.141.45.45 0 0 1-.14-.328q0-.186.14-.313a.472.472 0 0 1 .672 0q.14.127.14.313a.45.45 0 0 1-.14.328.47.47 0 0 1-.344.14M134.527 37.28l-.437 2.64h-.672l.734-4.39h.656l-.125.687h.063q.2-.34.547-.547.356-.201.86-.203.667.001 1.015.406c.226.274.297.688.203 1.25l-.469 2.797h-.672l.453-2.75q.094-.516-.14-.797c-.149-.195-.375-.296-.688-.296q-.486 0-.86.312-.362.317-.468.89M142.208 36.514l-.64.172a.9.9 0 0 0-.126-.297.6.6 0 0 0-.25-.25 1 1 0 0 0-.468-.094q-.41 0-.703.188-.299.187-.344.469-.048.252.11.406.168.141.53.234l.641.156q1.108.3.969 1.204-.065.377-.328.671-.268.3-.688.47a2.4 2.4 0 0 1-.922.171q-.673 0-1.078-.297-.394-.292-.406-.844l.672-.171q.047.719.89.718c.313 0 .57-.066.782-.203q.325-.202.36-.484.092-.469-.548-.625l-.703-.172q-.58-.14-.812-.438-.237-.309-.157-.765.06-.375.313-.656a1.8 1.8 0 0 1 .656-.438q.404-.17.86-.172.655 0 .984.281c.219.188.351.446.406.766M147.43 39.998q-.582-.002-.97-.203a1.3 1.3 0 0 1-.546-.578 1.5 1.5 0 0 1-.078-.86q.077-.526.453-.89.387-.373.968-.734a4.5 4.5 0 0 1-.375-.688 1.26 1.26 0 0 1-.078-.718c.063-.395.242-.711.547-.954q.45-.375 1.094-.375.435.001.719.172.293.174.422.453.124.283.078.594a1.6 1.6 0 0 1-.344.735 3.3 3.3 0 0 1-.656.578l-.485.312 1.016 1.563a2.5 2.5 0 0 0 .422-1.047h.64q-.094.626-.312 1-.207.377-.406.578l.64.984h-.812l-.328-.5q-.331.299-.766.438-.44.14-.844.14m1.28-1.062-1.109-1.703-.25.172q-.438.297-.625.578-.19.27-.203.375a.95.95 0 0 0 .047.515c.07.157.187.29.344.391q.232.14.593.14.622 0 1.204-.468m-.859-2.594.438-.281q.262-.155.437-.344a.95.95 0 0 0 .25-.5.54.54 0 0 0-.14-.422q-.158-.217-.47-.218a.75.75 0 0 0-.421.125 1 1 0 0 0-.313.28.8.8 0 0 0-.156.36.86.86 0 0 0 .078.485q.122.252.297.515M156.605 35.53l-.078.562h-.954l-.421 2.563q-.049.297.015.437.06.14.188.188a.8.8 0 0 0 .265.047.8.8 0 0 0 .188-.016q.075-.014.11-.016l.046.61c-.055.011-.121.023-.203.047q-.127.03-.313.03-.3 0-.546-.124a.9.9 0 0 1-.391-.375c-.086-.164-.105-.38-.063-.64l.454-2.75h-.657l.094-.563h.656l.172-1.063h.672l-.172 1.063ZM158.39 37.28l-.437 2.64h-.672l.969-5.86h.688l-.36 2.157h.063q.2-.34.547-.547.34-.201.875-.203.655.001 1 .406c.238.274.312.688.218 1.25l-.468 2.797h-.672l.453-2.75q.076-.516-.14-.797-.224-.294-.704-.296-.487 0-.875.312-.377.317-.484.89M164.258 40.014q-.626 0-1.047-.281a1.5 1.5 0 0 1-.578-.781q-.158-.514-.047-1.204.125-.67.453-1.187.328-.516.813-.797a2.1 2.1 0 0 1 1.094-.297q.34.001.656.125.328.112.562.36c.157.167.258.39.313.671q.093.425 0 1.047l-.047.282h-3.203q-.13.812.187 1.14.31.315.953.313.404.002.72-.172a1.25 1.25 0 0 0 .5-.516l.609.188a1.85 1.85 0 0 1-.75.812 2.33 2.33 0 0 1-1.188.297m-.937-2.64h2.515c.063-.376.004-.68-.172-.922q-.269-.375-.812-.375-.376 0-.703.187-.316.189-.532.5-.221.299-.296.61M167.521 39.92l.735-4.39h.656l-.125.687h.062q.201-.358.532-.547.34-.201.781-.203.42.002.687.203a.94.94 0 0 1 .36.547h.047q.217-.34.593-.547.375-.201.844-.203.592 0 .906.375.312.362.188 1.14l-.484 2.938h-.688l.5-2.937q.077-.498-.156-.703a.9.9 0 0 0-.594-.203q-.47 0-.766.28-.3.27-.359.704l-.484 2.86h-.688l.5-3.016q.059-.373-.14-.594-.206-.234-.594-.234-.27 0-.516.14a1.4 1.4 0 0 0-.437.39 1.3 1.3 0 0 0-.219.563l-.469 2.75ZM176.742 40.014q-.626 0-1.047-.281a1.5 1.5 0 0 1-.578-.781q-.159-.514-.047-1.204.124-.67.453-1.187.327-.516.812-.797a2.1 2.1 0 0 1 1.094-.297q.34.001.656.125.33.112.563.36.232.25.312.671.094.425 0 1.047l-.046.282h-3.204q-.129.812.188 1.14.31.315.953.313.404.002.719-.172a1.25 1.25 0 0 0 .5-.516l.61.188a1.85 1.85 0 0 1-.75.812 2.33 2.33 0 0 1-1.188.297m-.938-2.64h2.516c.062-.376.004-.68-.172-.922q-.27-.375-.813-.375-.375 0-.703.187-.314.189-.531.5-.221.299-.297.61M183.692 36.514l-.64.172a.9.9 0 0 0-.125-.297.6.6 0 0 0-.25-.25 1 1 0 0 0-.469-.094q-.41 0-.703.188-.299.187-.344.469-.048.252.11.406.169.141.53.234l.641.156q1.109.3.97 1.204-.065.377-.329.671c-.18.2-.406.356-.687.47a2.4 2.4 0 0 1-.922.171q-.675 0-1.078-.297-.394-.292-.407-.844l.672-.171q.047.719.89.718c.313 0 .571-.066.782-.203.219-.133.336-.297.36-.484q.092-.469-.547-.625l-.704-.172q-.578-.14-.812-.438c-.156-.207-.211-.46-.156-.765q.06-.375.312-.656a1.8 1.8 0 0 1 .656-.438q.404-.17.86-.172.655 0 .984.281.327.284.406.766m0 0"/></svg>