<svg xmlns="http://www.w3.org/2000/svg" xmlns:xlink="http://www.w3.org/1999/xlink" width="420" zoomAndPan="magnify" viewBox="0 0 315 112.499997" height="150" preserveAspectRatio="xMidYMid meet" version="1.2"><defs><clipPath id="2cfc42ed87"><path d="M 0.695312 9.691406 L 93.285156 9.691406 L 93.285156 102.277344 L 0.695312 102.277344 Z M 0.695312 9.691406 "/></clipPath><clipPath id="fe9885fc7a"><path d="M 13.355469 9.691406 L 80.625 9.691406 C 87.617188 9.691406 93.285156 15.359375 93.285156 22.347656 L 93.285156 89.621094 C 93.285156 96.613281 87.617188 102.277344 80.625 102.277344 L 13.355469 102.277344 C 6.363281 102.277344 0.695312 96.613281 0.695312 89.621094 L 0.695312 22.347656 C 0.695312 15.359375 6.363281 9.691406 13.355469 9.691406 Z M 13.355469 9.691406 "/></clipPath><clipPath id="1cc2ddb7dc"><path d="M 44.847656 45.667969 L 84.578125 45.667969 L 84.578125 85.757812 L 44.847656 85.757812 Z M 44.847656 45.667969 "/></clipPath><clipPath id="5236748546"><path d="M 9.40625 26.753906 L 49.136719 26.753906 L 49.136719 66.835938 L 9.40625 66.835938 Z M 9.40625 26.753906 "/></clipPath><clipPath id="9a3f9a51f2"><path d="M 44.847656 45.667969 L 49.136719 45.667969 L 49.136719 66.84375 L 44.847656 66.84375 Z M 44.847656 45.667969 "/></clipPath><clipPath id="70146f822d"><path d="M 49.179688 26.679688 L 76.847656 26.679688 L 76.847656 45.667969 L 49.179688 45.667969 Z M 49.179688 26.679688 "/></clipPath><clipPath id="4bcc4bb715"><path d="M 17.136719 66.84375 L 44.804688 66.84375 L 44.804688 85.832031 L 17.136719 85.832031 Z M 17.136719 66.84375 "/></clipPath></defs><g id="46bf7ed437"><g clip-rule="nonzero" clip-path="url(#2cfc42ed87)"><g clip-rule="nonzero" clip-path="url(#fe9885fc7a)"><path style="fill:none;stroke-width:12;stroke-linecap:butt;stroke-linejoin:miter;stroke:#222222;stroke-opacity:1;stroke-miterlimit:4;" d="M 69.99988 0.00449997 L 441.989994 0.00449997 C 480.655711 0.00449997 511.998702 31.347491 511.998702 69.991607 L 511.998702 442.003322 C 511.998702 480.669039 480.655711 511.990429 441.989994 511.990429 L 69.99988 511.990429 C 31.334163 511.990429 -0.00882835 480.669039 -0.00882835 442.003322 L -0.00882835 69.991607 C -0.00882835 31.347491 31.334163 0.00449997 69.99988 0.00449997 Z M 69.99988 0.00449997 " transform="matrix(0.180837,0,0,0.180837,0.696909,9.690592)"/></g></g><g clip-rule="nonzero" clip-path="url(#1cc2ddb7dc)"><path style=" stroke:none;fill-rule:nonzero;fill:#3db63d;fill-opacity:1;" d="M 44.847656 45.667969 L 84.578125 45.667969 L 84.578125 85.707031 L 44.847656 85.707031 Z M 44.847656 45.667969 "/></g><g clip-rule="nonzero" clip-path="url(#5236748546)"><path style=" stroke:none;fill-rule:nonzero;fill:#3db63d;fill-opacity:1;" d="M 9.40625 26.753906 L 49.136719 26.753906 L 49.136719 66.796875 L 9.40625 66.796875 Z M 9.40625 26.753906 "/></g><g clip-rule="nonzero" clip-path="url(#9a3f9a51f2)"><path style=" stroke:none;fill-rule:nonzero;fill:#075a07;fill-opacity:1;" d="M 44.847656 45.667969 L 49.136719 45.667969 L 49.136719 66.847656 L 44.847656 66.847656 Z M 44.847656 45.667969 "/></g><path style=" stroke:none;fill-rule:nonzero;fill:#f5fff5;fill-opacity:1;" d="M 39.230469 38.449219 L 36.664062 38.449219 L 36.664062 42.460938 C 36.664062 43.542969 36.570312 44.402344 36.378906 45.027344 C 36.191406 45.652344 35.859375 46.207031 35.378906 46.691406 C 34.898438 47.148438 34.3125 47.503906 33.621094 47.753906 C 32.933594 48.003906 32.046875 48.183594 30.960938 48.289062 L 30.242188 44.839844 C 31.078125 44.714844 31.621094 44.527344 31.871094 44.273438 C 32.097656 44.066406 32.253906 43.808594 32.335938 43.496094 C 32.421875 43.183594 32.464844 42.660156 32.464844 41.929688 L 32.464844 38.449219 L 26.078125 38.449219 L 26.078125 43.554688 C 26.078125 44.351562 26.105469 45.003906 26.171875 45.515625 C 26.234375 46.023438 26.367188 46.464844 26.578125 46.828125 C 26.785156 47.195312 27.097656 47.539062 27.515625 47.863281 C 27.933594 48.1875 28.496094 48.546875 29.207031 48.941406 L 33.59375 51.484375 C 34.867188 52.214844 35.722656 52.941406 36.160156 53.660156 C 36.601562 54.382812 36.820312 55.25 36.820312 56.273438 C 36.820312 57.109375 36.636719 57.925781 36.269531 58.714844 C 35.90625 59.507812 35.527344 60.167969 35.128906 60.691406 L 31.683594 58.71875 C 31.910156 58.488281 32.113281 58.175781 32.292969 57.777344 C 32.46875 57.378906 32.558594 57.015625 32.558594 56.679688 C 32.558594 56.265625 32.484375 55.902344 32.335938 55.601562 C 32.191406 55.300781 31.90625 54.984375 31.480469 54.664062 C 31.050781 54.339844 30.410156 53.925781 29.554688 53.421875 L 25.761719 51.230469 C 24.945312 50.769531 24.25 50.292969 23.675781 49.789062 C 23.105469 49.289062 22.660156 48.671875 22.347656 47.941406 C 22.199219 47.542969 22.085938 47.074219 22 46.53125 C 21.917969 45.988281 21.875 45.28125 21.875 44.402344 L 21.875 38.449219 L 19.746094 38.449219 L 19.746094 35.003906 L 39.230469 35.003906 Z M 39.230469 38.449219 "/><path style=" stroke:none;fill-rule:nonzero;fill:#f5fff5;fill-opacity:1;" d="M 58.445312 77.945312 L 52.878906 77.945312 L 61.363281 53.371094 L 68.058594 53.371094 L 76.53125 77.945312 L 70.960938 77.945312 L 69.136719 72.34375 L 60.269531 72.34375 Z M 61.59375 68.285156 L 67.832031 68.285156 L 64.804688 58.988281 L 64.613281 58.988281 Z M 61.59375 68.285156 "/><g clip-rule="nonzero" clip-path="url(#70146f822d)"><path style=" stroke:none;fill-rule:nonzero;fill:#000000;fill-opacity:1;" d="M 57.53125 30.042969 L 57.53125 26.785156 L 49.191406 33.507812 L 57.53125 40.226562 L 57.53125 36.988281 C 57.53125 36.988281 72.339844 34.023438 76.832031 45.664062 C 76.832031 45.664062 75.199219 30.757812 57.53125 30.042969 "/></g><g clip-rule="nonzero" clip-path="url(#4bcc4bb715)"><path style=" stroke:none;fill-rule:nonzero;fill:#000000;fill-opacity:1;" d="M 36.449219 82.46875 L 36.449219 85.730469 L 44.789062 79.003906 L 36.449219 72.28125 L 36.449219 75.527344 C 36.449219 75.527344 21.640625 78.488281 17.148438 66.84375 C 17.148438 66.84375 18.785156 81.753906 36.449219 82.46875 "/></g><g style="fill:#30b230;fill-opacity:1;"><g transform="translate(103.795767, 75.439163)"><path style="stroke:none" d="M 2.734375 0 L 2.734375 -42.40625 L 14.25 -42.40625 L 14.25 -9.28125 L 31.390625 -9.28125 L 31.390625 0 Z M 2.734375 0 "/></g></g><g style="fill:#30b230;fill-opacity:1;"><g transform="translate(137.735035, 75.439163)"><path style="stroke:none" d="M 18.21875 0.578125 C 14.769531 0.578125 11.816406 -0.109375 9.359375 -1.484375 C 6.898438 -2.859375 5.015625 -4.773438 3.703125 -7.234375 C 2.390625 -9.703125 1.734375 -12.566406 1.734375 -15.828125 C 1.734375 -19.078125 2.390625 -21.929688 3.703125 -24.390625 C 5.015625 -26.859375 6.898438 -28.78125 9.359375 -30.15625 C 11.816406 -31.53125 14.769531 -32.21875 18.21875 -32.21875 C 21.675781 -32.21875 24.628906 -31.53125 27.078125 -30.15625 C 29.535156 -28.78125 31.421875 -26.859375 32.734375 -24.390625 C 34.046875 -21.929688 34.703125 -19.078125 34.703125 -15.828125 C 34.703125 -12.566406 34.046875 -9.703125 32.734375 -7.234375 C 31.421875 -4.773438 29.535156 -2.859375 27.078125 -1.484375 C 24.628906 -0.109375 21.675781 0.578125 18.21875 0.578125 Z M 18.3125 -7.875 C 19.269531 -7.875 20.101562 -8.195312 20.8125 -8.84375 C 21.519531 -9.488281 22.066406 -10.410156 22.453125 -11.609375 C 22.835938 -12.816406 23.03125 -14.25 23.03125 -15.90625 C 23.03125 -17.570312 22.835938 -19 22.453125 -20.1875 C 22.066406 -21.382812 21.519531 -22.304688 20.8125 -22.953125 C 20.101562 -23.609375 19.269531 -23.9375 18.3125 -23.9375 C 17.28125 -23.9375 16.398438 -23.609375 15.671875 -22.953125 C 14.941406 -22.304688 14.382812 -21.382812 14 -20.1875 C 13.613281 -19 13.421875 -17.570312 13.421875 -15.90625 C 13.421875 -14.25 13.613281 -12.816406 14 -11.609375 C 14.382812 -10.410156 14.941406 -9.488281 15.671875 -8.84375 C 16.398438 -8.195312 17.28125 -7.875 18.3125 -7.875 Z M 18.3125 -7.875 "/></g></g><g style="fill:#30b230;fill-opacity:1;"><g transform="translate(174.821911, 75.439163)"><path style="stroke:none" d="M 18.21875 0.578125 C 14.769531 0.578125 11.816406 -0.109375 9.359375 -1.484375 C 6.898438 -2.859375 5.015625 -4.773438 3.703125 -7.234375 C 2.390625 -9.703125 1.734375 -12.566406 1.734375 -15.828125 C 1.734375 -19.078125 2.390625 -21.929688 3.703125 -24.390625 C 5.015625 -26.859375 6.898438 -28.78125 9.359375 -30.15625 C 11.816406 -31.53125 14.769531 -32.21875 18.21875 -32.21875 C 21.34375 -32.21875 24.046875 -31.65625 26.328125 -30.53125 C 28.609375 -29.40625 30.378906 -27.816406 31.640625 -25.765625 C 32.898438 -23.722656 33.535156 -21.316406 33.546875 -18.546875 L 22.9375 -18.546875 C 22.789062 -20.222656 22.3125 -21.5 21.5 -22.375 C 20.695312 -23.25 19.660156 -23.6875 18.390625 -23.6875 C 17.390625 -23.6875 16.515625 -23.398438 15.765625 -22.828125 C 15.023438 -22.253906 14.445312 -21.390625 14.03125 -20.234375 C 13.625 -19.085938 13.421875 -17.644531 13.421875 -15.90625 C 13.421875 -14.164062 13.625 -12.71875 14.03125 -11.5625 C 14.445312 -10.414062 15.023438 -9.554688 15.765625 -8.984375 C 16.515625 -8.410156 17.390625 -8.125 18.390625 -8.125 C 19.234375 -8.125 19.976562 -8.316406 20.625 -8.703125 C 21.269531 -9.097656 21.796875 -9.675781 22.203125 -10.4375 C 22.609375 -11.207031 22.851562 -12.144531 22.9375 -13.25 L 33.546875 -13.25 C 33.503906 -10.445312 32.859375 -8.003906 31.609375 -5.921875 C 30.367188 -3.847656 28.613281 -2.242188 26.34375 -1.109375 C 24.070312 0.015625 21.363281 0.578125 18.21875 0.578125 Z M 18.21875 0.578125 "/></g></g><g style="fill:#30b230;fill-opacity:1;"><g transform="translate(210.831975, 75.439163)"><path style="stroke:none" d="M 18.21875 0.578125 C 14.769531 0.578125 11.816406 -0.109375 9.359375 -1.484375 C 6.898438 -2.859375 5.015625 -4.773438 3.703125 -7.234375 C 2.390625 -9.703125 1.734375 -12.566406 1.734375 -15.828125 C 1.734375 -19.078125 2.390625 -21.929688 3.703125 -24.390625 C 5.015625 -26.859375 6.898438 -28.78125 9.359375 -30.15625 C 11.816406 -31.53125 14.769531 -32.21875 18.21875 -32.21875 C 21.675781 -32.21875 24.628906 -31.53125 27.078125 -30.15625 C 29.535156 -28.78125 31.421875 -26.859375 32.734375 -24.390625 C 34.046875 -21.929688 34.703125 -19.078125 34.703125 -15.828125 C 34.703125 -12.566406 34.046875 -9.703125 32.734375 -7.234375 C 31.421875 -4.773438 29.535156 -2.859375 27.078125 -1.484375 C 24.628906 -0.109375 21.675781 0.578125 18.21875 0.578125 Z M 18.3125 -7.875 C 19.269531 -7.875 20.101562 -8.195312 20.8125 -8.84375 C 21.519531 -9.488281 22.066406 -10.410156 22.453125 -11.609375 C 22.835938 -12.816406 23.03125 -14.25 23.03125 -15.90625 C 23.03125 -17.570312 22.835938 -19 22.453125 -20.1875 C 22.066406 -21.382812 21.519531 -22.304688 20.8125 -22.953125 C 20.101562 -23.609375 19.269531 -23.9375 18.3125 -23.9375 C 17.28125 -23.9375 16.398438 -23.609375 15.671875 -22.953125 C 14.941406 -22.304688 14.382812 -21.382812 14 -20.1875 C 13.613281 -19 13.421875 -17.570312 13.421875 -15.90625 C 13.421875 -14.25 13.613281 -12.816406 14 -11.609375 C 14.382812 -10.410156 14.941406 -9.488281 15.671875 -8.84375 C 16.398438 -8.195312 17.28125 -7.875 18.3125 -7.875 Z M 18.3125 -7.875 "/></g></g><g style="fill:#000000;fill-opacity:1;"><g transform="translate(247.986698, 75.439163)"><path style="stroke:none" d="M 13.75 0 L 1.328125 0 L 15.328125 -42.40625 L 31.0625 -42.40625 L 45.0625 0 L 32.640625 0 L 23.359375 -30.734375 L 23.03125 -30.734375 Z M 11.4375 -16.734375 L 34.78125 -16.734375 L 34.78125 -8.125 L 11.4375 -8.125 Z M 11.4375 -16.734375 "/></g></g><g style="fill:#000000;fill-opacity:1;"><g transform="translate(295.013201, 75.439163)"><path style="stroke:none" d="M 14.25 -42.40625 L 14.25 0 L 2.734375 0 L 2.734375 -42.40625 Z M 14.25 -42.40625 "/></g></g></g></svg>